<?xml version="1.0" encoding="UTF-8"?>
<svg width="200px" height="208px" viewBox="0 0 200 208" version="1.1" xmlns="http://www.w3.org/2000/svg" xmlns:xlink="http://www.w3.org/1999/xlink">
    <!-- Generator: Sketch 47.1 (45422) - http://www.bohemiancoding.com/sketch -->
    <title>myride_logo</title>
    <desc>Created with Sketch.</desc>
    <defs>
        <linearGradient x1="0.0638848921%" y1="49.9344274%" x2="100.00801%" y2="49.9344274%" id="linearGradient-1">
            <stop stop-color="#00EF93" offset="0%"></stop>
            <stop stop-color="#00DC96" offset="0.09330958%"></stop>
            <stop stop-color="#00C396" offset="100%"></stop>
        </linearGradient>
    </defs>
    <g id="Designs" stroke="none" stroke-width="1" fill="none" fill-rule="evenodd">
        <g id="myride_logo">
            <g id="SVGID_4_-link" transform="translate(57.800000, 0.000000)"></g>
            <g id="Group" transform="translate(0.000000, 167.000000)" fill-rule="nonzero">
                <path d="M112.108108,37.5663334 L100.594595,25.2348756 C100.324324,24.9679609 99.8918919,24.7544292 99.5135135,24.7544292 L85.7837838,24.7544292 L85.7837838,3.34787259 L97.3513514,3.34787259 C97.3513514,3.34787259 98.5945946,3.34787259 100.27027,3.72155313 C101.72973,4.09523367 103.783784,4.84259475 105.459459,6.44408277 C107.297297,8.25910253 108.216216,10.8748663 108.216216,14.0244594 C108.216216,17.9747966 107.135135,20.857475 104.864865,22.7258777 C104.27027,23.259707 104.108108,24.2739828 104.648649,24.914578 C105.243243,25.5017903 106.162162,25.6085561 106.864865,25.0747268 C108.216216,23.9003023 109.297297,22.512346 110.054054,20.857475 C110.918919,18.9356894 111.351351,16.5868403 111.351351,14.0244594 C111.351351,9.91397349 110.108108,6.71099744 107.621622,4.3087654 C103.513514,0.305045338 97.7837838,0.251662404 97.4054054,0.251662404 L84.2702703,0.251662404 C83.4054054,0.251662404 82.7027027,0.945640549 82.7027027,1.7997675 L82.7027027,38.6339921 C82.7027027,39.4347361 83.4054054,40.1287143 84.2702703,40.1287143 C85.0810811,40.1287143 85.8378378,39.4347361 85.8378378,38.6339921 L85.8378378,27.8506394 L98.8108108,27.8506394 L109.891892,39.5948849 C110.162162,39.9685654 110.594595,40.1287143 110.972973,40.1287143 C111.405405,40.1287143 111.72973,40.0219484 112.054054,39.7016508 C112.648649,39.1678214 112.648649,38.1535457 112.108108,37.5663334 L112.108108,37.5663334 Z M148.756757,40.1287143 C148.918919,40.1287143 152.702703,40.0753313 156.486486,37.5663334 C158.756757,36.0182283 160.486486,34.0430598 161.783784,31.4806789 C163.351351,28.3844687 164.108108,24.5942804 164.108108,20.1634969 C164.108108,15.6793304 163.243243,11.942525 161.621622,8.84631481 C160.216216,6.28393397 158.27027,4.20199953 155.891892,2.70727738 C151.837838,0.251662404 147.783784,0.19827947 147.621622,0.19827947 L137.027027,0.19827947 C136.162162,0.19827947 135.513514,0.892257615 135.513514,1.74638456 L135.513514,38.5272262 C135.513514,39.3813532 136.162162,40.0753313 137.027027,40.0753313 L148.756757,40.0753313 L148.756757,40.1287143 Z M138.594595,37.085887 L138.594595,3.29448965 L147.621622,3.29448965 C147.675676,3.29448965 151.081081,3.34787259 154.324324,5.48318996 C158.756757,8.25910253 160.972973,13.2237154 160.972973,20.2168798 C160.972973,27.2634271 158.864865,32.1746571 154.810811,35.0039526 C151.837838,37.085887 148.702703,37.1392699 148.648649,37.1392699 L138.594595,37.1392699 L138.594595,37.085887 Z M198.378378,40.0753313 C199.243243,40.0753313 199.891892,39.4347361 199.891892,38.5806092 C199.891892,37.7264822 199.243243,37.0325041 198.378378,37.0325041 L177.459459,37.0325041 L177.459459,18.9890723 L192.972973,18.9890723 C193.837838,18.9890723 194.540541,18.2950942 194.540541,17.4943502 C194.540541,16.6402232 193.837838,15.9462451 192.972973,15.9462451 L175.891892,15.9462451 C175.027027,15.9462451 174.378378,16.6402232 174.378378,17.4943502 L174.378378,38.5272262 C174.378378,39.3813532 175.027027,40.0219484 175.891892,40.0219484 L198.378378,40.0219484 L198.378378,40.0753313 Z" id="Shape" fill="#FFFFFF"></path>
                <path d="M175.837838,12.6898861 C176.702703,12.6898861 177.405405,11.9959079 177.405405,11.141781 L177.405405,3.29448965 L198.324324,3.29448965 C199.189189,3.29448965 199.837838,2.60051151 199.837838,1.74638456 C199.837838,0.892257615 199.189189,0.251662404 198.324324,0.251662404 L175.837838,0.251662404 C174.972973,0.251662404 174.324324,0.892257615 174.324324,1.74638456 L174.324324,11.141781 C174.324324,11.9959079 174.972973,12.6898861 175.837838,12.6898861" id="Shape" fill="#FFFFFF"></path>
                <path d="M1.89189189,40.2354801 C2.7027027,40.2354801 3.40540541,39.5948849 3.40540541,38.687375 L3.40540541,28.5980005 C3.40540541,27.6904906 2.7027027,27.0498954 1.89189189,27.0498954 C1.02702703,27.0498954 0.324324324,27.6904906 0.324324324,28.5980005 L0.324324324,38.687375 C0.324324324,39.5948849 1.02702703,40.2354801 1.89189189,40.2354801" id="Shape" fill="#FFFFFF"></path>
                <path d="M121.945946,40.1287143 C122.756757,40.1287143 123.459459,39.488119 123.459459,38.5806092 L123.459459,1.7997675 C123.459459,0.892257615 122.756757,0.251662404 121.945946,0.251662404 C121.081081,0.251662404 120.378378,0.892257615 120.378378,1.7997675 L120.378378,38.5806092 C120.432432,39.488119 121.135135,40.1287143 121.945946,40.1287143" id="Shape" fill="#FFFFFF"></path>
                <path d="M58.4864865,40.1287143 C59.4054054,40.1287143 60.0540541,39.3813532 60.0540541,38.6339921 L60.0540541,20.5905603 L72.5945946,2.60051151 C73.0810811,1.90653336 72.8648649,0.945640549 72.1621622,0.465194141 C71.4594595,-0.0152522669 70.4864865,0.19827947 70,0.83887468 L58.4864865,17.4409672 L56.4324324,14.4515229 C55.9459459,13.7575448 55.027027,13.544013 54.2702703,14.0778424 C53.6216216,14.5582888 53.4054054,15.4657987 53.8918919,16.1597768 L56.972973,20.5905603 L56.972973,38.6339921 C56.972973,39.3813532 57.6216216,40.1287143 58.4864865,40.1287143" id="Shape" fill="#00DC96"></path>
                <path d="M51.6216216,11.6756103 C51.8918919,11.6756103 52.2162162,11.5688445 52.4864865,11.4086957 C53.1891892,10.9282492 53.3513514,9.96735643 52.8648649,9.27337828 L47.027027,0.892257615 C46.4864865,0.251662404 45.5675676,0.0381306673 44.8108108,0.518577075 C44.1621622,0.999023483 43.9459459,1.9599163 44.4864865,2.65389444 L50.3243243,11.0350151 C50.5945946,11.4086957 51.1351351,11.6756103 51.6216216,11.6756103" id="Shape" fill="#FFFFFF"></path>
                <path d="M32.4864865,40.1287143 C33.3513514,40.1287143 34.0540541,39.488119 34.0540541,38.6339921 L34.0540541,1.74638456 C34.0540541,1.10578935 33.6216216,0.465194141 32.9189189,0.305045338 C32.2702703,0.0915136015 31.5675676,0.358428272 31.1891892,0.945640549 L17.0810811,23.4198558 L3.13513514,0.945640549 C2.75675676,0.358428272 2.05405405,0.0915136015 1.40540541,0.305045338 C0.702702703,0.465194141 0.27027027,1.10578935 0.27027027,1.74638456 L0.27027027,23.0461753 C0.27027027,23.9003023 0.972972973,24.5408975 1.83783784,24.5408975 C2.7027027,24.5408975 3.35135135,23.9003023 3.35135135,23.0461753 L3.35135135,7.08467798 L15.7837838,27.1032783 C16.0540541,27.5303418 16.5405405,27.7972565 17.0810811,27.7972565 C17.6216216,27.7972565 18.1081081,27.5303418 18.4324324,27.1032783 L30.972973,7.08467798 L30.972973,38.6339921 C30.972973,39.488119 31.6216216,40.1287143 32.4864865,40.1287143" id="Shape" fill="#00DC96"></path>
            </g>
            <g id="logo-copy" transform="translate(57.000000, 0.000000)" fill-rule="nonzero">
                <path d="M43.52,0.209625668 C19.91,0.269518717 0.8,19.7946524 0.89,43.7818182 C0.95,67.768984 43.88,122.990374 43.88,122.990374 C43.88,122.990374 86.48,67.5294118 86.42,43.542246 C86.36,19.6149733 67.28,0.269518717 43.76,0.209625668 L43.52,0.209625668 Z" id="SVGID_4_" fill="#FFFFFF"></path>
                <path d="M47.45,32.4320856 C47.45,30.3358289 45.74,28.628877 43.64,28.628877 C41.54,28.628877 39.83,30.3358289 39.83,32.4320856 C39.83,34.5283422 41.54,36.2352941 43.64,36.2352941 C45.74,36.2352941 47.45,34.5283422 47.45,32.4320856 L47.45,32.4320856 Z M69.92,37.0139037 C68.21,39.4395722 66.74,41.5058824 65.63,43.7219251 C59.39,41.5657754 51.83,40.397861 43.91,40.397861 C43.82,40.397861 43.76,40.397861 43.67,40.397861 C35.66,40.4278075 28.01,41.6256684 21.71,43.8417112 C20.57,41.6256684 19.1,39.5593583 17.39,37.1935829 C18.32,29.2278075 29.93,22.4 43.61,22.3700535 C43.64,22.3700535 43.7,22.3700535 43.73,22.3700535 C57.35,22.3700535 68.93,29.1080214 69.92,37.0139037 L69.92,37.0139037 Z M22.94,48.513369 C28.76,46.2374332 35.99,44.9796791 43.64,44.9497326 C43.7,44.9497326 43.79,44.9497326 43.85,44.9497326 C51.44,44.9497326 58.58,46.1475936 64.37,48.3935829 C64.28,49.1721925 64.19,49.9807487 64.16,50.8192513 C57.56,54.0534759 50.54,55.6705882 43.55,55.6705882 C36.65,55.6705882 29.72,54.0834225 23.21,50.9390374 C23.15,50.1005348 23.06,49.2919786 22.94,48.513369 L22.94,48.513369 Z M74.9,38.2716578 L74.66,36.4449198 C73.37,25.8737968 59.75,17.6085561 43.7,17.6085561 L43.7,17.6085561 L43.55,17.6085561 C27.41,17.6684492 13.82,26.0235294 12.56,36.6545455 L12.35,38.5112299 L13.43,40.0085561 C14.96,42.1048128 16.37,44.1112299 17.39,46.057754 L17.87,46.9561497 L18.17,49.1721925 C18.26,49.9208556 18.35,50.5796791 18.41,51.2684492 L18.59,54.0534759 L21.11,55.2812834 C28.25,58.7251337 35.81,60.4919786 43.55,60.4919786 C51.38,60.4919786 59.03,58.6951872 66.26,55.1614973 L68.78,53.9336898 L68.93,51.1486631 C68.96,50.4299465 69.02,49.7411765 69.11,49.0524064 L69.41,46.8363636 L69.86,45.9080214 C70.82,44.0213904 72.11,42.1647059 73.76,39.828877 L73.79,39.7989305 L74.9,38.2716578 Z" id="Shape" fill="url(#linearGradient-1)"></path>
            </g>
        </g>
    </g>
</svg>