<?xml version="1.0" encoding="UTF-8"?>
<svg width="87px" height="123px" viewBox="0 0 87 123" version="1.1" xmlns="http://www.w3.org/2000/svg" xmlns:xlink="http://www.w3.org/1999/xlink">
    <!-- Generator: Sketch 47.1 (45422) - http://www.bohemiancoding.com/sketch -->
    <title>logo</title>
    <desc>Created with Sketch.</desc>
    <defs>
        <linearGradient x1="0.0638848921%" y1="49.9344274%" x2="100.00801%" y2="49.9344274%" id="linearGradient-1">
            <stop stop-color="#00EF93" offset="0%"></stop>
            <stop stop-color="#00DC96" offset="0.09330958%"></stop>
            <stop stop-color="#00C396" offset="100%"></stop>
        </linearGradient>
    </defs>
    <g id="Designs" stroke="none" stroke-width="1" fill="none" fill-rule="evenodd">
        <g id="Group" transform="translate(-13.000000, 0.000000)" fill-rule="nonzero">
            <g id="logo" transform="translate(13.000000, 0.000000)">
                <path d="M43.52,0.209625668 C19.91,0.269518717 0.8,19.7946524 0.89,43.7818182 C0.95,67.768984 43.88,122.990374 43.88,122.990374 C43.88,122.990374 86.48,67.5294118 86.42,43.542246 C86.36,19.6149733 67.28,0.269518717 43.76,0.209625668 L43.52,0.209625668 Z" id="SVGID_4_" fill="#FFFFFF"></path>
                <path d="M47.45,32.4320856 C47.45,30.3358289 45.74,28.628877 43.64,28.628877 C41.54,28.628877 39.83,30.3358289 39.83,32.4320856 C39.83,34.5283422 41.54,36.2352941 43.64,36.2352941 C45.74,36.2352941 47.45,34.5283422 47.45,32.4320856 L47.45,32.4320856 Z M69.92,37.0139037 C68.21,39.4395722 66.74,41.5058824 65.63,43.7219251 C59.39,41.5657754 51.83,40.397861 43.91,40.397861 C43.82,40.397861 43.76,40.397861 43.67,40.397861 C35.66,40.4278075 28.01,41.6256684 21.71,43.8417112 C20.57,41.6256684 19.1,39.5593583 17.39,37.1935829 C18.32,29.2278075 29.93,22.4 43.61,22.3700535 C43.64,22.3700535 43.7,22.3700535 43.73,22.3700535 C57.35,22.3700535 68.93,29.1080214 69.92,37.0139037 L69.92,37.0139037 Z M22.94,48.513369 C28.76,46.2374332 35.99,44.9796791 43.64,44.9497326 C43.7,44.9497326 43.79,44.9497326 43.85,44.9497326 C51.44,44.9497326 58.58,46.1475936 64.37,48.3935829 C64.28,49.1721925 64.19,49.9807487 64.16,50.8192513 C57.56,54.0534759 50.54,55.6705882 43.55,55.6705882 C36.65,55.6705882 29.72,54.0834225 23.21,50.9390374 C23.15,50.1005348 23.06,49.2919786 22.94,48.513369 L22.94,48.513369 Z M74.9,38.2716578 L74.66,36.4449198 C73.37,25.8737968 59.75,17.6085561 43.7,17.6085561 L43.7,17.6085561 L43.55,17.6085561 C27.41,17.6684492 13.82,26.0235294 12.56,36.6545455 L12.35,38.5112299 L13.43,40.0085561 C14.96,42.1048128 16.37,44.1112299 17.39,46.057754 L17.87,46.9561497 L18.17,49.1721925 C18.26,49.9208556 18.35,50.5796791 18.41,51.2684492 L18.59,54.0534759 L21.11,55.2812834 C28.25,58.7251337 35.81,60.4919786 43.55,60.4919786 C51.38,60.4919786 59.03,58.6951872 66.26,55.1614973 L68.78,53.9336898 L68.93,51.1486631 C68.96,50.4299465 69.02,49.7411765 69.11,49.0524064 L69.41,46.8363636 L69.86,45.9080214 C70.82,44.0213904 72.11,42.1647059 73.76,39.828877 L73.79,39.7989305 L74.9,38.2716578 Z" id="Shape" fill="url(#linearGradient-1)"></path>
            </g>
        </g>
    </g>
</svg>