<?xml version="1.0" standalone="no"?>
<!DOCTYPE svg PUBLIC "-//W3C//DTD SVG 1.1//EN" "http://www.w3.org/Graphics/SVG/1.1/DTD/svg11.dtd" >
<svg xmlns="http://www.w3.org/2000/svg" xmlns:xlink="http://www.w3.org/1999/xlink" version="1.1">
<metadata>
Created by FontForge 20161003 at Sat Jan 27 19:08:49 2018
 By www-data
Nawras Khrais 
</metadata>
<defs>
<font id="ONEDAY" horiz-adv-x="833" >
  <font-face 
    font-family="ONE DAY"
    font-weight="400"
    font-stretch="normal"
    units-per-em="1000"
    panose-1="0 0 0 0 0 0 0 0 0 0"
    ascent="750"
    descent="-250"
    x-height="749"
    cap-height="750"
    bbox="-36 -99 785 849"
    underline-thickness="50"
    underline-position="-100"
    unicode-range="U+000D-2122"
  />
<missing-glyph horiz-adv-x="344" 
 />
    <glyph glyph-name=".notdef" horiz-adv-x="344" 
 />
    <glyph glyph-name="NULL" horiz-adv-x="0" 
 />
    <glyph glyph-name="NULL" horiz-adv-x="0" 
 />
    <glyph glyph-name="nonmarkingreturn" unicode="&#xd;" horiz-adv-x="344" 
 />
    <glyph glyph-name="space" unicode=" " horiz-adv-x="198" 
 />
    <glyph glyph-name="dollar" unicode="$" horiz-adv-x="532" 
d="M217 56q14 0 22 -8.5t8 -20.5q0 -5 -2 -8v-90q0 -11 -7.5 -19.5t-20.5 -8.5q-12 0 -19.5 8.5t-7.5 19.5v71q-35 3 -61.5 12.5t-46 23t-33 29t-22.5 30.5q-10 18 -15.5 35.5t-8 31t-3 22t-0.5 9.5v2q0 11 8 19t19 8q13 0 22 -8t9 -19q0 -2 2 -24t16 -48q23 -33 56.5 -50
t84.5 -17zM58 195v-2v2zM342 376q21 -11 37.5 -28.5t29.5 -37.5q10 -18 15.5 -36t8 -34t3 -28.5t0.5 -18.5q0 -11 -2 -34.5t-14 -52.5q-12 -31 -39 -56q-14 -14 -32.5 -23.5t-40.5 -16.5q-1 -2 -3 -2h-3q-10 0 -18 6t-12 15q-2 12 3.5 23t17.5 15q87 25 87 126
q0 154 -163 154q-35 0 -66 6.5t-56 21.5q-22 11 -38.5 27t-29.5 36q-8 16 -14.5 33t-9.5 37q-2 14 -2.5 26t-0.5 17q0 9 1.5 31t12.5 50q5 16 13.5 30t19.5 27q14 14 29.5 25.5t35.5 19.5q11 5 22 1t15 -15q4 -12 0 -23.5t-16 -15.5q-24 -10 -38.5 -25t-22.5 -33t-11 -37
t-3 -35q0 -25 6.5 -51t24 -47t48.5 -34.5t80 -13.5q76 0 125 -29zM210 697q-20 7 -20 28v97q0 11 7.5 19t19.5 8q13 0 20.5 -8t7.5 -19v-71q34 -2 61 -12t47 -24t33.5 -30.5t22.5 -32.5q10 -19 15.5 -37t8 -32t3 -23l0.5 -9v-2q0 -12 -8 -19.5t-19 -7.5q-13 0 -21 7.5
t-8 19.5v2q-1 12 -4 24q-2 11 -6.5 24t-12.5 27q-40 70 -140 70h-3h-2z" />
    <glyph glyph-name="percent" unicode="%" horiz-adv-x="496" 
d="M121 612q-29 0 -48.5 20t-19.5 49t19.5 49t48.5 20t49 -20t20 -49t-20 -49t-49 -20zM121 706q-11 0 -18 -7t-7 -18t7 -18.5t18 -7.5t18.5 7.5t7.5 18.5t-7.5 18t-18.5 7zM310 0q-29 0 -49 20t-20 49t20 49t49 20t49 -20t20 -49t-20 -49t-49 -20zM310 95q-11 0 -18.5 -7.5
t-7.5 -18.5t7.5 -18.5t18.5 -7.5t18.5 7.5t7.5 18.5t-7.5 18.5t-18.5 7.5zM27 0q-8 0 -14 3q-11 6 -14 17.5t3 22.5l380 692q5 11 16.5 14t22.5 -3t13.5 -17t-2.5 -22l-380 -692q-8 -15 -25 -15z" />
    <glyph glyph-name="ampersand" unicode="&#x26;" horiz-adv-x="510" 
d="M24 466q-12 0 -20.5 8.5t-8.5 21.5v94q0 4 3 29.5t20 57.5q8 15 21 30t32.5 27.5t46 20.5t61.5 8t61.5 -6.5t46 -17t33 -23.5t21.5 -25q18 -28 21 -51t3 -26v-1q0 -12 -8 -20t-20 -8t-20.5 8t-8.5 20v-1q0 1 -2.5 16t-13.5 31q-33 45 -113 45q-79 0 -109 -55
q-13 -22 -15 -40t-2 -19v-66h165q13 0 21.5 -8t8.5 -20q0 -13 -8.5 -21.5t-21.5 -8.5h-194zM415 286q12 0 20.5 -8t8.5 -21q0 -12 -8.5 -20.5t-20.5 -8.5h-50v-65q0 -3 -2.5 -29t-18.5 -58q-11 -19 -25.5 -34.5t-32.5 -26.5q-44 -27 -106 -27q-31 0 -57.5 7t-48.5 20
q-34 21 -56 61q-17 32 -20 58t-3 29v243q0 11 8.5 19.5t20.5 8.5t20.5 -8.5t8.5 -19.5v-243q0 -1 2 -19.5t15 -41.5q30 -55 110 -55q81 0 113 57q5 11 8 22t5 19q2 10 2 18v65h-50q-11 0 -20 8.5t-9 20.5q0 13 9 21t20 8h157z" />
    <glyph glyph-name="quotesingle" unicode="'" horiz-adv-x="120" 
d="M26 585h-2q-2 0 -2 1q-10 1 -15.5 9t-3.5 19l19 118q3 9 11 15t17 4q11 -2 16.5 -10t3.5 -18l-20 -118q-2 -8 -8.5 -14t-15.5 -6z" />
    <glyph glyph-name="parenleft" unicode="(" horiz-adv-x="309" 
d="M225 56q9 -2 15 -9.5t6 -18.5t-8.5 -19.5t-20.5 -8.5q-2 0 -4 0.5t-4 0.5q-3 1 -13 4.5t-25 12t-33 21.5t-36 33q-45 48 -71 115q-15 41 -23 87.5t-8 99.5q0 54 8 100.5t23 88.5q25 64 71 115q19 19 37 32.5t32.5 21.5t24.5 12t13 5q2 0 4 0.5t4 0.5q12 0 20.5 -8.5
t8.5 -20.5q0 -10 -6 -17.5t-15 -9.5q-1 0 -8.5 -3t-19 -10t-26 -18t-29.5 -28q-85 -91 -85 -261q0 -167 85 -260q15 -17 29.5 -28t26.5 -18q14 -8 27 -12z" />
    <glyph glyph-name="parenright" unicode=")" horiz-adv-x="320" 
d="M21 694q-9 3 -15 10.5t-6 16.5q0 12 8.5 20.5t20.5 8.5q2 0 4 -0.5t4 -0.5q3 -1 13 -5t25 -12.5t33 -22t36 -32.5q46 -49 71 -114q32 -84 32 -188q0 -106 -32 -187q-26 -68 -71 -115q-18 -20 -36 -33.5t-33 -21.5t-25 -12t-13 -5t-8 -1q-12 0 -20.5 8t-8.5 20
q0 10 6 17.5t15 10.5q1 0 8.5 3t19.5 10t26.5 18t29.5 27q85 93 85 261q0 169 -85 260q-15 17 -30.5 28.5t-27.5 18t-19.5 9.5l-7.5 3h1v0z" />
    <glyph glyph-name="asterisk" unicode="*" horiz-adv-x="333" 
d="M266 548q8 -6 9.5 -15.5t-3.5 -17.5q-7 -11 -20 -11q-8 0 -13 4l-77 51v-97q0 -11 -7 -17.5t-17 -6.5q-11 0 -17.5 6.5t-6.5 17.5v97l-77 -51q-5 -4 -13 -4q-6 0 -11.5 2.5t-8.5 8.5q-6 8 -4 17.5t10 15.5l69 46l-69 46q-8 5 -10 15t4 18q5 8 15 10t18 -3l77 -52v98
q0 10 6.5 17t17.5 7q10 0 17 -7t7 -17v-98l77 52q8 5 18 3t15 -10t3.5 -18t-9.5 -15l-69 -46l69 -46v0z" />
    <glyph glyph-name="plus" unicode="+" horiz-adv-x="391" 
d="M275 326q10 0 17 -7t7 -18t-7 -18t-17 -7h-99v-99q0 -11 -7.5 -18t-18.5 -7t-18 7t-7 18v99h-99q-10 0 -17.5 7t-7.5 18t7.5 18t17.5 7h99v99q0 11 7 18t18 7t18.5 -7t7.5 -18v-99h99v0z" />
    <glyph glyph-name="comma" unicode="," horiz-adv-x="105" 
d="M30 -11q-13 0 -21.5 8.5t-8.5 21.5v50q0 13 8.5 21.5t21.5 8.5t21.5 -8.5t8.5 -21.5v-50q0 -13 -8.5 -21.5t-21.5 -8.5z" />
    <glyph glyph-name="hyphen" unicode="-" horiz-adv-x="390" 
d="M274 275h-249q-11 0 -18 7t-7 18t7 18.5t18 7.5h249q11 0 18 -7.5t7 -18.5t-7 -18t-18 -7z" />
    <glyph glyph-name="period" unicode="." horiz-adv-x="126" 
d="M89 30q0 -13 -9 -21.5t-21 -8.5q-13 0 -21.5 8.5t-8.5 21.5t8.5 21.5t21.5 8.5q12 0 21 -8.5t9 -21.5z" />
    <glyph glyph-name="slash" unicode="/" horiz-adv-x="358" 
d="M28 0q-2 0 -4 0.5t-4 0.5q-11 3 -17 13.5t-3 21.5l192 692q3 11 13.5 17t21.5 3q11 -4 17 -14t3 -21l-192 -692q-2 -9 -10 -15t-17 -6z" />
    <glyph glyph-name="zero" unicode="0" horiz-adv-x="550" 
d="M242 -5q-86 0 -143 45q-24 18 -42 44.5t-32 60.5q-11 29 -16.5 60t-8 61t-3 58t-0.5 51q0 21 0.5 48.5t3 58t8.5 62t17 61.5q14 34 32 60.5t42 44.5q29 22 63.5 33.5t78.5 11.5q83 0 141 -46q23 -18 41 -45t31 -60q10 -30 16 -61t8.5 -61t3 -57.5t0.5 -49.5v-3
q0 -23 -0.5 -50.5t-3 -57.5t-8.5 -60.5t-16 -59.5q-26 -68 -72 -104q-57 -45 -141 -45zM242 696q-61 0 -101 -27t-61 -84q-9 -26 -14.5 -55t-7.5 -57t-2.5 -53.5t-0.5 -44.5q0 -21 0.5 -47t2.5 -54t7.5 -56t14.5 -53q21 -58 60 -85t102 -27q60 0 99.5 27t59.5 84
q9 25 14.5 53t7.5 55.5t2.5 53t0.5 46.5v3q0 21 -0.5 46.5t-2.5 53t-7.5 55.5t-14.5 54q-40 112 -159 112zM141 402h199q11 0 20 -8.5t9 -19.5q0 -12 -9 -20.5t-20 -8.5h-199q-12 0 -20.5 8.5t-8.5 20.5q0 11 8.5 19.5t20.5 8.5z" />
    <glyph glyph-name="one" unicode="1" horiz-adv-x="405" 
d="M310 0h-252q-11 0 -19.5 8.5t-8.5 20.5t8.5 20t19.5 8h98v664q0 12 8 20.5t20 8.5t20 -8.5t8 -20.5v-664h98q12 0 20.5 -8t8.5 -20t-8.5 -20.5t-20.5 -8.5zM30 509q-10 0 -19 6q-9 8 -10 20t7 21l76 91q8 10 20 11t21 -7t10 -20t-7 -21l-76 -91q-10 -10 -22 -10z" />
    <glyph glyph-name="two" unicode="2" horiz-adv-x="608" 
d="M505 0h-478q-21 0 -28 22q-5 22 15 32l21 11t54 31t75 48t85 63q38 30 78.5 67.5t73.5 79t54 86t21 89.5v2q0 2 -1.5 24.5t-15.5 51.5q-19 37 -55 60t-90 30q-12 2 -19.5 11t-5.5 21t11 19.5t21 5.5q44 -6 76 -19t54.5 -30t37 -36.5t23.5 -38.5q17 -36 19 -65.5t2 -35.5
q0 -98 -80 -204q-30 -41 -73 -81.5t-96 -82.5q-40 -32 -77.5 -58t-69.5 -46h368q11 0 19.5 -8t8.5 -20t-8.5 -20.5t-19.5 -8.5zM27 447q-12 1 -20.5 9t-7.5 20q0 1 0.5 11.5t3 27.5t7.5 38.5t15 44.5q53 131 188 155q12 2 21.5 -5t11.5 -19t-5 -21.5t-18 -11.5
q-102 -18 -145 -120q-8 -20 -12.5 -38t-6.5 -32q-3 -17 -3 -30q-1 -12 -9 -20.5t-20 -8.5z" />
    <glyph glyph-name="three" unicode="3" horiz-adv-x="613" 
d="M310 692h-239q-12 0 -20.5 8.5t-8.5 20.5q0 11 8.5 19.5t20.5 8.5h239q11 0 19.5 -8.5t8.5 -19.5q0 -12 -8.5 -20.5t-19.5 -8.5zM267 1q-9 0 -24 1t-33.5 4t-40 9.5t-42.5 17.5q-22 11 -44.5 29t-41 45.5t-30 65.5t-11.5 89q0 12 8.5 20t20.5 8q11 0 19.5 -8t8.5 -20
q0 -47 12 -80.5t31.5 -56.5t43 -36t47 -20t44 -9t32.5 -2t32 2t43 9t46.5 20t42.5 36t31 56.5t12 80.5q0 125 -103 175q-20 10 -39 15.5t-34 7.5q-18 3 -33 3q-18 0 -26 16t4 31l190 229q8 9 19.5 10.5t21.5 -6.5q9 -8 10 -20t-7 -21l-157 -188q17 -4 36.5 -10t39.5 -15
q58 -30 93 -78q42 -62 42 -149q0 -51 -11.5 -88.5t-30 -65t-41 -46t-43.5 -29.5t-42.5 -17.5t-40 -9.5t-33 -4t-22.5 -1z" />
    <glyph glyph-name="four" unicode="4" horiz-adv-x="586" 
d="M376 0q-12 0 -20.5 8.5t-8.5 20.5v232q0 12 8.5 20.5t20.5 8.5h128q11 0 19.5 -8.5t8.5 -20.5t-8.5 -20t-19.5 -8h-99v-204q0 -12 -8.5 -20.5t-20.5 -8.5zM291 233h-262q-19 0 -26 15q-8 16 2 30l348 461q13 16 32 10q8 -3 14 -11t6 -17v-380q0 -12 -8.5 -20.5
t-20.5 -8.5t-20.5 8.5t-8.5 20.5v295l-261 -346h205q12 0 20 -8.5t8 -20.5t-8 -20t-20 -8z" />
    <glyph glyph-name="five" unicode="5" horiz-adv-x="564" 
d="M72 400q-12 0 -20 9t-8 20v292q0 11 8 19.5t20 8.5h339q12 0 20.5 -8.5t8.5 -19.5q0 -12 -8.5 -20.5t-20.5 -8.5h-309v-263q0 -11 -8.5 -20t-21.5 -9zM245 -5q-8 0 -21.5 1t-30.5 4t-36.5 8.5t-38.5 15.5q-20 10 -41 26t-38 40t-28 58t-11 80q0 12 8.5 20t19.5 8
q12 0 20.5 -8t8.5 -20q0 -61 23 -96t54 -52.5t62.5 -22t48.5 -4.5q12 0 42 4t62 21t56.5 52.5t24.5 97.5q0 106 -91 150q-18 8 -35 12.5t-30.5 6.5t-22.5 2.5l-9 0.5h-75q-12 0 -20 9t-8 20q0 12 8 20.5t20 8.5h75h1q4 0 23 -1.5t46 -8.5t58 -21.5t57 -40.5q60 -59 60 -158
q0 -45 -10.5 -79t-27.5 -58.5t-37.5 -40.5t-40.5 -26q-21 -10 -41 -16t-37 -9t-29.5 -3.5t-18.5 -0.5z" />
    <glyph glyph-name="six" unicode="6" horiz-adv-x="518" 
d="M345 433q18 -10 37 -26.5t34 -41t25 -58t10 -78.5q0 -76 -31 -132q-13 -23 -31 -41t-42 -30q-51 -29 -121 -29q-71 0 -123 30q-48 26 -73 71q-30 52 -30 131q0 7 1 10q0 2 -0.5 3.5t-0.5 3.5v72v135v67q0 9 0.5 23t3 32t7.5 37.5t15 39.5q24 44 67 70q50 28 124 28
q114 0 175 -59q14 -14 24.5 -31.5t17.5 -37.5q12 -38 12 -81q0 -12 -8 -20.5t-20 -8.5t-20.5 8.5t-8.5 20.5q0 69 -38 109q-43 43 -134 43q-104 0 -141 -69q-14 -29 -16.5 -58.5t-2.5 -45.5v-67v-207q0 -3 -2 -9q2 -4 2 -8q0 -57 17.5 -91.5t43.5 -53t55 -24.5t53 -6
q23 0 52.5 6t55 24.5t43 53t17.5 91.5q0 110 -77 152q-20 11 -43 16.5t-48 5.5q-12 0 -35.5 -3t-57.5 -23q-11 -6 -22.5 -3t-17.5 14t-3 22.5t14 17.5q44 25 76 29.5t46 4.5q32 0 62.5 -7.5t56.5 -21.5z" />
    <glyph glyph-name="seven" unicode="7" horiz-adv-x="521" 
d="M28 0q-9 0 -14 4q-11 7 -13.5 18t3.5 22l403 650h-379q-11 0 -19.5 8t-8.5 20q0 11 8.5 19.5t19.5 8.5h430q17 0 25 -15q9 -12 0 -29l-431 -692q-7 -14 -24 -14z" />
    <glyph glyph-name="eight" unicode="8" horiz-adv-x="590" 
d="M488 367q44 -58 44 -138q0 -81 -40 -136q-31 -44 -88 -72q-21 -9 -42.5 -14.5t-40 -8.5t-33.5 -4t-23 -1q-21 0 -59.5 4.5t-80.5 23.5q-28 13 -50.5 30.5t-38.5 40.5q-41 54 -41 137q0 81 43 136q32 44 92 69q1 1 1.5 1t1.5 1q-30 16 -52 41q-38 41 -38 105q0 61 35 102
q25 33 73 52q35 14 66 17.5t45 3.5h1q11 0 43 -3t69 -17q46 -19 74 -52q35 -44 35 -103q0 -64 -37 -105q-11 -11 -24.5 -22t-30.5 -20h2q30 -13 53.5 -30.5t40.5 -37.5zM265 51q12 0 32.5 1.5t44 8t47 18t42.5 31t31 49t12 70.5q0 111 -102 152q-16 7 -33 11.5t-31 6.5
q-13 2 -22.5 11.5t-9.5 23.5t9 24t23 11q9 2 21 4.5t23 7.5q74 30 74 101q0 70 -72 100q-29 12 -56 14t-35 2h-1q-4 0 -13.5 -0.5t-21.5 -2t-26.5 -4.5t-28.5 -9q-71 -30 -71 -100q0 -74 77 -102q11 -4 20.5 -6.5t17.5 -3.5q14 -2 23 -12t9 -24q0 -13 -9 -22.5t-21 -11.5
q-14 -2 -31.5 -7t-33.5 -12q-100 -41 -100 -152q0 -112 96 -155q35 -16 68.5 -19.5t47.5 -3.5z" />
    <glyph glyph-name="nine" unicode="9" horiz-adv-x="531" 
d="M106 318q-18 10 -37 26t-34.5 40.5t-25 58t-9.5 78.5q0 80 30 133q26 47 73 72q52 29 121 29q70 0 123 -30q46 -24 74 -71q30 -54 30 -133q0 -6 -1 -9q1 -3 1 -7v-72v-135v-67q0 -9 -0.5 -23.5t-3 -32t-7.5 -37.5t-15 -39q-25 -47 -68 -71q-49 -28 -123 -28
q-114 0 -176 60q-27 28 -42 68q-5 19 -8.5 39t-3.5 43q0 11 8.5 20t19.5 9q12 0 20.5 -9t8.5 -20q0 -71 38 -109q44 -44 135 -44q103 0 139 69q17 29 19.5 59t2.5 46v67v67t-0.5 67t-0.5 51.5v21.5q0 3 2 9q-1 2 -1 7q0 58 -18 92.5t-44 53.5t-55.5 25t-53.5 6q-23 0 -52 -6
t-54.5 -25t-43 -53.5t-17.5 -92.5q0 -109 75 -153q20 -11 43.5 -16t48.5 -5q12 0 35.5 3t58.5 22q10 8 21.5 4.5t16.5 -14.5q6 -11 3 -22t-14 -17q-22 -13 -41 -20t-34.5 -10t-27 -3.5t-18.5 -0.5q-32 0 -62.5 7.5t-55.5 21.5z" />
    <glyph glyph-name="colon" unicode=":" horiz-adv-x="144" 
d="M113 111q0 -18 -13 -30.5t-30 -12.5q-18 0 -30.5 12.5t-12.5 30.5q0 17 12.5 30t30.5 13q17 0 30 -13t13 -30zM113 458q0 -18 -13 -30.5t-30 -12.5q-18 0 -30.5 12.5t-12.5 30.5q0 17 12.5 30t30.5 13q17 0 30 -13t13 -30z" />
    <glyph glyph-name="semicolon" unicode=";" horiz-adv-x="154" 
d="M110 457q0 -18 -12.5 -30.5t-30.5 -12.5t-30.5 12.5t-12.5 30.5q0 17 12.5 30t30.5 13t30.5 -13t12.5 -30zM67 36q-17 0 -28.5 11.5t-11.5 28.5v68q0 17 11.5 28.5t28.5 11.5t28.5 -11.5t11.5 -28.5v-68q0 -17 -11.5 -28.5t-28.5 -11.5z" />
    <glyph glyph-name="less" unicode="&#x3c;" horiz-adv-x="299" 
d="M217 100q-10 0 -19 7l-190 172q-8 8 -8 21q0 14 8 22l190 170q9 8 20.5 8t18.5 -9q9 -9 8.5 -20t-9.5 -19l-165 -152l165 -150q9 -9 9 -21t-8 -20q-9 -9 -20 -9z" />
    <glyph glyph-name="equal" unicode="=" horiz-adv-x="351" 
d="M274 325h-249q-11 0 -18 7t-7 18t7 18t18 7h249q11 0 18 -7t7 -18t-7 -18t-18 -7zM274 223h-249q-11 0 -18 7.5t-7 18.5t7 18t18 7h249q11 0 18 -7t7 -18t-7 -18.5t-18 -7.5z" />
    <glyph glyph-name="greater" unicode="&#x3e;" horiz-adv-x="299" 
d="M29 502q10 0 19 -7l190 -172q8 -8 8 -21q0 -14 -8 -22l-190 -170q-9 -8 -20.5 -8t-18.5 9q-9 9 -8.5 20t9.5 19l165 152l-165 150q-9 9 -9 21t8 20q9 9 20 9z" />
    <glyph glyph-name="question" unicode="?" horiz-adv-x="462" 
d="M179 105q-13 0 -21.5 9t-8.5 21v201q0 13 8.5 22t21.5 9q52 0 84.5 15t51 39t25 53t6.5 58q0 11 -2.5 38t-16.5 56q-35 68 -130 68q-88 0 -118 -64q-14 -29 -16.5 -57.5t-2.5 -40.5q0 -14 -8.5 -22.5t-20.5 -8.5q-13 0 -22 8.5t-9 22.5q0 7 0.5 20.5t2.5 30t7.5 35.5
t14.5 38q8 16 21.5 33t34 31t49 23t67.5 9q41 0 71.5 -9.5t52 -24t36 -32t23.5 -33.5q10 -19 15.5 -38t8 -35.5t3 -29t0.5 -18.5q0 -15 -4 -49.5t-26 -72.5q-23 -44 -69 -72q-22 -13 -46.5 -19t-54.5 -9v-175q0 -12 -7.5 -21t-20.5 -9zM207 29q0 -12 -7.5 -20.5t-20.5 -8.5
t-21.5 8.5t-8.5 20.5t8.5 20t21.5 8t20.5 -8t7.5 -20z" />
    <glyph glyph-name="at" unicode="@" horiz-adv-x="583" 
d="M111 345q0 29 6.5 50t13.5 34q6 12 17 25t27 23.5t39 17t53 6.5q42 0 71 -12.5t48 -33t28 -47t10 -53.5v-4v-141h1l3 3q17 15 25 38.5t11 43.5q2 11 3 21t1 18v16v1q0 124 -82 169q-23 13 -50 18.5t-59 5.5q-33 0 -62 -5.5t-53 -18.5q-89 -45 -89 -169q0 -131 63 -173
q28 -20 66.5 -24.5t74.5 -4.5q11 0 19.5 1t14.5 3q7 2 13 4q10 5 19.5 1.5t14.5 -13.5t1 -20t-14 -15q-2 -1 -20 -7t-48 -6q-42 0 -87.5 6t-83.5 33q-85 58 -85 215q0 83 35 141q30 48 83 75q58 30 138 30q7 0 20.5 -0.5t31.5 -3.5q47 -8 81 -27q50 -27 78 -76
q16 -27 24.5 -62t8.5 -77q0 -3 -0.5 -21t-5.5 -43q-10 -71 -50 -111q-2 -2 -5.5 -6t-8.5 -9q-8 -6 -17 -12q-11 -5 -19 -5t-13 2t-12 8t-12 19q-5 15 -5 37v12q-19 -16 -45 -24.5t-61 -8.5q-30 0 -53 6.5t-39 17t-27 23t-17 25.5q-7 12 -13.5 33.5t-6.5 50.5zM267 239
q34 0 55 11t32.5 27.5t15 34.5t3.5 33t-3.5 33t-15 34t-32.5 27t-55 11q-67 0 -91 -46q-5 -8 -9 -23t-4 -36q0 -22 4 -37t9 -23q25 -46 91 -46z" />
    <glyph glyph-name="A" unicode="A" horiz-adv-x="656" 
d="M625 40q5 -11 0 -22t-16 -16t-21.5 -0.5t-15.5 15.5l-257 629l-259 -629q-10 -17 -27 -17q-7 0 -11 2q-11 5 -16 16t0 22l287 693q7 17 26 17t26 -17zM416 202h-204q-12 0 -20.5 8.5t-8.5 20.5t8.5 20.5t20.5 8.5h204q12 0 20.5 -8.5t8.5 -20.5t-8.5 -20.5t-20.5 -8.5z
" />
    <glyph glyph-name="B" unicode="B" horiz-adv-x="607" 
d="M458 394q17 -10 35 -26.5t32.5 -40.5t24 -56.5t9.5 -75.5q0 -67 -34 -111q-29 -39 -76 -60q-20 -9 -38.5 -13.5t-34.5 -7t-27 -3t-14 -0.5h-2h-277q-11 0 -19.5 8.5t-8.5 20.5v692q0 12 8.5 20.5t19.5 8.5h280q1 0 9.5 -0.5t22 -3t30.5 -7t35 -12.5q45 -21 71 -58
q16 -23 23.5 -51.5t7.5 -60.5q0 -33 -7.5 -59t-19.5 -45.5t-27 -33t-30 -22.5q4 -2 7 -3zM426 77q76 34 76 118q0 106 -73 149q-29 16 -56 19.5t-33 3.5h-2q-12 1 -20 9t-8 20q-1 11 7.5 19.5t19.5 9.5h3q3 0 10.5 0.5t18 2.5t23.5 6t25 11q61 32 61 112q0 83 -68 118
q-14 6 -27 9.5t-23.5 5t-17 2l-6.5 0.5h-251v-267h136q12 0 20.5 -8.5t8.5 -20.5q0 -11 -8.5 -20t-20.5 -9h-136v-309h248h2q1 0 9.5 0.5t21.5 2t28.5 5.5t31.5 11z" />
    <glyph glyph-name="C" unicode="C" horiz-adv-x="654" 
d="M539 465q-12 0 -21 8t-9 21q0 6 -1 14q-2 13 -6 36q-14 57 -51 93q-58 59 -168 59q-79 0 -124.5 -28t-68.5 -74t-29 -103.5t-6 -115.5q0 -20 0.5 -45t3.5 -52.5t9 -55.5t17 -54q50 -114 198 -114q144 0 198 102q10 19 16 38t8.5 33.5t3 23.5l0.5 9q0 12 9 20t21 8t20 -8
t8 -20q0 -1 -0.5 -12.5t-4 -30t-10.5 -42t-20 -47.5q-12 -23 -32 -46t-50 -42.5t-71 -31.5t-96 -12q-99 0 -163 42q-55 39 -88 107q-13 30 -20 61.5t-10.5 62t-4 58t-0.5 48.5q0 23 0.5 51t3.5 58t10 61t20 60q16 35 38 61t50 46q64 42 164 42q134 0 210 -76q27 -28 42 -59
t22 -58t8.5 -45.5t1.5 -21.5v-1q0 -12 -8 -20t-20 -8z" />
    <glyph glyph-name="D" unicode="D" horiz-adv-x="621" 
d="M271 0h-218q-12 0 -20 8.5t-8 20.5v692q0 12 8 20.5t20 8.5h197q1 0 14.5 -1t35.5 -5.5t49 -14t55 -26.5q67 -42 106 -115q46 -89 46 -213q0 -127 -43 -213q-35 -71 -98 -114q-27 -18 -52 -27.5t-45.5 -14t-33 -5.5t-13.5 -1zM82 57h189l10.5 1t26.5 4.5t36 11.5t41 23
q114 81 114 278q0 198 -124 277q-23 15 -45 23.5t-40 12t-29 4.5l-11 1h-168v-636z" />
    <glyph glyph-name="E" unicode="E" horiz-adv-x="545" 
d="M53 516q-12 0 -20 8.5t-8 20.5v177q0 12 8 20t20 8h418q12 0 20 -8t8 -20t-8 -20.5t-20 -8.5h-389v-148q0 -12 -8.5 -20.5t-20.5 -8.5zM471 1h-418q-12 0 -20 8t-8 20v396q0 12 8 20.5t20 8.5h317q12 0 20.5 -8.5t8.5 -20.5q0 -11 -8.5 -19.5t-20.5 -8.5h-288v-339h389
q12 0 20 -8.5t8 -20.5t-8 -20t-20 -8z" />
    <glyph glyph-name="F" unicode="F" horiz-adv-x="486" 
d="M312 406h-283q-11 0 -20 8t-9 20v288q0 12 9 20t20 8h418q11 0 20 -8t9 -20t-9 -20t-20 -8h-389v-230h254q12 0 21 -9t9 -21t-9 -20t-21 -8zM29 0q-11 0 -20 9t-9 20v294q0 11 9 19.5t20 8.5q12 0 20.5 -8.5t8.5 -19.5v-294q0 -11 -8.5 -20t-20.5 -9z" />
    <glyph glyph-name="G" unicode="G" horiz-adv-x="672" 
d="M568 0q-12 0 -20.5 8.5t-8.5 19.5v204h-160q-12 0 -21 8t-9 20t9 20t21 8h189q11 0 19.5 -8t8.5 -20v-232q0 -11 -8.5 -19.5t-19.5 -8.5zM492 677q27 -28 42 -58.5t22 -57.5t8.5 -45.5t1.5 -22.5v-1q0 -11 -8.5 -19t-20.5 -8q-11 0 -19.5 8.5t-8.5 19.5q0 7 -1 15
q-2 13 -6 36q-8 28 -21.5 51.5t-30.5 41.5q-57 59 -167 59q-79 0 -124.5 -28.5t-68.5 -74t-29 -103t-6 -115.5q0 -19 0.5 -44t3.5 -52.5t9 -56t17 -54.5q26 -57 74.5 -85.5t123.5 -28.5q106 0 163 57q9 9 20 9q12 0 20.5 -8.5t8.5 -20.5q0 -11 -8 -21q-32 -31 -80.5 -52
t-123.5 -21q-99 0 -162 42q-60 40 -88 106q-13 30 -20 62t-10.5 62t-4 57.5t-0.5 48.5q0 22 0.5 50t3.5 58t10 61t20 61q28 66 87 105q66 43 164 43q133 0 209 -76z" />
    <glyph glyph-name="H" unicode="H" horiz-adv-x="605" 
d="M500 0q-12 0 -20.5 8.5t-8.5 20.5v316h-418q-11 0 -19.5 8.5t-8.5 20.5v347q0 12 8.5 20.5t19.5 8.5q12 0 20.5 -8.5t8.5 -20.5v-318h418q11 0 19.5 -8.5t8.5 -20.5v-345q0 -12 -8.5 -20.5t-19.5 -8.5zM500 463q-12 0 -20.5 8.5t-8.5 19.5v230q0 12 8.5 20.5t20.5 8.5
q11 0 19.5 -8.5t8.5 -20.5v-230q0 -11 -8.5 -19.5t-19.5 -8.5zM53 0q-11 0 -19.5 8.5t-8.5 20.5v230q0 11 8.5 19.5t19.5 8.5q12 0 20.5 -8.5t8.5 -19.5v-230q0 -12 -8.5 -20.5t-20.5 -8.5z" />
    <glyph glyph-name="I" unicode="I" horiz-adv-x="156" 
d="M29 0q-12 0 -20.5 8t-8.5 21v692q0 13 8.5 21t20.5 8q11 0 19.5 -8t8.5 -21v-692q0 -13 -8.5 -21t-19.5 -8z" />
    <glyph glyph-name="J" unicode="J" horiz-adv-x="526" 
d="M217 0q-75 0 -127 42q-42 36 -64 91q-9 24 -14.5 46.5t-8 40t-3 28.5t-0.5 12q0 12 8.5 20.5t20.5 8.5q11 0 19.5 -8.5t8.5 -20.5q0 -16 3 -34q2 -15 7 -33.5t13 -38.5q40 -97 137 -97q68 0 108 41q22 23 32.5 51t14.5 51q3 12 4 22.5t2 18.5q1 9 1 17v1v463q0 12 8 20
t21 8q11 0 19.5 -8t8.5 -20v-463q0 -4 -1 -25.5t-7.5 -51t-21 -63t-41.5 -60.5q-56 -59 -148 -59z" />
    <glyph glyph-name="K" unicode="K" horiz-adv-x="569" 
d="M509 46q7 -10 5.5 -21.5t-11.5 -19.5q-6 -5 -17 -5q-15 0 -22 10l-287 372l-98 -112v-242q0 -11 -8 -19.5t-20 -8.5t-20.5 8.5t-8.5 19.5v253q0 9 7 18l380 440q8 10 20 11t21 -7t10 -20t-7 -21l-239 -276zM51 414q-12 0 -20.5 8t-8.5 20v279q0 11 8.5 20t20.5 9t20 -9
t8 -20v-279q0 -12 -8 -20t-20 -8z" />
    <glyph glyph-name="L" unicode="L" horiz-adv-x="505" 
d="M409 0h-380q-12 0 -20.5 8.5t-8.5 20.5t8.5 20t20.5 8h380q11 0 20 -8t9 -20t-9 -20.5t-20 -8.5zM29 87q-12 0 -20.5 8t-8.5 20v606q0 12 8.5 20.5t20.5 8.5t20 -8.5t8 -20.5v-606q0 -12 -8 -20t-20 -8z" />
    <glyph glyph-name="M" unicode="M" horiz-adv-x="739" 
d="M626 0q-12 0 -20 8t-8 20v593l-233 -377q-10 -13 -25 -13q-16 0 -24 13l-231 377v-593q0 -12 -8 -20t-20 -8t-20.5 8t-8.5 20v694q0 9 5.5 17t15.5 10q9 3 18 -0.5t14 -11.5l259 -423l262 423q5 8 14 11.5t18 0.5q10 -2 15.5 -10t5.5 -17v-694q0 -12 -8.5 -20t-20.5 -8z
" />
    <glyph glyph-name="N" unicode="N" horiz-adv-x="627" 
d="M528 0q-16 0 -23 13l-202 294q-6 10 -4 21.5t12 17.5q9 8 21 6t18 -13l150 -218v600q0 12 8.5 20.5t19.5 8.5q12 0 20.5 -8.5t8.5 -20.5v-692q0 -21 -20 -28q-2 0 -4.5 -0.5t-4.5 -0.5zM54 0q-12 0 -20.5 8.5t-8.5 20.5v692q0 21 20 28q9 2 18 -1t14 -11l204 -296
q6 -10 4 -21.5t-11 -18.5q-10 -7 -21.5 -5t-18.5 13l-152 220v-600q0 -12 -8 -20.5t-20 -8.5z" />
    <glyph glyph-name="O" unicode="O" horiz-adv-x="634" 
d="M288 -3q-144 0 -214 88q-76 91 -76 290q0 51 4.5 93t12.5 78q17 76 53 119q37 45 94 68q50 20 126 20q37 0 69 -5.5t58 -18.5q55 -22 94 -72q67 -92 67 -282q0 -91 -17 -164q-9 -35 -23 -65t-34 -54q-72 -95 -214 -95zM288 695q-125 0 -176 -66q-57 -75 -57 -254
q0 -91 15.5 -153t45.5 -101q53 -66 172 -66q115 0 171 74q29 40 44.5 101.5t15.5 144.5q0 169 -55 246q-55 74 -176 74z" />
    <glyph glyph-name="P" unicode="P" horiz-adv-x="608" 
d="M491 678q69 -68 69 -186q0 -50 -11.5 -88t-29.5 -65.5t-40 -45.5t-43 -29q-23 -12 -44.5 -19t-38.5 -10t-28 -3.5t-12 -0.5h-30q-11 0 -19.5 8.5t-8.5 19.5q0 13 8.5 21.5t19.5 8.5h30l9 0.5t22.5 3t31 7.5t35.5 15q91 49 91 177q0 93 -51 146q-35 33 -88 48
q-21 5 -35 5.5t-15 0.5h-228v-403h98q12 0 20.5 -8.5t8.5 -21.5q0 -11 -8.5 -19.5t-20.5 -8.5h-98v-203q0 -11 -8.5 -19.5t-20.5 -8.5t-20 8.5t-8 19.5v694q0 11 8 19.5t20 8.5h257q2 0 20 -1.5t44 -8t56.5 -21t57.5 -41.5z" />
    <glyph glyph-name="Q" unicode="Q" horiz-adv-x="640" 
d="M474 92q-11 0 -19 8.5t-8 20.5q0 9 4 17h1q59 77 59 242q0 167 -54 242q-27 38 -69.5 56t-102.5 18q-124 0 -175 -67q-55 -71 -55 -249q0 -175 60 -248q52 -67 170 -67q63 0 108 23q8 4 17 3t16 -8l104 -104q8 -8 8 -19.5t-8 -20.5q-8 -8 -20 -8t-20 8l-89 90
q-26 -11 -55 -16.5t-61 -5.5q-142 0 -212 88q-74 89 -74 285q0 100 16 168q16 72 53 118q18 23 40.5 39.5t51.5 27.5q26 9 57 14t68 5q72 0 124 -23q29 -11 51 -29t40 -42q67 -91 67 -278q0 -88 -17 -161q-10 -34 -23 -63t-30 -52q-10 -12 -23 -12z" />
    <glyph glyph-name="R" unicode="R" horiz-adv-x="636" 
d="M582 48q8 -8 7.5 -20t-9.5 -20q-8 -8 -20 -8q-13 0 -20 10l-206 221h-241v-203q0 -11 -9 -19.5t-20 -8.5q-12 0 -20.5 8.5t-8.5 19.5v693q0 12 8.5 20.5t20.5 8.5h244q3 0 22 -1.5t47 -8.5t60 -22.5t61 -43.5q69 -68 69 -183q0 -75 -24 -129q-20 -45 -59 -79
q-10 -8 -21.5 -6.5t-19.5 9.5q-8 9 -6 21t10 20q62 52 62 164q0 92 -51 143q-23 23 -49.5 34.5t-46.5 16.5q-24 4 -39 6q-9 1 -15 1h-215v-403h255q11 0 20 -9l214 -232v0z" />
    <glyph glyph-name="S" unicode="S" horiz-adv-x="496" 
d="M435 551q0 -12 -8.5 -20.5t-19.5 -8.5q-12 0 -20.5 8t-8.5 20h-1h1l-0.5 7t-3 17.5t-6.5 23.5t-12 27q-40 71 -140 71q-50 0 -81 -13.5t-48.5 -34.5t-24 -47t-6.5 -50q0 -22 5 -45.5t18.5 -44t37.5 -35.5t63 -20q11 -2 18.5 -11.5t5.5 -20.5t-9.5 -18t-18.5 -7q-3 0 -4 1
q-60 6 -99 36q-36 26 -53 64q-8 16 -12.5 31.5t-6.5 29t-2.5 24t-0.5 16.5q0 5 0.5 16.5t2.5 26.5q4 19 9.5 36t15.5 33q23 39 68 64q24 12 55 19t67 7q42 0 73 -9.5t54 -24t38.5 -32.5t25.5 -35q19 -35 23.5 -64t4.5 -36v-1zM416 293q14 -32 16.5 -60.5t2.5 -40.5
q0 -14 -3.5 -45t-23.5 -65q-13 -20 -30.5 -35t-39.5 -26q-23 -11 -54 -17.5t-67 -6.5q-42 0 -73.5 9t-54.5 23t-38.5 31t-24.5 34q-10 18 -15.5 35.5t-8.5 31t-3.5 22t-0.5 9.5q0 12 8.5 21t20.5 9q11 0 20 -9t9 -21q0 -1 2.5 -22.5t17.5 -47.5q40 -68 141 -68
q160 0 160 138q0 129 -112 150q-12 2 -18.5 12t-3.5 22q2 12 11.5 18t22.5 4q54 -9 90 -41q32 -25 49 -64z" />
    <glyph glyph-name="T" unicode="T" horiz-adv-x="599" 
d="M503 693h-474q-12 0 -20.5 8.5t-8.5 19.5q0 12 8.5 20.5t20.5 8.5h474q12 0 20.5 -8.5t8.5 -20.5q0 -11 -8.5 -19.5t-20.5 -8.5zM265 0q-13 0 -21 8.5t-8 20.5v593q0 11 8 19.5t21 8.5q12 0 20.5 -8.5t8.5 -19.5v-593q0 -12 -8.5 -20.5t-20.5 -8.5z" />
    <glyph glyph-name="U" unicode="U" horiz-adv-x="580" 
d="M271 -3q-107 0 -171 64q-28 29 -43 62.5t-22 62.5t-8.5 49t-1.5 22v464q0 13 8 21t21 8q11 0 19 -8t8 -21v-464q0 -1 0.5 -10t3.5 -24t8 -33.5t14 -37.5q45 -97 164 -97q118 0 165 99q9 19 13.5 38t7 33.5t3 23.5l0.5 9v463q0 13 8 21t20 8t20.5 -8t8.5 -21v-463
q0 -1 -0.5 -12.5t-3.5 -29.5t-9 -40.5t-17 -46.5q-14 -29 -32 -51.5t-41 -38.5q-60 -42 -143 -42z" />
    <glyph glyph-name="V" unicode="V" horiz-adv-x="675" 
d="M6 710q-5 11 0 22t16 16q11 4 21.5 -0.5t15.5 -16.5l256 -627l260 628q8 18 27 18q4 0 10 -2q11 -5 15.5 -16t-0.5 -22l-285 -692q-7 -18 -27 -18q-18 0 -26 18l-283 692v0z" />
    <glyph glyph-name="W" unicode="W" horiz-adv-x="839" 
d="M585 0q-9 0 -16.5 4.5t-10.5 12.5l-188 463q-5 11 0 22t16 15q11 5 21.5 0.5t15.5 -15.5l154 -381l151 606q4 12 14 18t22 4q11 -3 17 -13t3 -23l-171 -692q-5 -19 -27 -21h-1zM205 0h-3q-20 2 -25 21l-173 692q-3 13 3.5 23t18.5 13q11 2 21 -4t13 -18l151 -607l107 258
q5 11 16 15.5t22 -0.5q11 -4 15.5 -15t0.5 -22l-142 -339q-3 -8 -10 -12.5t-15 -4.5z" />
    <glyph glyph-name="X" unicode="X" horiz-adv-x="621" 
d="M29 0q-8 0 -18 5q-9 8 -11 19.5t6 21.5l245 329l-245 329q-8 10 -6 22t11 19q10 7 21.5 5.5t18.5 -11.5l258 -347q13 -18 0 -35l-258 -345q-8 -12 -22 -12zM336 412q-9 0 -17 5q-10 8 -12 20.5t6 20.5l211 281q8 10 19 11.5t21 -5.5q9 -7 11 -19.5t-5 -21.5l-211 -280
q-9 -12 -23 -12zM547 0q-16 0 -23 12l-211 280q-8 9 -6 21t12 19t21 5.5t19 -11.5l211 -280q7 -9 5 -21t-11 -20q-8 -5 -17 -5z" />
    <glyph glyph-name="Y" unicode="Y" horiz-adv-x="584" 
d="M270 0q-12 0 -20 8.5t-8 19.5v339l-57 83q-7 10 -4.5 21t11.5 18q11 8 22 5.5t18 -12.5l38 -56l214 312q7 9 18.5 11.5t21.5 -4.5t12.5 -18.5t-4.5 -21.5l-233 -338v-339q0 -11 -8 -19.5t-21 -8.5zM142 535q-15 0 -24 12l-108 158q-8 10 -5.5 21.5t11.5 18.5q11 7 22 4.5
t19 -11.5l108 -158q7 -10 5 -21.5t-12 -18.5q-8 -5 -16 -5z" />
    <glyph glyph-name="Z" unicode="Z" horiz-adv-x="617" 
d="M506 0h-475q-18 0 -26 15q-4 7 -3.5 15t5.5 14l475 694q7 11 18.5 13t20.5 -5q11 -7 13 -18.5t-5 -21.5l-444 -649h421q11 0 19.5 -8.5t8.5 -20.5t-8.5 -20t-19.5 -8zM350 694h-319q-12 0 -21 8t-9 20t9 20t21 8h319q12 0 20.5 -8t8.5 -20t-8.5 -20t-20.5 -8z" />
    <glyph glyph-name="bracketleft" unicode="[" horiz-adv-x="204" 
d="M123 0h-93q-13 0 -21.5 8t-8.5 20v692q0 12 8.5 21t21.5 9h93q13 0 21.5 -9t8.5 -21q0 -11 -8.5 -19.5t-21.5 -8.5h-65v-634h65q13 0 21.5 -9t8.5 -21t-8.5 -20t-21.5 -8z" />
    <glyph glyph-name="backslash" unicode="\" horiz-adv-x="318" 
d="M221 0q-9 0 -17 5.5t-10 14.5l-192 694q-3 11 2.5 21.5t17.5 13.5q11 3 21.5 -2.5t13.5 -17.5l192 -693q3 -12 -3 -22t-18 -13q-2 -1 -7 -1z" />
    <glyph glyph-name="bracketright" unicode="]" horiz-adv-x="211" 
d="M29 750h93q13 0 21.5 -8t8.5 -20v-692q0 -12 -8.5 -21t-21.5 -9h-93q-13 0 -21.5 9t-8.5 21q0 11 8.5 19.5t21.5 8.5h65v634h-65q-13 0 -21.5 9t-8.5 21t8.5 20t21.5 8z" />
    <glyph glyph-name="asciicircum" unicode="^" horiz-adv-x="326" 
d="M221 580q-6 0 -12 2.5t-11 8.5l-71 87l-72 -87q-8 -10 -20 -11.5t-21 6.5t-10.5 19.5t6.5 20.5l95 114q9 11 22 11t22 -11l94 -114q8 -9 6.5 -20.5t-10.5 -19.5q-4 -4 -8.5 -5t-9.5 -1z" />
    <glyph glyph-name="underscore" unicode="_" horiz-adv-x="382" 
d="M274 -50h-248q-11 0 -18.5 7t-7.5 18t7.5 18t18.5 7h248q11 0 18 -7t7 -18t-7 -18t-18 -7z" />
    <glyph glyph-name="grave" unicode="`" horiz-adv-x="83" 
d="M28 579h-6q-9 2 -15 10.5t-4 16.5l21 122q1 11 8.5 16t18.5 3q10 0 16 -8.5t4 -19.5l-21 -120q-1 -8 -8.5 -14t-13.5 -6z" />
    <glyph glyph-name="a" unicode="a" horiz-adv-x="656" 
d="M625 40q5 -11 0 -22t-16 -16t-21.5 -0.5t-15.5 15.5l-257 629l-259 -629q-10 -17 -27 -17q-7 0 -11 2q-11 5 -16 16t0 22l287 693q7 17 26 17t26 -17zM416 202h-204q-12 0 -20.5 8.5t-8.5 20.5t8.5 20.5t20.5 8.5h204q12 0 20.5 -8.5t8.5 -20.5t-8.5 -20.5t-20.5 -8.5z
" />
    <glyph glyph-name="b" unicode="b" horiz-adv-x="607" 
d="M458 394q17 -10 35 -26.5t32.5 -40.5t24 -56.5t9.5 -75.5q0 -67 -34 -111q-29 -39 -76 -60q-20 -9 -38.5 -13.5t-34.5 -7t-27 -3t-14 -0.5h-2h-277q-11 0 -19.5 8.5t-8.5 20.5v692q0 12 8.5 20.5t19.5 8.5h280q1 0 9.5 -0.5t22 -3t30.5 -7t35 -12.5q45 -21 71 -58
q16 -23 23.5 -51.5t7.5 -60.5q0 -33 -7.5 -59t-19.5 -45.5t-27 -33t-30 -22.5q4 -2 7 -3zM426 77q76 34 76 118q0 106 -73 149q-29 16 -56 19.5t-33 3.5h-2q-12 1 -20 9t-8 20q-1 11 7.5 19.5t19.5 9.5h3q3 0 10.5 0.5t18 2.5t23.5 6t25 11q61 32 61 112q0 83 -68 118
q-14 6 -27 9.5t-23.5 5t-17 2l-6.5 0.5h-251v-267h136q12 0 20.5 -8.5t8.5 -20.5q0 -11 -8.5 -20t-20.5 -9h-136v-309h248h2q1 0 9.5 0.5t21.5 2t28.5 5.5t31.5 11z" />
    <glyph glyph-name="c" unicode="c" horiz-adv-x="654" 
d="M539 465q-12 0 -21 8t-9 21q0 6 -1 14q-2 13 -6 36q-14 57 -51 93q-58 59 -168 59q-79 0 -124.5 -28t-68.5 -74t-29 -103.5t-6 -115.5q0 -20 0.5 -45t3.5 -52.5t9 -55.5t17 -54q50 -114 198 -114q144 0 198 102q10 19 16 38t8.5 33.5t3 23.5l0.5 9q0 12 9 20t21 8t20 -8
t8 -20q0 -1 -0.5 -12.5t-4 -30t-10.5 -42t-20 -47.5q-12 -23 -32 -46t-50 -42.5t-71 -31.5t-96 -12q-99 0 -163 42q-55 39 -88 107q-13 30 -20 61.5t-10.5 62t-4 58t-0.5 48.5q0 23 0.5 51t3.5 58t10 61t20 60q16 35 38 61t50 46q64 42 164 42q134 0 210 -76q27 -28 42 -59
t22 -58t8.5 -45.5t1.5 -21.5v-1q0 -12 -8 -20t-20 -8z" />
    <glyph glyph-name="d" unicode="d" horiz-adv-x="621" 
d="M271 0h-218q-12 0 -20 8.5t-8 20.5v692q0 12 8 20.5t20 8.5h197q1 0 14.5 -1t35.5 -5.5t49 -14t55 -26.5q67 -42 106 -115q46 -89 46 -213q0 -127 -43 -213q-35 -71 -98 -114q-27 -18 -52 -27.5t-45.5 -14t-33 -5.5t-13.5 -1zM82 57h189l10.5 1t26.5 4.5t36 11.5t41 23
q114 81 114 278q0 198 -124 277q-23 15 -45 23.5t-40 12t-29 4.5l-11 1h-168v-636z" />
    <glyph glyph-name="e" unicode="e" horiz-adv-x="545" 
d="M53 516q-12 0 -20 8.5t-8 20.5v177q0 12 8 20t20 8h418q12 0 20 -8t8 -20t-8 -20.5t-20 -8.5h-389v-148q0 -12 -8.5 -20.5t-20.5 -8.5zM471 1h-418q-12 0 -20 8t-8 20v396q0 12 8 20.5t20 8.5h317q12 0 20.5 -8.5t8.5 -20.5q0 -11 -8.5 -19.5t-20.5 -8.5h-288v-339h389
q12 0 20 -8.5t8 -20.5t-8 -20t-20 -8z" />
    <glyph glyph-name="f" unicode="f" horiz-adv-x="486" 
d="M312 406h-283q-11 0 -20 8t-9 20v288q0 12 9 20t20 8h418q11 0 20 -8t9 -20t-9 -20t-20 -8h-389v-230h254q12 0 21 -9t9 -21t-9 -20t-21 -8zM29 0q-11 0 -20 9t-9 20v294q0 11 9 19.5t20 8.5q12 0 20.5 -8.5t8.5 -19.5v-294q0 -11 -8.5 -20t-20.5 -9z" />
    <glyph glyph-name="g" unicode="g" horiz-adv-x="672" 
d="M568 0q-12 0 -20.5 8.5t-8.5 19.5v204h-160q-12 0 -21 8t-9 20t9 20t21 8h189q11 0 19.5 -8t8.5 -20v-232q0 -11 -8.5 -19.5t-19.5 -8.5zM492 677q27 -28 42 -58.5t22 -57.5t8.5 -45.5t1.5 -22.5v-1q0 -11 -8.5 -19t-20.5 -8q-11 0 -19.5 8.5t-8.5 19.5q0 7 -1 15
q-2 13 -6 36q-8 28 -21.5 51.5t-30.5 41.5q-57 59 -167 59q-79 0 -124.5 -28.5t-68.5 -74t-29 -103t-6 -115.5q0 -19 0.5 -44t3.5 -52.5t9 -56t17 -54.5q26 -57 74.5 -85.5t123.5 -28.5q106 0 163 57q9 9 20 9q12 0 20.5 -8.5t8.5 -20.5q0 -11 -8 -21q-32 -31 -80.5 -52
t-123.5 -21q-99 0 -162 42q-60 40 -88 106q-13 30 -20 62t-10.5 62t-4 57.5t-0.5 48.5q0 22 0.5 50t3.5 58t10 61t20 61q28 66 87 105q66 43 164 43q133 0 209 -76z" />
    <glyph glyph-name="h" unicode="h" horiz-adv-x="605" 
d="M500 0q-12 0 -20.5 8.5t-8.5 20.5v316h-418q-11 0 -19.5 8.5t-8.5 20.5v347q0 12 8.5 20.5t19.5 8.5q12 0 20.5 -8.5t8.5 -20.5v-318h418q11 0 19.5 -8.5t8.5 -20.5v-345q0 -12 -8.5 -20.5t-19.5 -8.5zM500 463q-12 0 -20.5 8.5t-8.5 19.5v230q0 12 8.5 20.5t20.5 8.5
q11 0 19.5 -8.5t8.5 -20.5v-230q0 -11 -8.5 -19.5t-19.5 -8.5zM53 0q-11 0 -19.5 8.5t-8.5 20.5v230q0 11 8.5 19.5t19.5 8.5q12 0 20.5 -8.5t8.5 -19.5v-230q0 -12 -8.5 -20.5t-20.5 -8.5z" />
    <glyph glyph-name="i" unicode="i" horiz-adv-x="156" 
d="M29 0q-12 0 -20.5 8t-8.5 21v692q0 13 8.5 21t20.5 8q11 0 19.5 -8t8.5 -21v-692q0 -13 -8.5 -21t-19.5 -8z" />
    <glyph glyph-name="j" unicode="j" horiz-adv-x="526" 
d="M217 0q-75 0 -127 42q-42 36 -64 91q-9 24 -14.5 46.5t-8 40t-3 28.5t-0.5 12q0 12 8.5 20.5t20.5 8.5q11 0 19.5 -8.5t8.5 -20.5q0 -16 3 -34q2 -15 7 -33.5t13 -38.5q40 -97 137 -97q68 0 108 41q22 23 32.5 51t14.5 51q3 12 4 22.5t2 18.5q1 9 1 17v1v463q0 12 8 20
t21 8q11 0 19.5 -8t8.5 -20v-463q0 -4 -1 -25.5t-7.5 -51t-21 -63t-41.5 -60.5q-56 -59 -148 -59z" />
    <glyph glyph-name="k" unicode="k" horiz-adv-x="569" 
d="M509 46q7 -10 5.5 -21.5t-11.5 -19.5q-6 -5 -17 -5q-15 0 -22 10l-287 372l-98 -112v-242q0 -11 -8 -19.5t-20 -8.5t-20.5 8.5t-8.5 19.5v253q0 9 7 18l380 440q8 10 20 11t21 -7t10 -20t-7 -21l-239 -276zM51 414q-12 0 -20.5 8t-8.5 20v279q0 11 8.5 20t20.5 9t20 -9
t8 -20v-279q0 -12 -8 -20t-20 -8z" />
    <glyph glyph-name="l" unicode="l" horiz-adv-x="505" 
d="M409 0h-380q-12 0 -20.5 8.5t-8.5 20.5t8.5 20t20.5 8h380q11 0 20 -8t9 -20t-9 -20.5t-20 -8.5zM29 87q-12 0 -20.5 8t-8.5 20v606q0 12 8.5 20.5t20.5 8.5t20 -8.5t8 -20.5v-606q0 -12 -8 -20t-20 -8z" />
    <glyph glyph-name="m" unicode="m" horiz-adv-x="739" 
d="M626 0q-12 0 -20 8t-8 20v593l-233 -377q-10 -13 -25 -13q-16 0 -24 13l-231 377v-593q0 -12 -8 -20t-20 -8t-20.5 8t-8.5 20v694q0 9 5.5 17t15.5 10q9 3 18 -0.5t14 -11.5l259 -423l262 423q5 8 14 11.5t18 0.5q10 -2 15.5 -10t5.5 -17v-694q0 -12 -8.5 -20t-20.5 -8z
" />
    <glyph glyph-name="n" unicode="n" horiz-adv-x="627" 
d="M528 0q-16 0 -23 13l-202 294q-6 10 -4 21.5t12 17.5q9 8 21 6t18 -13l150 -218v600q0 12 8.5 20.5t19.5 8.5q12 0 20.5 -8.5t8.5 -20.5v-692q0 -21 -20 -28q-2 0 -4.5 -0.5t-4.5 -0.5zM54 0q-12 0 -20.5 8.5t-8.5 20.5v692q0 21 20 28q9 2 18 -1t14 -11l204 -296
q6 -10 4 -21.5t-11 -18.5q-10 -7 -21.5 -5t-18.5 13l-152 220v-600q0 -12 -8 -20.5t-20 -8.5z" />
    <glyph glyph-name="o" unicode="o" horiz-adv-x="634" 
d="M288 -3q-144 0 -214 88q-76 91 -76 290q0 51 4.5 93t12.5 78q17 76 53 119q37 45 94 68q50 20 126 20q37 0 69 -5.5t58 -18.5q55 -22 94 -72q67 -92 67 -282q0 -91 -17 -164q-9 -35 -23 -65t-34 -54q-72 -95 -214 -95zM288 695q-125 0 -176 -66q-57 -75 -57 -254
q0 -91 15.5 -153t45.5 -101q53 -66 172 -66q115 0 171 74q29 40 44.5 101.5t15.5 144.5q0 169 -55 246q-55 74 -176 74z" />
    <glyph glyph-name="p" unicode="p" horiz-adv-x="608" 
d="M491 678q69 -68 69 -186q0 -50 -11.5 -88t-29.5 -65.5t-40 -45.5t-43 -29q-23 -12 -44.5 -19t-38.5 -10t-28 -3.5t-12 -0.5h-30q-11 0 -19.5 8.5t-8.5 19.5q0 13 8.5 21.5t19.5 8.5h30l9 0.5t22.5 3t31 7.5t35.5 15q91 49 91 177q0 93 -51 146q-35 33 -88 48
q-21 5 -35 5.5t-15 0.5h-228v-403h98q12 0 20.5 -8.5t8.5 -21.5q0 -11 -8.5 -19.5t-20.5 -8.5h-98v-203q0 -11 -8.5 -19.5t-20.5 -8.5t-20 8.5t-8 19.5v694q0 11 8 19.5t20 8.5h257q2 0 20 -1.5t44 -8t56.5 -21t57.5 -41.5z" />
    <glyph glyph-name="q" unicode="q" horiz-adv-x="640" 
d="M474 92q-11 0 -19 8.5t-8 20.5q0 9 4 17h1q59 77 59 242q0 167 -54 242q-27 38 -69.5 56t-102.5 18q-124 0 -175 -67q-55 -71 -55 -249q0 -175 60 -248q52 -67 170 -67q63 0 108 23q8 4 17 3t16 -8l104 -104q8 -8 8 -19.5t-8 -20.5q-8 -8 -20 -8t-20 8l-89 90
q-26 -11 -55 -16.5t-61 -5.5q-142 0 -212 88q-74 89 -74 285q0 100 16 168q16 72 53 118q18 23 40.5 39.5t51.5 27.5q26 9 57 14t68 5q72 0 124 -23q29 -11 51 -29t40 -42q67 -91 67 -278q0 -88 -17 -161q-10 -34 -23 -63t-30 -52q-10 -12 -23 -12z" />
    <glyph glyph-name="r" unicode="r" horiz-adv-x="636" 
d="M582 48q8 -8 7.5 -20t-9.5 -20q-8 -8 -20 -8q-13 0 -20 10l-206 221h-241v-203q0 -11 -9 -19.5t-20 -8.5q-12 0 -20.5 8.5t-8.5 19.5v693q0 12 8.5 20.5t20.5 8.5h244q3 0 22 -1.5t47 -8.5t60 -22.5t61 -43.5q69 -68 69 -183q0 -75 -24 -129q-20 -45 -59 -79
q-10 -8 -21.5 -6.5t-19.5 9.5q-8 9 -6 21t10 20q62 52 62 164q0 92 -51 143q-23 23 -49.5 34.5t-46.5 16.5q-24 4 -39 6q-9 1 -15 1h-215v-403h255q11 0 20 -9l214 -232v0z" />
    <glyph glyph-name="s" unicode="s" horiz-adv-x="496" 
d="M435 551q0 -12 -8.5 -20.5t-19.5 -8.5q-12 0 -20.5 8t-8.5 20h-1h1l-0.5 7t-3 17.5t-6.5 23.5t-12 27q-40 71 -140 71q-50 0 -81 -13.5t-48.5 -34.5t-24 -47t-6.5 -50q0 -22 5 -45.5t18.5 -44t37.5 -35.5t63 -20q11 -2 18.5 -11.5t5.5 -20.5t-9.5 -18t-18.5 -7q-3 0 -4 1
q-60 6 -99 36q-36 26 -53 64q-8 16 -12.5 31.5t-6.5 29t-2.5 24t-0.5 16.5q0 5 0.5 16.5t2.5 26.5q4 19 9.5 36t15.5 33q23 39 68 64q24 12 55 19t67 7q42 0 73 -9.5t54 -24t38.5 -32.5t25.5 -35q19 -35 23.5 -64t4.5 -36v-1zM416 293q14 -32 16.5 -60.5t2.5 -40.5
q0 -14 -3.5 -45t-23.5 -65q-13 -20 -30.5 -35t-39.5 -26q-23 -11 -54 -17.5t-67 -6.5q-42 0 -73.5 9t-54.5 23t-38.5 31t-24.5 34q-10 18 -15.5 35.5t-8.5 31t-3.5 22t-0.5 9.5q0 12 8.5 21t20.5 9q11 0 20 -9t9 -21q0 -1 2.5 -22.5t17.5 -47.5q40 -68 141 -68
q160 0 160 138q0 129 -112 150q-12 2 -18.5 12t-3.5 22q2 12 11.5 18t22.5 4q54 -9 90 -41q32 -25 49 -64z" />
    <glyph glyph-name="t" unicode="t" horiz-adv-x="599" 
d="M503 693h-474q-12 0 -20.5 8.5t-8.5 19.5q0 12 8.5 20.5t20.5 8.5h474q12 0 20.5 -8.5t8.5 -20.5q0 -11 -8.5 -19.5t-20.5 -8.5zM265 0q-13 0 -21 8.5t-8 20.5v593q0 11 8 19.5t21 8.5q12 0 20.5 -8.5t8.5 -19.5v-593q0 -12 -8.5 -20.5t-20.5 -8.5z" />
    <glyph glyph-name="u" unicode="u" horiz-adv-x="580" 
d="M271 -3q-107 0 -171 64q-28 29 -43 62.5t-22 62.5t-8.5 49t-1.5 22v464q0 13 8 21t21 8q11 0 19 -8t8 -21v-464q0 -1 0.5 -10t3.5 -24t8 -33.5t14 -37.5q45 -97 164 -97q118 0 165 99q9 19 13.5 38t7 33.5t3 23.5l0.5 9v463q0 13 8 21t20 8t20.5 -8t8.5 -21v-463
q0 -1 -0.5 -12.5t-3.5 -29.5t-9 -40.5t-17 -46.5q-14 -29 -32 -51.5t-41 -38.5q-60 -42 -143 -42z" />
    <glyph glyph-name="v" unicode="v" horiz-adv-x="675" 
d="M6 710q-5 11 0 22t16 16q11 4 21.5 -0.5t15.5 -16.5l256 -627l260 628q8 18 27 18q4 0 10 -2q11 -5 15.5 -16t-0.5 -22l-285 -692q-7 -18 -27 -18q-18 0 -26 18l-283 692v0z" />
    <glyph glyph-name="w" unicode="w" horiz-adv-x="839" 
d="M585 0q-9 0 -16.5 4.5t-10.5 12.5l-188 463q-5 11 0 22t16 15q11 5 21.5 0.5t15.5 -15.5l154 -381l151 606q4 12 14 18t22 4q11 -3 17 -13t3 -23l-171 -692q-5 -19 -27 -21h-1zM205 0h-3q-20 2 -25 21l-173 692q-3 13 3.5 23t18.5 13q11 2 21 -4t13 -18l151 -607l107 258
q5 11 16 15.5t22 -0.5q11 -4 15.5 -15t0.5 -22l-142 -339q-3 -8 -10 -12.5t-15 -4.5z" />
    <glyph glyph-name="x" unicode="x" horiz-adv-x="621" 
d="M29 0q-8 0 -18 5q-9 8 -11 19.5t6 21.5l245 329l-245 329q-8 10 -6 22t11 19q10 7 21.5 5.5t18.5 -11.5l258 -347q13 -18 0 -35l-258 -345q-8 -12 -22 -12zM336 412q-9 0 -17 5q-10 8 -12 20.5t6 20.5l211 281q8 10 19 11.5t21 -5.5q9 -7 11 -19.5t-5 -21.5l-211 -280
q-9 -12 -23 -12zM547 0q-16 0 -23 12l-211 280q-8 9 -6 21t12 19t21 5.5t19 -11.5l211 -280q7 -9 5 -21t-11 -20q-8 -5 -17 -5z" />
    <glyph glyph-name="y" unicode="y" horiz-adv-x="584" 
d="M270 0q-12 0 -20 8.5t-8 19.5v339l-57 83q-7 10 -4.5 21t11.5 18q11 8 22 5.5t18 -12.5l38 -56l214 312q7 9 18.5 11.5t21.5 -4.5t12.5 -18.5t-4.5 -21.5l-233 -338v-339q0 -11 -8 -19.5t-21 -8.5zM142 535q-15 0 -24 12l-108 158q-8 10 -5.5 21.5t11.5 18.5q11 7 22 4.5
t19 -11.5l108 -158q7 -10 5 -21.5t-12 -18.5q-8 -5 -16 -5z" />
    <glyph glyph-name="z" unicode="z" horiz-adv-x="617" 
d="M506 0h-475q-18 0 -26 15q-4 7 -3.5 15t5.5 14l475 694q7 11 18.5 13t20.5 -5q11 -7 13 -18.5t-5 -21.5l-444 -649h421q11 0 19.5 -8.5t8.5 -20.5t-8.5 -20t-19.5 -8zM350 694h-319q-12 0 -21 8t-9 20t9 20t21 8h319q12 0 20.5 -8t8.5 -20t-8.5 -20t-20.5 -8z" />
    <glyph glyph-name="braceleft" unicode="{" horiz-adv-x="320" 
d="M201 58q11 -2 18.5 -10.5t7.5 -19.5q0 -12 -8.5 -20t-19.5 -8q-3 0 -10.5 1t-17.5 7t-21.5 17.5t-23.5 32.5q-45 86 -50 288h-47q-13 0 -21 9t-8 21q0 11 8 19.5t21 8.5h47q5 202 50 288q12 21 23.5 32.5t21.5 17.5t17.5 7t10.5 1q11 0 19.5 -8t8.5 -20q0 -11 -7.5 -19.5
t-18.5 -10.5q-2 0 -11.5 -8t-20.5 -35q-13 -29 -24.5 -93t-11.5 -180q0 -59 3 -104t8.5 -78t12 -55.5t12.5 -37.5q11 -27 20.5 -35t11.5 -8z" />
    <glyph glyph-name="braceright" unicode="}" horiz-adv-x="319" 
d="M25 692q-11 2 -18.5 10.5t-7.5 19.5q0 12 8.5 20t19.5 8q3 0 10.5 -1t17.5 -7t21.5 -17.5t23.5 -32.5q45 -86 50 -288h47q13 0 21 -9t8 -21q0 -11 -8 -19.5t-21 -8.5h-47q-5 -202 -50 -288q-12 -21 -23.5 -32.5t-21.5 -17.5t-17.5 -7t-10.5 -1q-11 0 -19.5 8t-8.5 20
q0 11 7.5 19.5t18.5 10.5q2 0 11.5 8t20.5 35q13 29 24.5 93t11.5 180q0 59 -3 104t-8.5 78t-12 55.5t-12.5 37.5q-11 27 -20.5 35t-11.5 8z" />
    <glyph glyph-name="bar" unicode="|" horiz-adv-x="157" 
d="M69 -66q-13 0 -21.5 8.5t-8.5 21.5l-1 814q0 12 8.5 20.5t20.5 8.5h1q12 0 21 -8.5t9 -20.5v-814q0 -13 -8.5 -21.5t-20.5 -8.5z" />
    <glyph glyph-name="Euro" unicode="&#x20ac;" horiz-adv-x="695" 
d="M571 680q28 -29 43 -60t22 -58t8.5 -46t1.5 -22v-1q0 -12 -8.5 -20t-20.5 -8t-20 8t-8 21q0 7 -1 15q-1 7 -3 16t-5 20q-7 29 -20 52t-31 43q-58 58 -170 58q-65 0 -107.5 -19t-68 -51.5t-37.5 -75.5t-16 -90h200q12 0 20.5 -8t8.5 -21q0 -11 -8.5 -19.5t-20.5 -8.5h-202
v-32v-31h202q12 0 20.5 -8.5t8.5 -21.5q0 -11 -8.5 -19.5t-20.5 -8.5h-200q3 -29 9 -60t19 -60q52 -116 201 -116q144 0 201 104q10 19 16 38t9 33.5t3.5 24l0.5 9.5q0 12 8 20.5t20 8.5q13 0 21 -8.5t8 -20.5q0 -1 -0.5 -13t-4 -30.5t-11 -42t-20.5 -47.5q-12 -24 -32 -48
t-50 -43.5t-72 -31.5t-97 -12q-99 0 -166 44q-59 39 -88 107q-15 35 -22.5 72t-9.5 72h-80q-13 0 -21 8.5t-8 19.5q0 13 8 21.5t21 8.5h76v31v32h-76q-13 0 -21 8.5t-8 19.5q0 13 8 21t21 8h80q2 35 9 72.5t21 72.5q16 34 38 61t51 46q68 43 167 43q135 0 212 -77z" />
    <glyph glyph-name="asciitilde" unicode="~" 
 />
    <glyph glyph-name="_0127" horiz-adv-x="0" 
 />
    <glyph glyph-name="_0129" horiz-adv-x="0" 
 />
    <glyph glyph-name="quotesinglbase" unicode="&#x201a;" 
 />
    <glyph glyph-name="florin" unicode="&#x192;" horiz-adv-x="486" 
 />
    <glyph glyph-name="quotedblbase" unicode="&#x201e;" 
 />
    <glyph glyph-name="ellipsis" unicode="&#x2026;" horiz-adv-x="378" 
d="M89 30q0 -13 -9 -21.5t-21 -8.5q-13 0 -21.5 8.5t-8.5 21.5t8.5 21.5t21.5 8.5q12 0 21 -8.5t9 -21.5zM215 30q0 -13 -9 -21.5t-21 -8.5q-13 0 -21.5 8.5t-8.5 21.5t8.5 21.5t21.5 8.5q12 0 21 -8.5t9 -21.5zM341 30q0 -13 -9 -21.5t-21 -8.5q-13 0 -21.5 8.5t-8.5 21.5
t8.5 21.5t21.5 8.5q12 0 21 -8.5t9 -21.5z" />
    <glyph glyph-name="dagger" unicode="&#x2020;" horiz-adv-x="344" 
 />
    <glyph glyph-name="daggerdbl" unicode="&#x2021;" horiz-adv-x="344" 
 />
    <glyph glyph-name="circumflex" unicode="&#x2c6;" horiz-adv-x="280" 
d="M221 580q-6 0 -12 2.5t-11 8.5l-71 87l-72 -87q-8 -10 -20 -11.5t-21 6.5t-10.5 19.5t6.5 20.5l95 114q9 11 22 11t22 -11l94 -114q8 -9 6.5 -20.5t-10.5 -19.5q-4 -4 -8.5 -5t-9.5 -1z" />
    <glyph glyph-name="perthousand" unicode="&#x2030;" 
 />
    <glyph glyph-name="Scaron" unicode="&#x160;" horiz-adv-x="496" 
 />
    <glyph glyph-name="guilsinglleft" unicode="&#x2039;" 
 />
    <glyph glyph-name="OE" unicode="&#x152;" horiz-adv-x="1179" 
 />
    <glyph glyph-name="quoteleft" unicode="&#x2018;" 
 />
    <glyph glyph-name="quoteright" unicode="&#x2019;" 
 />
    <glyph glyph-name="quotedblleft" unicode="&#x201c;" 
 />
    <glyph glyph-name="quotedblright" unicode="&#x201d;" 
 />
    <glyph glyph-name="bullet" unicode="&#x2022;" 
 />
    <glyph glyph-name="endash" unicode="&#x2013;" 
 />
    <glyph glyph-name="emdash" unicode="&#x2014;" 
 />
    <glyph glyph-name="tilde" unicode="&#x2dc;" 
 />
    <glyph glyph-name="trademark" unicode="&#x2122;" horiz-adv-x="675" 
d="M279 585h-190q-12 0 -12 11q0 12 12 12h190q12 0 12 -12q0 -11 -12 -11zM183 307q-11 0 -11 12v237q0 12 11 12q12 0 12 -12v-237q0 -12 -12 -12zM568 307q-11 0 -11 11v238l-93 -151q-4 -6 -11 -6q-5 0 -9 6l-93 151v-238q0 -11 -11 -11t-11 11v278q0 9 8 12q8 2 13 -5
l103 -170l106 170q5 7 12 5q9 -3 9 -12v-278q0 -11 -12 -11z" />
    <glyph glyph-name="scaron" unicode="&#x161;" horiz-adv-x="496" 
 />
    <glyph glyph-name="guilsinglright" unicode="&#x203a;" 
 />
    <glyph glyph-name="oe" unicode="&#x153;" horiz-adv-x="1179" 
 />
    <glyph glyph-name="Ydieresis" unicode="&#x178;" horiz-adv-x="584" 
 />
    <glyph glyph-name="copyright" unicode="&#xa9;" horiz-adv-x="413" 
d="M164 421q-16 0 -32 3t-32 11q-29 10 -51 35q-12 11 -21 23.5t-14 28.5q-8 14 -11 30.5t-3 32.5q0 34 14 65q11 31 35 50q21 24 51 36q16 8 32 10.5t32 2.5q17 0 33 -2.5t32 -10.5q14 -6 27 -15t23 -21q12 -10 21 -23t15 -27q8 -17 10.5 -32.5t2.5 -32.5q0 -16 -2.5 -32.5
t-10.5 -30.5q-6 -16 -15 -28.5t-21 -23.5q-19 -24 -50 -35q-16 -8 -32 -11t-33 -3zM164 705q-25 0 -46.5 -9.5t-38 -25.5t-26 -38t-9.5 -47t9.5 -46.5t26 -38t38 -26t46.5 -9.5t47 9.5t38 26t25.5 38t9.5 46.5t-9.5 47t-25.5 38t-38 25.5t-47 9.5zM164 488q-41 0 -69 28
t-28 69t28 69t69 28q26 0 49 -13t37 -36q5 -9 1.5 -18t-11.5 -13q-8 -5 -17 -2.5t-14 10.5q-6 13 -18.5 20.5t-26.5 7.5q-23 0 -38 -15t-15 -38q0 -22 15 -37t38 -15q32 0 48 29q3 8 12 11t17 -2q8 -4 11 -12.5t-1 -16.5q-6 -12 -14.5 -22t-20.5 -16q-23 -16 -52 -16z" />
    <glyph glyph-name="sterling" unicode="&#xa3;" horiz-adv-x="491" 
d="M57 503q-1 14 -0.5 38t5.5 50q10 68 52 111q26 27 62.5 40t82.5 13q53 0 91 -16q37 -15 61 -44q21 -24 31 -51.5t13.5 -51.5t3 -40t-0.5 -17q-1 -11 -9 -19t-19 -8q-13 0 -21 9t-8 20v4q0 3 0.5 15t-2 29.5t-9.5 36.5t-21 36q-37 40 -110 40q-68 0 -104 -36
q-17 -17 -25.5 -39t-12 -44t-3.5 -41.5v-31.5v-11v-117h231q11 0 20 -8.5t9 -20.5t-9 -20.5t-20 -8.5h-259q-13 0 -21 8.5t-8 20.5v146v8zM430 59q12 0 20 -9t8 -21q0 -11 -8 -20t-20 -9h-430q-13 0 -21 9t-8 20q0 12 8 20t19 10q2 0 9.5 4t17.5 21t20.5 58.5t10.5 119.5
q0 12 8.5 20t19.5 8q13 0 21.5 -8t8.5 -20q0 -135 -37 -203h353z" />
    <glyph glyph-name="numbersign" unicode="#" horiz-adv-x="608" 
d="M472 298q10 0 18.5 -9t8.5 -19q0 -14 -8.5 -21t-18.5 -7h-130l-22 -111q-2 -10 -9.5 -16t-15.5 -6q-2 0 -3.5 1t-3.5 1q-12 2 -18 10.5t-5 22.5l23 98h-126l-24 -111q-2 -10 -9.5 -16t-16.5 -6q-2 0 -3 1q-1 0 -1 1q-14 2 -20.5 10.5t-4.5 22.5l25 98h-81q-11 0 -19 7
t-8 21q0 10 8 19t19 9h89l28 125h-117q-11 0 -19 8t-8 20q0 11 8 19.5t19 8.5h130l20 108q4 10 13 16.5t19 4.5q14 -4 20 -13t5 -21l-23 -95h124l24 108q2 10 12 16.5t20 4.5q11 -4 17.5 -13t4.5 -21l-20 -95h79q10 0 18.5 -8.5t8.5 -19.5q0 -12 -8.5 -20t-18.5 -8h-92
l-25 -125h117zM298 298l29 125h-126l-26 -125h123z" />
    <glyph glyph-name="exclam" unicode="!" horiz-adv-x="117" 
d="M50 106q-12 0 -20 8.5t-8 20.5v586q0 13 8 21t20 8q11 0 20 -8t9 -21v-586q0 -12 -9 -20.5t-20 -8.5zM77 29q0 -13 -8.5 -21t-19.5 -8q-13 0 -21 8t-8 21q0 12 8 20t21 8q11 0 19.5 -8t8.5 -20z" />
    <glyph glyph-name="quotedbl" unicode="&#x22;" horiz-adv-x="221" 
d="M25 585q-4 0 -6 1q-9 1 -15 9t-4 19l21 118q1 9 9.5 15t18.5 4q9 -2 15 -10t5 -18l-21 -118q-2 -8 -8.5 -14t-14.5 -6zM99 585h-2q-2 0 -2 1q-10 1 -15.5 9t-3.5 19l19 118q3 9 11 15t17 4q11 -2 16.5 -10t3.5 -18l-20 -118q-2 -8 -8.5 -14t-15.5 -6z" />
  </font>
</defs>
</svg>
