<?xml version="1.0" encoding="UTF-8"?>
<svg width="274px" height="68px" viewBox="0 0 274 68" version="1.1" xmlns="http://www.w3.org/2000/svg" xmlns:xlink="http://www.w3.org/1999/xlink">
    <!-- Generator: Sketch 48.2 (47327) - http://www.bohemiancoding.com/sketch -->
    <title>Füllen sie die unten Copy</title>
    <desc>Created with Sketch.</desc>
    <defs></defs>
    <g id="iPhone-8" stroke="none" stroke-width="1" fill="none" fill-rule="evenodd" transform="translate(-50.000000, -831.000000)">
        <path d="M57.4360892,840.716797 L51.4204642,840.716797 L51.4204642,848 L50.1958548,848 L50.1958548,832.359375 L58.338433,832.359375 L58.338433,833.519531 L51.4204642,833.519531 L51.4204642,839.556641 L57.4360892,839.556641 L57.4360892,840.716797 Z M67.557617,846.614258 C66.8987595,847.68132 65.8782619,848.214844 64.4960936,848.214844 C63.4433539,848.214844 62.64844,847.849613 62.1113279,847.119141 C61.5742159,846.388668 61.3020832,845.31446 61.2949217,843.896484 L61.2949217,836.376953 L62.4765623,836.376953 L62.4765623,843.864258 C62.4765623,844.916997 62.6627584,845.715492 63.0351561,846.259766 C63.4075538,846.804039 63.9446578,847.076172 64.6464842,847.076172 C66.150398,847.076172 67.1136045,846.34571 67.5361326,844.884766 L67.5361326,836.376953 L68.7392576,836.376953 L68.7392576,848 L67.5791014,848 L67.557617,846.614258 Z M61.9609373,833.014648 C61.9609373,832.763996 62.0379222,832.554526 62.1918944,832.38623 C62.3458665,832.217935 62.5624984,832.133789 62.8417967,832.133789 C63.1139335,832.133789 63.3305654,832.217935 63.491699,832.38623 C63.6528327,832.554526 63.7333983,832.763996 63.7333983,833.014648 C63.7333983,833.258139 63.6528327,833.462239 63.491699,833.626953 C63.3305654,833.791667 63.1139335,833.874023 62.8417967,833.874023 C62.5624984,833.874023 62.3458665,833.791667 62.1918944,833.626953 C62.0379222,833.462239 61.9609373,833.258139 61.9609373,833.014648 Z M66.6552733,833.025391 C66.6552733,832.774738 66.7340485,832.565268 66.8916014,832.396973 C67.0491543,832.228678 67.2639959,832.144531 67.5361326,832.144531 C67.8154309,832.144531 68.0338532,832.228678 68.1914061,832.396973 C68.3489589,832.565268 68.4277342,832.774738 68.4277342,833.025391 C68.4277342,833.268881 68.3489589,833.472981 68.1914061,833.637695 C68.0338532,833.80241 67.8154309,833.884766 67.5361326,833.884766 C67.2639959,833.884766 67.0491543,833.80241 66.8916014,833.637695 C66.7340485,833.472981 66.6552733,833.268881 66.6552733,833.025391 Z M74.0912542,848 L72.8881292,848 L72.8881292,831.5 L74.0912542,831.5 L74.0912542,848 Z M79.5614148,848 L78.3582898,848 L78.3582898,831.5 L79.5614148,831.5 L79.5614148,848 Z M87.5345051,848.214844 C86.1666597,848.214844 85.0960324,847.767257 84.322591,846.87207 C83.5491496,845.976884 83.1552734,844.702157 83.1409504,843.047852 L83.1409504,841.629883 C83.1409504,839.925447 83.5133425,838.588058 84.2581379,837.617676 C85.0029333,836.647293 86.0270116,836.162109 87.3304035,836.162109 C88.5908265,836.162109 89.5522426,836.573889 90.2146809,837.397461 C90.8771191,838.221033 91.2154946,839.481437 91.2298176,841.178711 L91.2298176,842.295898 L84.322591,842.295898 L84.322591,842.951172 C84.322591,844.28321 84.6072561,845.310869 85.1765949,846.03418 C85.7459337,846.757491 86.5497994,847.119141 87.588216,847.119141 C88.7340551,847.119141 89.6614546,846.7002 90.3704426,845.862305 L90.9934894,846.657227 C90.2343711,847.695643 89.0813878,848.214844 87.5345051,848.214844 Z M87.3304035,837.279297 C86.3922478,837.279297 85.6707381,837.610511 85.1658527,838.272949 C84.6609674,838.935387 84.3834637,839.903965 84.3333332,841.178711 L90.0374348,841.178711 L90.0374348,840.867188 C89.9801428,838.475248 89.0778081,837.279297 87.3304035,837.279297 Z M95.7439235,836.376953 L95.77615,838.224609 C96.1199018,837.594398 96.5585367,837.093101 97.092068,836.720703 C97.6255993,836.348305 98.2325269,836.162109 98.9128688,836.162109 C100.939572,836.162109 101.977973,837.512031 102.028103,840.211914 L102.028103,848 L100.846463,848 L100.846463,840.34082 C100.839301,839.302404 100.656686,838.536135 100.298611,838.041992 C99.9405363,837.547849 99.3783674,837.300781 98.6120875,837.300781 C97.9890376,837.300781 97.428659,837.535317 96.9309352,838.004395 C96.4332114,838.473472 96.0554482,839.116207 95.7976344,839.932617 L95.7976344,848 L94.6052516,848 L94.6052516,836.376953 L95.7439235,836.376953 Z M117.630534,845.142578 C117.630534,844.641274 117.422854,844.202639 117.007487,843.82666 C116.59212,843.450682 115.888514,843.038902 114.896647,842.591309 C113.90478,842.143715 113.211916,841.771323 112.818034,841.474121 C112.424152,841.176919 112.134115,840.852866 111.947917,840.501953 C111.761718,840.15104 111.66862,839.735679 111.66862,839.255859 C111.66862,838.360673 111.990882,837.621259 112.635417,837.037598 C113.279951,836.453936 114.114253,836.162109 115.138346,836.162109 C116.241216,836.162109 117.122067,836.47363 117.780924,837.09668 C118.439782,837.71973 118.769206,838.543289 118.769206,839.567383 L117.576823,839.567383 C117.576823,838.908525 117.351239,838.36247 116.900065,837.929199 C116.448891,837.495929 115.861657,837.279297 115.138346,837.279297 C114.43652,837.279297 113.879722,837.458332 113.467936,837.816406 C113.05615,838.174481 112.85026,838.639971 112.85026,839.212891 C112.85026,839.678388 113.007811,840.057941 113.322917,840.351562 C113.638022,840.645184 114.318354,841.042641 115.363932,841.543945 C116.445318,842.016604 117.190102,842.4069 117.598307,842.714844 C118.006512,843.022788 118.314452,843.364744 118.522135,843.740723 C118.729819,844.116701 118.833659,844.562497 118.833659,845.078125 C118.833659,846.037765 118.500654,846.800453 117.834635,847.366211 C117.168616,847.931969 116.291346,848.214844 115.202799,848.214844 C114.049799,848.214844 113.117028,847.899743 112.40446,847.269531 C111.691891,846.63932 111.335612,845.826502 111.335612,844.831055 L112.538737,844.831055 C112.574544,845.554366 112.816241,846.114744 113.263835,846.512207 C113.711428,846.90967 114.357743,847.108398 115.202799,847.108398 C115.933272,847.108398 116.520505,846.929364 116.964518,846.571289 C117.408531,846.213214 117.630534,845.736982 117.630534,845.142578 Z M123.809679,848 L122.606554,848 L122.606554,836.376953 L123.809679,836.376953 L123.809679,848 Z M122.434679,833.025391 C122.434679,832.7819 122.502712,832.57422 122.63878,832.402344 C122.774849,832.230468 122.968206,832.144531 123.218858,832.144531 C123.469511,832.144531 123.664659,832.230468 123.804308,832.402344 C123.943957,832.57422 124.01378,832.7819 124.01378,833.025391 C124.01378,833.268881 123.943957,833.474771 123.804308,833.643066 C123.664659,833.811362 123.469511,833.895508 123.218858,833.895508 C122.968206,833.895508 122.774849,833.811362 122.63878,833.643066 C122.502712,833.474771 122.434679,833.268881 122.434679,833.025391 Z M131.782769,848.214844 C130.414924,848.214844 129.344296,847.767257 128.570855,846.87207 C127.797414,845.976884 127.403537,844.702157 127.389214,843.047852 L127.389214,841.629883 C127.389214,839.925447 127.761606,838.588058 128.506402,837.617676 C129.251197,836.647293 130.275276,836.162109 131.578667,836.162109 C132.83909,836.162109 133.800507,836.573889 134.462945,837.397461 C135.125383,838.221033 135.463759,839.481437 135.478082,841.178711 L135.478082,842.295898 L128.570855,842.295898 L128.570855,842.951172 C128.570855,844.28321 128.85552,845.310869 129.424859,846.03418 C129.994198,846.757491 130.798063,847.119141 131.83648,847.119141 C132.982319,847.119141 133.909719,846.7002 134.618707,845.862305 L135.241753,846.657227 C134.482635,847.695643 133.329652,848.214844 131.782769,848.214844 Z M131.578667,837.279297 C130.640512,837.279297 129.919002,837.610511 129.414117,838.272949 C128.909231,838.935387 128.631728,839.903965 128.581597,841.178711 L134.285699,841.178711 L134.285699,840.867188 C134.228407,838.475248 133.326072,837.279297 131.578667,837.279297 Z M144.205512,841.651367 C144.205512,839.832348 144.524194,838.462732 145.161567,837.54248 C145.79894,836.622228 146.744243,836.162109 147.997504,836.162109 C149.315219,836.162109 150.29991,836.752924 150.951606,837.93457 L150.951606,831.5 L152.143989,831.5 L152.143989,848 L151.026801,848 L150.97309,846.506836 C150.321394,847.645514 149.325962,848.214844 147.986762,848.214844 C146.762147,848.214844 145.829376,847.749354 145.188422,846.818359 C144.547469,845.887365 144.219835,844.566089 144.205512,842.854492 L144.205512,841.651367 Z M145.419379,842.736328 C145.419379,844.225919 145.643173,845.321611 146.090766,846.023438 C146.538359,846.725264 147.249127,847.076172 148.22309,847.076172 C149.476352,847.076172 150.385848,846.478196 150.951606,845.282227 L150.951606,839.255859 C150.414494,837.959629 149.508578,837.311523 148.233832,837.311523 C147.259869,837.311523 146.549102,837.658851 146.101508,838.353516 C145.653915,839.048181 145.426541,840.122389 145.419379,841.576172 L145.419379,842.736328 Z M157.538954,848 L156.335829,848 L156.335829,836.376953 L157.538954,836.376953 L157.538954,848 Z M156.163954,833.025391 C156.163954,832.7819 156.231987,832.57422 156.368056,832.402344 C156.504124,832.230468 156.697481,832.144531 156.948134,832.144531 C157.198786,832.144531 157.393934,832.230468 157.533583,832.402344 C157.673232,832.57422 157.743056,832.7819 157.743056,833.025391 C157.743056,833.268881 157.673232,833.474771 157.533583,833.643066 C157.393934,833.811362 157.198786,833.895508 156.948134,833.895508 C156.697481,833.895508 156.504124,833.811362 156.368056,833.643066 C156.231987,833.474771 156.163954,833.268881 156.163954,833.025391 Z M165.512044,848.214844 C164.144199,848.214844 163.073572,847.767257 162.30013,846.87207 C161.526689,845.976884 161.132813,844.702157 161.11849,843.047852 L161.11849,841.629883 C161.11849,839.925447 161.490882,838.588058 162.235677,837.617676 C162.980472,836.647293 164.004551,836.162109 165.307943,836.162109 C166.568366,836.162109 167.529782,836.573889 168.19222,837.397461 C168.854658,838.221033 169.193034,839.481437 169.207357,841.178711 L169.207357,842.295898 L162.30013,842.295898 L162.30013,842.951172 C162.30013,844.28321 162.584795,845.310869 163.154134,846.03418 C163.723473,846.757491 164.527339,847.119141 165.565755,847.119141 C166.711594,847.119141 167.638994,846.7002 168.347982,845.862305 L168.971029,846.657227 C168.21191,847.695643 167.058927,848.214844 165.512044,848.214844 Z M165.307943,837.279297 C164.369787,837.279297 163.648277,837.610511 163.143392,838.272949 C162.638507,838.935387 162.361003,839.903965 162.310872,841.178711 L168.014974,841.178711 L168.014974,840.867188 C167.957682,838.475248 167.055347,837.279297 165.307943,837.279297 Z M184.594944,846.614258 C183.936086,847.68132 182.915589,848.214844 181.53342,848.214844 C180.480681,848.214844 179.685767,847.849613 179.148655,847.119141 C178.611542,846.388668 178.33941,845.31446 178.332248,843.896484 L178.332248,836.376953 L179.513889,836.376953 L179.513889,843.864258 C179.513889,844.916997 179.700085,845.715492 180.072483,846.259766 C180.44488,846.804039 180.981984,847.076172 181.683811,847.076172 C183.187725,847.076172 184.150931,846.34571 184.573459,844.884766 L184.573459,836.376953 L185.776584,836.376953 L185.776584,848 L184.616428,848 L184.594944,846.614258 Z M190.935221,836.376953 L190.967448,838.224609 C191.3112,837.594398 191.749835,837.093101 192.283366,836.720703 C192.816897,836.348305 193.423825,836.162109 194.104167,836.162109 C196.13087,836.162109 197.169271,837.512031 197.219401,840.211914 L197.219401,848 L196.03776,848 L196.03776,840.34082 C196.030599,839.302404 195.847984,838.536135 195.489909,838.041992 C195.131834,837.547849 194.569665,837.300781 193.803385,837.300781 C193.180335,837.300781 192.619957,837.535317 192.122233,838.004395 C191.624509,838.473472 191.246746,839.116207 190.988932,839.932617 L190.988932,848 L189.796549,848 L189.796549,836.376953 L190.935221,836.376953 Z M203.022569,833.412109 L203.022569,836.376953 L205.009874,836.376953 L205.009874,837.451172 L203.022569,837.451172 L203.022569,845.174805 C203.022569,845.812178 203.117458,846.28662 203.307237,846.598145 C203.497017,846.90967 203.813908,847.06543 204.257921,847.06543 C204.451281,847.06543 204.737737,847.029623 205.117296,846.958008 L205.149523,848.032227 C204.877386,848.153972 204.48709,848.214844 203.978624,848.214844 C202.582133,848.214844 201.865994,847.255218 201.830187,845.335938 L201.830187,837.451172 L200.036241,837.451172 L200.036241,836.376953 L201.830187,836.376953 L201.830187,833.412109 L203.022569,833.412109 Z M212.284722,848.214844 C210.916877,848.214844 209.84625,847.767257 209.072808,846.87207 C208.299367,845.976884 207.905491,844.702157 207.891168,843.047852 L207.891168,841.629883 C207.891168,839.925447 208.26356,838.588058 209.008355,837.617676 C209.75315,836.647293 210.777229,836.162109 212.080621,836.162109 C213.341044,836.162109 214.30246,836.573889 214.964898,837.397461 C215.627336,838.221033 215.965712,839.481437 215.980035,841.178711 L215.980035,842.295898 L209.072808,842.295898 L209.072808,842.951172 C209.072808,844.28321 209.357473,845.310869 209.926812,846.03418 C210.496151,846.757491 211.300017,847.119141 212.338433,847.119141 C213.484272,847.119141 214.411672,846.7002 215.12066,845.862305 L215.743707,846.657227 C214.984588,847.695643 213.831605,848.214844 212.284722,848.214844 Z M212.080621,837.279297 C211.142465,837.279297 210.420955,837.610511 209.91607,838.272949 C209.411185,838.935387 209.133681,839.903965 209.08355,841.178711 L214.787652,841.178711 L214.787652,840.867188 C214.73036,838.475248 213.828025,837.279297 212.080621,837.279297 Z M220.494141,836.376953 L220.526367,838.224609 C220.870119,837.594398 221.308754,837.093101 221.842285,836.720703 C222.375817,836.348305 222.982744,836.162109 223.663086,836.162109 C225.689789,836.162109 226.72819,837.512031 226.77832,840.211914 L226.77832,848 L225.59668,848 L225.59668,840.34082 C225.589518,839.302404 225.406903,838.536135 225.048828,838.041992 C224.690753,837.547849 224.128585,837.300781 223.362305,837.300781 C222.739255,837.300781 222.178876,837.535317 221.681152,838.004395 C221.183429,838.473472 220.805665,839.116207 220.547852,839.932617 L220.547852,848 L219.355469,848 L219.355469,836.376953 L220.494141,836.376953 Z M236.599067,845.142578 C236.599067,844.641274 236.391387,844.202639 235.97602,843.82666 C235.560653,843.450682 234.857047,843.038902 233.86518,842.591309 C232.873313,842.143715 232.180449,841.771323 231.786567,841.474121 C231.392685,841.176919 231.102649,840.852866 230.91645,840.501953 C230.730251,840.15104 230.637153,839.735679 230.637153,839.255859 C230.637153,838.360673 230.959415,837.621259 231.60395,837.037598 C232.248484,836.453936 233.082786,836.162109 234.106879,836.162109 C235.20975,836.162109 236.0906,836.47363 236.749458,837.09668 C237.408315,837.71973 237.737739,838.543289 237.737739,839.567383 L236.545356,839.567383 C236.545356,838.908525 236.319772,838.36247 235.868598,837.929199 C235.417424,837.495929 234.83019,837.279297 234.106879,837.279297 C233.405053,837.279297 232.848255,837.458332 232.436469,837.816406 C232.024683,838.174481 231.818793,838.639971 231.818793,839.212891 C231.818793,839.678388 231.976344,840.057941 232.29145,840.351562 C232.606555,840.645184 233.286887,841.042641 234.332465,841.543945 C235.413851,842.016604 236.158635,842.4069 236.56684,842.714844 C236.975046,843.022788 237.282985,843.364744 237.490668,843.740723 C237.698352,844.116701 237.802192,844.562497 237.802192,845.078125 C237.802192,846.037765 237.469187,846.800453 236.803168,847.366211 C236.13715,847.931969 235.25988,848.214844 234.171333,848.214844 C233.018332,848.214844 232.085561,847.899743 231.372993,847.269531 C230.660424,846.63932 230.304145,845.826502 230.304145,844.831055 L231.50727,844.831055 C231.543078,845.554366 231.784774,846.114744 232.232368,846.512207 C232.679961,846.90967 233.326276,847.108398 234.171333,847.108398 C234.901805,847.108398 235.489039,846.929364 235.933051,846.571289 C236.377064,846.213214 236.599067,845.736982 236.599067,845.142578 Z M243.240126,833.412109 L243.240126,836.376953 L245.227431,836.376953 L245.227431,837.451172 L243.240126,837.451172 L243.240126,845.174805 C243.240126,845.812178 243.335014,846.28662 243.524794,846.598145 C243.714574,846.90967 244.031465,847.06543 244.475478,847.06543 C244.668838,847.06543 244.955293,847.029623 245.334853,846.958008 L245.367079,848.032227 C245.094942,848.153972 244.704647,848.214844 244.196181,848.214844 C242.799689,848.214844 242.083551,847.255218 242.047743,845.335938 L242.047743,837.451172 L240.253798,837.451172 L240.253798,836.376953 L242.047743,836.376953 L242.047743,833.412109 L243.240126,833.412109 Z M252.502279,848.214844 C251.134433,848.214844 250.063806,847.767257 249.290365,846.87207 C248.516923,845.976884 248.123047,844.702157 248.108724,843.047852 L248.108724,841.629883 C248.108724,839.925447 248.481116,838.588058 249.225912,837.617676 C249.970707,836.647293 250.994785,836.162109 252.298177,836.162109 C253.5586,836.162109 254.520016,836.573889 255.182455,837.397461 C255.844893,838.221033 256.183268,839.481437 256.197591,841.178711 L256.197591,842.295898 L249.290365,842.295898 L249.290365,842.951172 C249.290365,844.28321 249.57503,845.310869 250.144369,846.03418 C250.713707,846.757491 251.517573,847.119141 252.55599,847.119141 C253.701829,847.119141 254.629228,846.7002 255.338216,845.862305 L255.961263,846.657227 C255.202145,847.695643 254.049161,848.214844 252.502279,848.214844 Z M252.298177,837.279297 C251.360021,837.279297 250.638512,837.610511 250.133626,838.272949 C249.628741,838.935387 249.351237,839.903965 249.301107,841.178711 L255.005208,841.178711 L255.005208,840.867188 C254.947916,838.475248 254.045582,837.279297 252.298177,837.279297 Z M260.765408,838.203125 C261.10916,837.580075 261.544214,837.084149 262.070584,836.715332 C262.596954,836.346515 263.200301,836.162109 263.880642,836.162109 C265.907345,836.162109 266.945746,837.512031 266.995877,840.211914 L266.995877,848 L265.814236,848 L265.814236,840.34082 C265.807075,839.302404 265.624459,838.536135 265.266385,838.041992 C264.90831,837.547849 264.346141,837.300781 263.579861,837.300781 C262.956811,837.300781 262.396433,837.535317 261.898709,838.004395 C261.400985,838.473472 261.023222,839.116207 260.765408,839.932617 L260.765408,848 L259.573025,848 L259.573025,831.5 L260.765408,831.5 L260.765408,838.203125 Z M274.829319,848.214844 C273.461473,848.214844 272.390846,847.767257 271.617405,846.87207 C270.843963,845.976884 270.450087,844.702157 270.435764,843.047852 L270.435764,841.629883 C270.435764,839.925447 270.808156,838.588058 271.552952,837.617676 C272.297747,836.647293 273.321825,836.162109 274.625217,836.162109 C275.88564,836.162109 276.847056,836.573889 277.509494,837.397461 C278.171933,838.221033 278.510308,839.481437 278.524631,841.178711 L278.524631,842.295898 L271.617405,842.295898 L271.617405,842.951172 C271.617405,844.28321 271.90207,845.310869 272.471409,846.03418 C273.040747,846.757491 273.844613,847.119141 274.88303,847.119141 C276.028869,847.119141 276.956268,846.7002 277.665256,845.862305 L278.288303,846.657227 C277.529185,847.695643 276.376201,848.214844 274.829319,848.214844 Z M274.625217,837.279297 C273.687061,837.279297 272.965552,837.610511 272.460666,838.272949 C271.955781,838.935387 271.678277,839.903965 271.628147,841.178711 L277.332248,841.178711 L277.332248,840.867188 C277.274956,838.475248 276.372622,837.279297 274.625217,837.279297 Z M283.038737,836.376953 L283.070964,838.224609 C283.414715,837.594398 283.85335,837.093101 284.386882,836.720703 C284.920413,836.348305 285.52734,836.162109 286.207682,836.162109 C288.234385,836.162109 289.272786,837.512031 289.322917,840.211914 L289.322917,848 L288.141276,848 L288.141276,840.34082 C288.134115,839.302404 287.951499,838.536135 287.593425,838.041992 C287.23535,837.547849 286.673181,837.300781 285.906901,837.300781 C285.283851,837.300781 284.723473,837.535317 284.225749,838.004395 C283.728025,838.473472 283.350262,839.116207 283.092448,839.932617 L283.092448,848 L281.900065,848 L281.900065,836.376953 L283.038737,836.376953 Z M292.902452,841.651367 C292.902452,839.832348 293.221134,838.462732 293.858507,837.54248 C294.49588,836.622228 295.441183,836.162109 296.694445,836.162109 C298.01216,836.162109 298.99685,836.752924 299.648546,837.93457 L299.648546,831.5 L300.840929,831.5 L300.840929,848 L299.723741,848 L299.670031,846.506836 C299.018335,847.645514 298.022902,848.214844 296.683702,848.214844 C295.459087,848.214844 294.526316,847.749354 293.885363,846.818359 C293.244409,845.887365 292.916775,844.566089 292.902452,842.854492 L292.902452,841.651367 Z M294.11632,842.736328 C294.11632,844.225919 294.340113,845.321611 294.787706,846.023438 C295.2353,846.725264 295.946067,847.076172 296.920031,847.076172 C298.173292,847.076172 299.082788,846.478196 299.648546,845.282227 L299.648546,839.255859 C299.111434,837.959629 298.205519,837.311523 296.930773,837.311523 C295.95681,837.311523 295.246042,837.658851 294.798449,838.353516 C294.350855,839.048181 294.123481,840.122389 294.11632,841.576172 L294.11632,842.736328 Z M308.738824,848.214844 C307.370979,848.214844 306.300351,847.767257 305.52691,846.87207 C304.753469,845.976884 304.359592,844.702157 304.345269,843.047852 L304.345269,841.629883 C304.345269,839.925447 304.717661,838.588058 305.462457,837.617676 C306.207252,836.647293 307.23133,836.162109 308.534722,836.162109 C309.795145,836.162109 310.756562,836.573889 311.419,837.397461 C312.081438,838.221033 312.419813,839.481437 312.434136,841.178711 L312.434136,842.295898 L305.52691,842.295898 L305.52691,842.951172 C305.52691,844.28321 305.811575,845.310869 306.380914,846.03418 C306.950253,846.757491 307.754118,847.119141 308.792535,847.119141 C309.938374,847.119141 310.865774,846.7002 311.574761,845.862305 L312.197808,846.657227 C311.43869,847.695643 310.285707,848.214844 308.738824,848.214844 Z M308.534722,837.279297 C307.596567,837.279297 306.875057,837.610511 306.370172,838.272949 C305.865286,838.935387 305.587783,839.903965 305.537652,841.178711 L311.241754,841.178711 L311.241754,840.867188 C311.184462,838.475248 310.282127,837.279297 308.534722,837.279297 Z M316.948242,836.376953 L316.980469,838.224609 C317.324221,837.594398 317.762856,837.093101 318.296387,836.720703 C318.829918,836.348305 319.436846,836.162109 320.117188,836.162109 C322.143891,836.162109 323.182292,837.512031 323.232422,840.211914 L323.232422,848 L322.050781,848 L322.050781,840.34082 C322.04362,839.302404 321.861005,838.536135 321.50293,838.041992 C321.144855,837.547849 320.582686,837.300781 319.816406,837.300781 C319.193356,837.300781 318.632978,837.535317 318.135254,838.004395 C317.63753,838.473472 317.259767,839.116207 317.001953,839.932617 L317.001953,848 L315.80957,848 L315.80957,836.376953 L316.948242,836.376953 Z M93.4373371,865.716797 L87.4217121,865.716797 L87.4217121,873 L86.1971027,873 L86.1971027,857.359375 L94.3396809,857.359375 L94.3396809,858.519531 L87.4217121,858.519531 L87.4217121,864.556641 L93.4373371,864.556641 L93.4373371,865.716797 Z M101.174099,873.214844 C99.8062539,873.214844 98.7356266,872.767257 97.9621852,871.87207 C97.1887438,870.976884 96.7948676,869.702157 96.7805446,868.047852 L96.7805446,866.629883 C96.7805446,864.925447 97.1529367,863.588058 97.8977321,862.617676 C98.6425275,861.647293 99.6666058,861.162109 100.969998,861.162109 C102.230421,861.162109 103.191837,861.573889 103.854275,862.397461 C104.516713,863.221033 104.855089,864.481437 104.869412,866.178711 L104.869412,867.295898 L97.9621852,867.295898 L97.9621852,867.951172 C97.9621852,869.28321 98.2468503,870.310869 98.8161891,871.03418 C99.3855279,871.757491 100.189394,872.119141 101.22781,872.119141 C102.373649,872.119141 103.301049,871.7002 104.010037,870.862305 L104.633084,871.657227 C103.873965,872.695643 102.720982,873.214844 101.174099,873.214844 Z M100.969998,862.279297 C100.031842,862.279297 99.3103323,862.610511 98.8054469,863.272949 C98.3005616,863.935387 98.0230579,864.903965 97.9729274,866.178711 L103.677029,866.178711 L103.677029,865.867188 C103.619737,863.475248 102.717402,862.279297 100.969998,862.279297 Z M109.576877,873 L108.373752,873 L108.373752,856.5 L109.576877,856.5 L109.576877,873 Z M113.285319,866.651367 C113.285319,864.832348 113.604001,863.462732 114.241374,862.54248 C114.878747,861.622228 115.82405,861.162109 117.077311,861.162109 C118.395026,861.162109 119.379717,861.752924 120.031413,862.93457 L120.031413,856.5 L121.223795,856.5 L121.223795,873 L120.106608,873 L120.052897,871.506836 C119.401201,872.645514 118.405768,873.214844 117.066569,873.214844 C115.841953,873.214844 114.909183,872.749354 114.268229,871.818359 C113.627275,870.887365 113.299642,869.566089 113.285319,867.854492 L113.285319,866.651367 Z M114.499186,867.736328 C114.499186,869.225919 114.722979,870.321611 115.170573,871.023438 C115.618166,871.725264 116.328934,872.076172 117.302897,872.076172 C118.556159,872.076172 119.465655,871.478196 120.031413,870.282227 L120.031413,864.255859 C119.494301,862.959629 118.588385,862.311523 117.313639,862.311523 C116.339676,862.311523 115.628908,862.658851 115.181315,863.353516 C114.733722,864.048181 114.506348,865.122389 114.499186,866.576172 L114.499186,867.736328 Z M129.12169,873.214844 C127.753845,873.214844 126.683218,872.767257 125.909776,871.87207 C125.136335,870.976884 124.742459,869.702157 124.728136,868.047852 L124.728136,866.629883 C124.728136,864.925447 125.100528,863.588058 125.845323,862.617676 C126.590119,861.647293 127.614197,861.162109 128.917589,861.162109 C130.178012,861.162109 131.139428,861.573889 131.801866,862.397461 C132.464304,863.221033 132.80268,864.481437 132.817003,866.178711 L132.817003,867.295898 L125.909776,867.295898 L125.909776,867.951172 C125.909776,869.28321 126.194442,870.310869 126.76378,871.03418 C127.333119,871.757491 128.136985,872.119141 129.175401,872.119141 C130.32124,872.119141 131.24864,871.7002 131.957628,870.862305 L132.580675,871.657227 C131.821556,872.695643 130.668573,873.214844 129.12169,873.214844 Z M128.917589,862.279297 C127.979433,862.279297 127.257923,862.610511 126.753038,863.272949 C126.248153,863.935387 125.970649,864.903965 125.920519,866.178711 L131.62462,866.178711 L131.62462,865.867188 C131.567328,863.475248 130.664993,862.279297 128.917589,862.279297 Z M140.747124,862.494141 C140.460665,862.44401 140.210016,862.418945 139.995171,862.418945 C139.336314,862.418945 138.783097,862.644529 138.335503,863.095703 C137.88791,863.546877 137.571019,864.173499 137.38482,864.975586 L137.38482,873 L136.192437,873 L136.192437,861.376953 L137.363335,861.376953 L137.38482,863.117188 C137.950578,861.813796 138.83859,861.162109 140.048882,861.162109 C140.363988,861.162109 140.603895,861.208658 140.768609,861.301758 L140.747124,862.494141 Z M155.608344,873 C155.500922,872.627602 155.429308,872.090498 155.3935,871.388672 C155.035426,871.968753 154.575307,872.41813 154.013129,872.736816 C153.450952,873.055503 152.840444,873.214844 152.181586,873.214844 C151.178977,873.214844 150.398386,872.931969 149.839789,872.366211 C149.281193,871.800453 149.001899,870.994797 149.001899,869.949219 C149.001899,868.810541 149.390404,867.908206 150.167426,867.242188 C150.944448,866.576169 152.016866,866.239583 153.384711,866.232422 L155.382758,866.232422 L155.382758,864.610352 C155.382758,863.779618 155.176868,863.183433 154.765082,862.821777 C154.353297,862.460122 153.74995,862.279297 152.955024,862.279297 C152.21739,862.279297 151.612253,862.494138 151.139594,862.923828 C150.666936,863.353518 150.43061,863.908525 150.43061,864.588867 L149.238227,864.578125 C149.238227,863.625646 149.596296,862.8182 150.312446,862.155762 C151.028595,861.493324 151.927349,861.162109 153.008735,861.162109 C154.176058,861.162109 155.06049,861.455726 155.662055,862.042969 C156.263621,862.630211 156.564399,863.485997 156.564399,864.610352 L156.564399,870.314453 C156.564399,871.453131 156.668239,872.305336 156.875922,872.871094 L156.875922,873 L155.608344,873 Z M152.331977,872.06543 C153.033803,872.06543 153.655054,871.882814 154.195746,871.517578 C154.736439,871.152342 155.132106,870.665368 155.382758,870.056641 L155.382758,867.231445 L153.492133,867.231445 C152.403586,867.245768 151.583607,867.487465 151.032172,867.956543 C150.480737,868.425621 150.205024,869.057613 150.205024,869.852539 C150.205024,871.327807 150.914001,872.06543 152.331977,872.06543 Z M166.890028,871.614258 C166.231171,872.68132 165.210673,873.214844 163.828505,873.214844 C162.775765,873.214844 161.980851,872.849613 161.443739,872.119141 C160.906627,871.388668 160.634494,870.31446 160.627333,868.896484 L160.627333,861.376953 L161.808973,861.376953 L161.808973,868.864258 C161.808973,869.916997 161.99517,870.715492 162.367567,871.259766 C162.739965,871.804039 163.277069,872.076172 163.978895,872.076172 C165.482809,872.076172 166.446016,871.34571 166.868544,869.884766 L166.868544,861.376953 L168.071669,861.376953 L168.071669,873 L166.911513,873 L166.890028,871.614258 Z M177.903158,870.142578 C177.903158,869.641274 177.695477,869.202639 177.280111,868.82666 C176.864744,868.450682 176.161138,868.038902 175.169271,867.591309 C174.177404,867.143715 173.48454,866.771323 173.090658,866.474121 C172.696775,866.176919 172.406739,865.852866 172.22054,865.501953 C172.034341,865.15104 171.941243,864.735679 171.941243,864.255859 C171.941243,863.360673 172.263506,862.621259 172.90804,862.037598 C173.552575,861.453936 174.386876,861.162109 175.41097,861.162109 C176.51384,861.162109 177.394691,861.47363 178.053548,862.09668 C178.712406,862.71973 179.041829,863.543289 179.041829,864.567383 L177.849447,864.567383 C177.849447,863.908525 177.623863,863.36247 177.172689,862.929199 C176.721515,862.495929 176.134281,862.279297 175.41097,862.279297 C174.709144,862.279297 174.152346,862.458332 173.74056,862.816406 C173.328774,863.174481 173.122884,863.639971 173.122884,864.212891 C173.122884,864.678388 173.280435,865.057941 173.59554,865.351562 C173.910646,865.645184 174.590978,866.042641 175.636556,866.543945 C176.717942,867.016604 177.462726,867.4069 177.870931,867.714844 C178.279136,868.022788 178.587076,868.364744 178.794759,868.740723 C179.002442,869.116701 179.106283,869.562497 179.106283,870.078125 C179.106283,871.037765 178.773278,871.800453 178.107259,872.366211 C177.44124,872.931969 176.56397,873.214844 175.475423,873.214844 C174.322423,873.214844 173.389652,872.899743 172.677083,872.269531 C171.964515,871.63932 171.608236,870.826502 171.608236,869.831055 L172.811361,869.831055 C172.847168,870.554366 173.088865,871.114744 173.536458,871.512207 C173.984052,871.90967 174.630367,872.108398 175.475423,872.108398 C176.205896,872.108398 176.793129,871.929364 177.237142,871.571289 C177.681155,871.213214 177.903158,870.736982 177.903158,870.142578 Z M194.762424,871.614258 C194.103567,872.68132 193.083069,873.214844 191.700901,873.214844 C190.648161,873.214844 189.853247,872.849613 189.316135,872.119141 C188.779023,871.388668 188.50689,870.31446 188.499729,868.896484 L188.499729,861.376953 L189.681369,861.376953 L189.681369,868.864258 C189.681369,869.916997 189.867565,870.715492 190.239963,871.259766 C190.612361,871.804039 191.149465,872.076172 191.851291,872.076172 C193.355205,872.076172 194.318412,871.34571 194.74094,869.884766 L194.74094,861.376953 L195.944065,861.376953 L195.944065,873 L194.783908,873 L194.762424,871.614258 Z M201.059733,861.376953 L201.09196,863.117188 C201.815271,861.813796 202.853672,861.162109 204.207194,861.162109 C205.703946,861.162109 206.670734,861.874667 207.107585,863.299805 C207.472821,862.590817 207.943682,862.057293 208.520182,861.699219 C209.096683,861.341144 209.725094,861.162109 210.405436,861.162109 C212.496593,861.162109 213.56722,862.50845 213.61735,865.201172 L213.61735,873 L212.424967,873 L212.424967,865.276367 C212.410644,864.273758 212.224448,863.527183 211.866374,863.036621 C211.508299,862.546059 210.921065,862.300781 210.104655,862.300781 C209.367021,862.315104 208.74398,862.60156 208.235514,863.160156 C207.727048,863.718753 207.437012,864.420569 207.365397,865.265625 L207.365397,873 L206.162272,873 L206.162272,865.308594 C206.162272,864.291662 205.974286,863.536135 205.598307,863.041992 C205.222329,862.547849 204.636886,862.300781 203.84196,862.300781 C203.190264,862.300781 202.626304,862.526365 202.150065,862.977539 C201.673826,863.428713 201.328289,864.073238 201.113444,864.911133 L201.113444,873 L199.921061,873 L199.921061,861.376953 L201.059733,861.376953 Z M225.803765,870.357422 L225.900445,871.001953 L226.029351,870.303711 L228.403375,861.376953 L229.402398,861.376953 L231.754937,870.228516 L231.926812,871.141602 L232.066461,870.325195 L234.07525,861.376953 L235.299859,861.376953 L232.453179,873 L231.454156,873 L228.929742,863.761719 L228.876031,863.482422 L228.833062,863.772461 L226.351617,873 L225.341851,873 L222.516656,861.376953 L223.730523,861.376953 L225.803765,870.357422 Z M242.381348,873.214844 C241.013502,873.214844 239.942875,872.767257 239.169434,871.87207 C238.395992,870.976884 238.002116,869.702157 237.987793,868.047852 L237.987793,866.629883 C237.987793,864.925447 238.360185,863.588058 239.104981,862.617676 C239.849776,861.647293 240.873854,861.162109 242.177246,861.162109 C243.437669,861.162109 244.399085,861.573889 245.061523,862.397461 C245.723962,863.221033 246.062337,864.481437 246.07666,866.178711 L246.07666,867.295898 L239.169434,867.295898 L239.169434,867.951172 C239.169434,869.28321 239.454099,870.310869 240.023438,871.03418 C240.592776,871.757491 241.396642,872.119141 242.435059,872.119141 C243.580898,872.119141 244.508297,871.7002 245.217285,870.862305 L245.840332,871.657227 C245.081214,872.695643 243.92823,873.214844 242.381348,873.214844 Z M242.177246,862.279297 C241.23909,862.279297 240.517581,862.610511 240.012695,863.272949 C239.50781,863.935387 239.230306,864.903965 239.180176,866.178711 L244.884277,866.178711 L244.884277,865.867188 C244.826985,863.475248 243.924651,862.279297 242.177246,862.279297 Z M250.784126,873 L249.581001,873 L249.581001,861.376953 L250.784126,861.376953 L250.784126,873 Z M249.409126,858.025391 C249.409126,857.7819 249.477159,857.57422 249.613227,857.402344 C249.749295,857.230468 249.942653,857.144531 250.193305,857.144531 C250.443957,857.144531 250.639105,857.230468 250.778754,857.402344 C250.918404,857.57422 250.988227,857.7819 250.988227,858.025391 C250.988227,858.268881 250.918404,858.474771 250.778754,858.643066 C250.639105,858.811362 250.443957,858.895508 250.193305,858.895508 C249.942653,858.895508 249.749295,858.811362 249.613227,858.643066 C249.477159,858.474771 249.409126,858.268881 249.409126,858.025391 Z M256.7162,858.412109 L256.7162,861.376953 L258.703505,861.376953 L258.703505,862.451172 L256.7162,862.451172 L256.7162,870.174805 C256.7162,870.812178 256.811089,871.28662 257.000868,871.598145 C257.190648,871.90967 257.507539,872.06543 257.951552,872.06543 C258.144912,872.06543 258.431368,872.029623 258.810927,871.958008 L258.843153,873.032227 C258.571017,873.153972 258.180721,873.214844 257.672255,873.214844 C256.275764,873.214844 255.559625,872.255218 255.523817,870.335938 L255.523817,862.451172 L253.729872,862.451172 L253.729872,861.376953 L255.523817,861.376953 L255.523817,858.412109 L256.7162,858.412109 Z M265.978353,873.214844 C264.610508,873.214844 263.53988,872.767257 262.766439,871.87207 C261.992998,870.976884 261.599121,869.702157 261.584798,868.047852 L261.584798,866.629883 C261.584798,864.925447 261.95719,863.588058 262.701986,862.617676 C263.446781,861.647293 264.470859,861.162109 265.774251,861.162109 C267.034674,861.162109 267.996091,861.573889 268.658529,862.397461 C269.320967,863.221033 269.659342,864.481437 269.673665,866.178711 L269.673665,867.295898 L262.766439,867.295898 L262.766439,867.951172 C262.766439,869.28321 263.051104,870.310869 263.620443,871.03418 C264.189782,871.757491 264.993647,872.119141 266.032064,872.119141 C267.177903,872.119141 268.105303,871.7002 268.81429,870.862305 L269.437337,871.657227 C268.678219,872.695643 267.525236,873.214844 265.978353,873.214844 Z M265.774251,862.279297 C264.836096,862.279297 264.114586,862.610511 263.609701,863.272949 C263.104815,863.935387 262.827312,864.903965 262.777181,866.178711 L268.481283,866.178711 L268.481283,865.867188 C268.423991,863.475248 267.521656,862.279297 265.774251,862.279297 Z M277.603787,862.494141 C277.317327,862.44401 277.066679,862.418945 276.851834,862.418945 C276.192976,862.418945 275.639759,862.644529 275.192166,863.095703 C274.744573,863.546877 274.427681,864.173499 274.241482,864.975586 L274.241482,873 L273.0491,873 L273.0491,861.376953 L274.219998,861.376953 L274.241482,863.117188 C274.80724,861.813796 275.695252,861.162109 276.905545,861.162109 C277.220651,861.162109 277.460557,861.208658 277.625271,861.301758 L277.603787,862.494141 Z M284.169651,873.214844 C282.801805,873.214844 281.731178,872.767257 280.957737,871.87207 C280.184295,870.976884 279.790419,869.702157 279.776096,868.047852 L279.776096,866.629883 C279.776096,864.925447 280.148488,863.588058 280.893284,862.617676 C281.638079,861.647293 282.662157,861.162109 283.965549,861.162109 C285.225972,861.162109 286.187388,861.573889 286.849827,862.397461 C287.512265,863.221033 287.85064,864.481437 287.864963,866.178711 L287.864963,867.295898 L280.957737,867.295898 L280.957737,867.951172 C280.957737,869.28321 281.242402,870.310869 281.811741,871.03418 C282.381079,871.757491 283.184945,872.119141 284.223362,872.119141 C285.369201,872.119141 286.2966,871.7002 287.005588,870.862305 L287.628635,871.657227 C286.869517,872.695643 285.716533,873.214844 284.169651,873.214844 Z M283.965549,862.279297 C283.027393,862.279297 282.305884,862.610511 281.800998,863.272949 C281.296113,863.935387 281.018609,864.903965 280.968479,866.178711 L286.67258,866.178711 L286.67258,865.867188 C286.615288,863.475248 285.712954,862.279297 283.965549,862.279297 Z M67.3009981,898 L66.0763887,898 L66.0763887,882.359375 L67.3009981,882.359375 L67.3009981,898 Z M72.9430337,886.376953 L72.9752603,888.224609 C73.319012,887.594398 73.7576469,887.093101 74.2911782,886.720703 C74.8247095,886.348305 75.4316371,886.162109 76.111979,886.162109 C78.1386818,886.162109 79.1770829,887.512031 79.2272134,890.211914 L79.2272134,898 L78.0455728,898 L78.0455728,890.34082 C78.0384113,889.302404 77.8557959,888.536135 77.4977212,888.041992 C77.1396465,887.547849 76.5774776,887.300781 75.8111978,887.300781 C75.1881478,887.300781 74.6277693,887.535317 74.1300454,888.004395 C73.6323216,888.473472 73.2545584,889.116207 72.9967446,889.932617 L72.9967446,898 L71.8043618,898 L71.8043618,886.376953 L72.9430337,886.376953 Z M84.0206162,898 L84.0206162,887.451172 L82.4200302,887.451172 L82.4200302,886.376953 L84.0206162,886.376953 L84.0206162,884.851562 C84.0349392,883.698562 84.3017008,882.814131 84.8209091,882.198242 C85.3401175,881.582354 86.0580465,881.274414 86.9747177,881.274414 C87.3900844,881.274414 87.7732186,881.335286 88.1241318,881.457031 L88.0381943,882.552734 C87.7230886,882.473958 87.4008262,882.43457 87.0713974,882.43457 C86.4913164,882.43457 86.0383587,882.651202 85.7125107,883.084473 C85.3866627,883.517743 85.2237412,884.138993 85.2237412,884.948242 L85.2237412,886.376953 L87.5010849,886.376953 L87.5010849,887.451172 L85.2237412,887.451172 L85.2237412,898 L84.0206162,898 Z M90.2319877,891.597656 C90.2319877,889.921867 90.6115412,888.59701 91.3706596,887.623047 C92.129778,886.649084 93.1645983,886.162109 94.4751518,886.162109 C95.7928667,886.162109 96.8294774,886.641922 97.5850151,887.601562 C98.3405527,888.561203 98.7218965,889.882479 98.729058,891.56543 L98.729058,892.800781 C98.729058,894.505217 98.3477142,895.833654 97.5850151,896.786133 C96.8223159,897.738612 95.7928666,898.214844 94.4966362,898.214844 C93.2004057,898.214844 92.1727467,897.749354 91.4136283,896.818359 C90.65451,895.887365 90.2606337,894.605477 90.2319877,892.972656 L90.2319877,891.597656 Z M91.4351127,892.800781 C91.4351127,894.139981 91.7054551,895.192705 92.2461479,895.958984 C92.7868407,896.725264 93.5369959,897.108398 94.4966362,897.108398 C95.4777608,897.108398 96.2279161,896.739587 96.7471244,896.001953 C97.2663328,895.264319 97.5295137,894.208015 97.5366752,892.833008 L97.5366752,891.597656 C97.5366752,890.258457 97.2645425,889.203943 96.720269,888.434082 C96.1759954,887.664221 95.4276305,887.279297 94.4751518,887.279297 C93.551319,887.279297 92.8172769,887.65527 92.2730033,888.407227 C91.7287298,889.159183 91.4494357,890.194004 91.4351127,891.511719 L91.4351127,892.800781 Z M106.874023,887.494141 C106.587564,887.44401 106.336915,887.418945 106.12207,887.418945 C105.463213,887.418945 104.909996,887.644529 104.462402,888.095703 C104.014809,888.546877 103.697917,889.173499 103.511719,889.975586 L103.511719,898 L102.319336,898 L102.319336,886.376953 L103.490234,886.376953 L103.511719,888.117188 C104.077477,886.813796 104.965489,886.162109 106.175781,886.162109 C106.490887,886.162109 106.730793,886.208658 106.895508,886.301758 L106.874023,887.494141 Z M110.904731,886.376953 L110.936957,888.117188 C111.660268,886.813796 112.698669,886.162109 114.052192,886.162109 C115.548944,886.162109 116.515731,886.874667 116.952582,888.299805 C117.317819,887.590817 117.78868,887.057293 118.36518,886.699219 C118.94168,886.341144 119.570092,886.162109 120.250434,886.162109 C122.34159,886.162109 123.412218,887.50845 123.462348,890.201172 L123.462348,898 L122.269965,898 L122.269965,890.276367 C122.255642,889.273758 122.069446,888.527183 121.711371,888.036621 C121.353297,887.546059 120.766063,887.300781 119.949653,887.300781 C119.212019,887.315104 118.588978,887.60156 118.080512,888.160156 C117.572046,888.718753 117.28201,889.420569 117.210395,890.265625 L117.210395,898 L116.00727,898 L116.00727,890.308594 C116.00727,889.291662 115.819283,888.536135 115.443305,888.041992 C115.067327,887.547849 114.481883,887.300781 113.686957,887.300781 C113.035261,887.300781 112.471302,887.526365 111.995063,887.977539 C111.518823,888.428713 111.173287,889.073238 110.958442,889.911133 L110.958442,898 L109.766059,898 L109.766059,886.376953 L110.904731,886.376953 Z M133.562391,898 C133.454969,897.627602 133.383355,897.090498 133.347548,896.388672 C132.989473,896.968753 132.529354,897.41813 131.967177,897.736816 C131.404999,898.055503 130.794491,898.214844 130.135634,898.214844 C129.133024,898.214844 128.352433,897.931969 127.793837,897.366211 C127.23524,896.800453 126.955946,895.994797 126.955946,894.949219 C126.955946,893.810541 127.344451,892.908206 128.121473,892.242188 C128.898496,891.576169 129.970913,891.239583 131.338759,891.232422 L133.336805,891.232422 L133.336805,889.610352 C133.336805,888.779618 133.130916,888.183433 132.71913,887.821777 C132.307344,887.460122 131.703997,887.279297 130.909071,887.279297 C130.171437,887.279297 129.5663,887.494138 129.093641,887.923828 C128.620983,888.353518 128.384657,888.908525 128.384657,889.588867 L127.192274,889.578125 C127.192274,888.625646 127.550344,887.8182 128.266493,887.155762 C128.982642,886.493324 129.881396,886.162109 130.962782,886.162109 C132.130106,886.162109 133.014537,886.455726 133.616102,887.042969 C134.217668,887.630211 134.518446,888.485997 134.518446,889.610352 L134.518446,895.314453 C134.518446,896.453131 134.622286,897.305336 134.82997,897.871094 L134.82997,898 L133.562391,898 Z M130.286024,897.06543 C130.987851,897.06543 131.609101,896.882814 132.149794,896.517578 C132.690487,896.152342 133.086153,895.665368 133.336805,895.056641 L133.336805,892.231445 L131.44618,892.231445 C130.357633,892.245768 129.537655,892.487465 128.98622,892.956543 C128.434784,893.425621 128.159071,894.057613 128.159071,894.852539 C128.159071,896.327807 128.868048,897.06543 130.286024,897.06543 Z M140.407552,883.412109 L140.407552,886.376953 L142.394857,886.376953 L142.394857,887.451172 L140.407552,887.451172 L140.407552,895.174805 C140.407552,895.812178 140.50244,896.28662 140.69222,896.598145 C140.882,896.90967 141.198891,897.06543 141.642904,897.06543 C141.836264,897.06543 142.122719,897.029623 142.502279,896.958008 L142.534505,898.032227 C142.262368,898.153972 141.872073,898.214844 141.363607,898.214844 C139.967115,898.214844 139.250977,897.255218 139.215169,895.335938 L139.215169,887.451172 L137.421224,887.451172 L137.421224,886.376953 L139.215169,886.376953 L139.215169,883.412109 L140.407552,883.412109 Z M147.166775,898 L145.96365,898 L145.96365,886.376953 L147.166775,886.376953 L147.166775,898 Z M145.791775,883.025391 C145.791775,882.7819 145.859808,882.57422 145.995877,882.402344 C146.131945,882.230468 146.325302,882.144531 146.575955,882.144531 C146.826607,882.144531 147.021755,882.230468 147.161404,882.402344 C147.301053,882.57422 147.370877,882.7819 147.370877,883.025391 C147.370877,883.268881 147.301053,883.474771 147.161404,883.643066 C147.021755,883.811362 146.826607,883.895508 146.575955,883.895508 C146.325302,883.895508 146.131945,883.811362 145.995877,883.643066 C145.859808,883.474771 145.791775,883.268881 145.791775,883.025391 Z M150.853733,891.597656 C150.853733,889.921867 151.233286,888.59701 151.992404,887.623047 C152.751523,886.649084 153.786343,886.162109 155.096897,886.162109 C156.414612,886.162109 157.451222,886.641922 158.20676,887.601562 C158.962298,888.561203 159.343641,889.882479 159.350803,891.56543 L159.350803,892.800781 C159.350803,894.505217 158.969459,895.833654 158.20676,896.786133 C157.444061,897.738612 156.414611,898.214844 155.118381,898.214844 C153.822151,898.214844 152.794492,897.749354 152.035373,896.818359 C151.276255,895.887365 150.882379,894.605477 150.853733,892.972656 L150.853733,891.597656 Z M152.056858,892.800781 C152.056858,894.139981 152.3272,895.192705 152.867893,895.958984 C153.408586,896.725264 154.158741,897.108398 155.118381,897.108398 C156.099506,897.108398 156.849661,896.739587 157.368869,896.001953 C157.888078,895.264319 158.151259,894.208015 158.15842,892.833008 L158.15842,891.597656 C158.15842,890.258457 157.886287,889.203943 157.342014,888.434082 C156.79774,887.664221 156.049375,887.279297 155.096897,887.279297 C154.173064,887.279297 153.439022,887.65527 152.894748,888.407227 C152.350475,889.159183 152.071181,890.194004 152.056858,891.511719 L152.056858,892.800781 Z M164.079753,886.376953 L164.111979,888.224609 C164.455731,887.594398 164.894366,887.093101 165.427897,886.720703 C165.961428,886.348305 166.568356,886.162109 167.248698,886.162109 C169.275401,886.162109 170.313802,887.512031 170.363932,890.211914 L170.363932,898 L169.182292,898 L169.182292,890.34082 C169.17513,889.302404 168.992515,888.536135 168.63444,888.041992 C168.276365,887.547849 167.714196,887.300781 166.947917,887.300781 C166.324867,887.300781 165.764488,887.535317 165.266764,888.004395 C164.76904,888.473472 164.391277,889.116207 164.133464,889.932617 L164.133464,898 L162.941081,898 L162.941081,886.376953 L164.079753,886.376953 Z M178.208116,898.214844 C176.840271,898.214844 175.769644,897.767257 174.996202,896.87207 C174.222761,895.976884 173.828885,894.702157 173.814562,893.047852 L173.814562,891.629883 C173.814562,889.925447 174.186954,888.588058 174.931749,887.617676 C175.676544,886.647293 176.700623,886.162109 178.004015,886.162109 C179.264438,886.162109 180.225854,886.573889 180.888292,887.397461 C181.55073,888.221033 181.889106,889.481437 181.903429,891.178711 L181.903429,892.295898 L174.996202,892.295898 L174.996202,892.951172 C174.996202,894.28321 175.280867,895.310869 175.850206,896.03418 C176.419545,896.757491 177.223411,897.119141 178.261827,897.119141 C179.407666,897.119141 180.335066,896.7002 181.044054,895.862305 L181.667101,896.657227 C180.907982,897.695643 179.754999,898.214844 178.208116,898.214844 Z M178.004015,887.279297 C177.065859,887.279297 176.344349,887.610511 175.839464,888.272949 C175.334579,888.935387 175.057075,889.903965 175.006944,891.178711 L180.711046,891.178711 L180.711046,890.867188 C180.653754,888.475248 179.751419,887.279297 178.004015,887.279297 Z M186.417535,886.376953 L186.449761,888.224609 C186.793513,887.594398 187.232148,887.093101 187.765679,886.720703 C188.299211,886.348305 188.906138,886.162109 189.58648,886.162109 C191.613183,886.162109 192.651584,887.512031 192.701714,890.211914 L192.701714,898 L191.520074,898 L191.520074,890.34082 C191.512912,889.302404 191.330297,888.536135 190.972222,888.041992 C190.614148,887.547849 190.051979,887.300781 189.285699,887.300781 C188.662649,887.300781 188.10227,887.535317 187.604546,888.004395 C187.106823,888.473472 186.729059,889.116207 186.471246,889.932617 L186.471246,898 L185.278863,898 L185.278863,886.376953 L186.417535,886.376953 Z M203.31977,896.893555 L209.593207,896.893555 L209.593207,898 L201.901801,898 L201.901801,897.033203 L207.777778,887.504883 L202.062934,887.504883 L202.062934,886.376953 L209.227973,886.376953 L209.227973,887.354492 L203.31977,896.893555 Z M219.016493,896.614258 C218.357636,897.68132 217.337138,898.214844 215.95497,898.214844 C214.90223,898.214844 214.107316,897.849613 213.570204,897.119141 C213.033092,896.388668 212.760959,895.31446 212.753798,893.896484 L212.753798,886.376953 L213.935438,886.376953 L213.935438,893.864258 C213.935438,894.916997 214.121634,895.715492 214.494032,896.259766 C214.86643,896.804039 215.403534,897.076172 216.10536,897.076172 C217.609274,897.076172 218.572481,896.34571 218.995009,894.884766 L218.995009,886.376953 L220.198134,886.376953 L220.198134,898 L219.037977,898 L219.016493,896.614258 Z M233.834744,898.214844 C232.466899,898.214844 231.396271,897.767257 230.62283,896.87207 C229.849389,895.976884 229.455512,894.702157 229.441189,893.047852 L229.441189,891.629883 C229.441189,889.925447 229.813581,888.588058 230.558377,887.617676 C231.303172,886.647293 232.32725,886.162109 233.630642,886.162109 C234.891065,886.162109 235.852482,886.573889 236.51492,887.397461 C237.177358,888.221033 237.515733,889.481437 237.530056,891.178711 L237.530056,892.295898 L230.62283,892.295898 L230.62283,892.951172 C230.62283,894.28321 230.907495,895.310869 231.476834,896.03418 C232.046173,896.757491 232.850038,897.119141 233.888455,897.119141 C235.034294,897.119141 235.961694,896.7002 236.670681,895.862305 L237.293728,896.657227 C236.53461,897.695643 235.381627,898.214844 233.834744,898.214844 Z M233.630642,887.279297 C232.692487,887.279297 231.970977,887.610511 231.466092,888.272949 C230.961206,888.935387 230.683703,889.903965 230.633572,891.178711 L236.337674,891.178711 L236.337674,890.867188 C236.280382,888.475248 235.378047,887.279297 233.630642,887.279297 Z M245.460178,887.494141 C245.173718,887.44401 244.92307,887.418945 244.708225,887.418945 C244.049367,887.418945 243.49615,887.644529 243.048557,888.095703 C242.600964,888.546877 242.284072,889.173499 242.097873,889.975586 L242.097873,898 L240.905491,898 L240.905491,886.376953 L242.076389,886.376953 L242.097873,888.117188 C242.663631,886.813796 243.551643,886.162109 244.761936,886.162109 C245.077042,886.162109 245.316948,886.208658 245.481662,886.301758 L245.460178,887.494141 Z M249.587565,888.203125 C249.931317,887.580075 250.366371,887.084149 250.892741,886.715332 C251.419111,886.346515 252.022458,886.162109 252.7028,886.162109 C254.729502,886.162109 255.767903,887.512031 255.818034,890.211914 L255.818034,898 L254.636393,898 L254.636393,890.34082 C254.629232,889.302404 254.446616,888.536135 254.088542,888.041992 C253.730467,887.547849 253.168298,887.300781 252.402018,887.300781 C251.778968,887.300781 251.21859,887.535317 250.720866,888.004395 C250.223142,888.473472 249.845379,889.116207 249.587565,889.932617 L249.587565,898 L248.395182,898 L248.395182,881.5 L249.587565,881.5 L249.587565,888.203125 Z M265.961046,898 C265.853624,897.627602 265.78201,897.090498 265.746202,896.388672 C265.388128,896.968753 264.928009,897.41813 264.365831,897.736816 C263.803654,898.055503 263.193146,898.214844 262.534288,898.214844 C261.531679,898.214844 260.751088,897.931969 260.192491,897.366211 C259.633895,896.800453 259.354601,895.994797 259.354601,894.949219 C259.354601,893.810541 259.743106,892.908206 260.520128,892.242188 C261.29715,891.576169 262.369568,891.239583 263.737413,891.232422 L265.73546,891.232422 L265.73546,889.610352 C265.73546,888.779618 265.52957,888.183433 265.117784,887.821777 C264.705998,887.460122 264.102652,887.279297 263.307726,887.279297 C262.570092,887.279297 261.964955,887.494138 261.492296,887.923828 C261.019637,888.353518 260.783312,888.908525 260.783312,889.588867 L259.590929,889.578125 C259.590929,888.625646 259.948998,887.8182 260.665148,887.155762 C261.381297,886.493324 262.280051,886.162109 263.361437,886.162109 C264.52876,886.162109 265.413192,886.455726 266.014757,887.042969 C266.616323,887.630211 266.917101,888.485997 266.917101,889.610352 L266.917101,895.314453 C266.917101,896.453131 267.020941,897.305336 267.228624,897.871094 L267.228624,898 L265.961046,898 Z M262.684679,897.06543 C263.386505,897.06543 264.007756,896.882814 264.548448,896.517578 C265.089141,896.152342 265.484808,895.665368 265.73546,895.056641 L265.73546,892.231445 L263.844835,892.231445 C262.756288,892.245768 261.936309,892.487465 261.384874,892.956543 C260.833439,893.425621 260.557726,894.057613 260.557726,894.852539 C260.557726,896.327807 261.266703,897.06543 262.684679,897.06543 Z M272.344293,898 L271.141168,898 L271.141168,881.5 L272.344293,881.5 L272.344293,898 Z M278.276367,883.412109 L278.276367,886.376953 L280.263672,886.376953 L280.263672,887.451172 L278.276367,887.451172 L278.276367,895.174805 C278.276367,895.812178 278.371256,896.28662 278.561035,896.598145 C278.750815,896.90967 279.067706,897.06543 279.511719,897.06543 C279.705079,897.06543 279.991535,897.029623 280.371094,896.958008 L280.40332,898.032227 C280.131184,898.153972 279.740888,898.214844 279.232422,898.214844 C277.835931,898.214844 277.119792,897.255218 277.083984,895.335938 L277.083984,887.451172 L275.290039,887.451172 L275.290039,886.376953 L277.083984,886.376953 L277.083984,883.412109 L278.276367,883.412109 Z M287.53852,898.214844 C286.170675,898.214844 285.100047,897.767257 284.326606,896.87207 C283.553165,895.976884 283.159288,894.702157 283.144965,893.047852 L283.144965,891.629883 C283.144965,889.925447 283.517358,888.588058 284.262153,887.617676 C285.006948,886.647293 286.031027,886.162109 287.334419,886.162109 C288.594842,886.162109 289.556258,886.573889 290.218696,887.397461 C290.881134,888.221033 291.21951,889.481437 291.233833,891.178711 L291.233833,892.295898 L284.326606,892.295898 L284.326606,892.951172 C284.326606,894.28321 284.611271,895.310869 285.18061,896.03418 C285.749949,896.757491 286.553814,897.119141 287.592231,897.119141 C288.73807,897.119141 289.66547,896.7002 290.374458,895.862305 L290.997504,896.657227 C290.238386,897.695643 289.085403,898.214844 287.53852,898.214844 Z M287.334419,887.279297 C286.396263,887.279297 285.674753,887.610511 285.169868,888.272949 C284.664982,888.935387 284.387479,889.903965 284.337348,891.178711 L290.04145,891.178711 L290.04145,890.867188 C289.984158,888.475248 289.081823,887.279297 287.334419,887.279297 Z M295.747939,886.376953 L295.780165,888.224609 C296.123917,887.594398 296.562552,887.093101 297.096083,886.720703 C297.629614,886.348305 298.236542,886.162109 298.916884,886.162109 C300.943587,886.162109 301.981988,887.512031 302.032118,890.211914 L302.032118,898 L300.850478,898 L300.850478,890.34082 C300.843316,889.302404 300.660701,888.536135 300.302626,888.041992 C299.944551,887.547849 299.382382,887.300781 298.616103,887.300781 C297.993053,887.300781 297.432674,887.535317 296.93495,888.004395 C296.437226,888.473472 296.059463,889.116207 295.801649,889.932617 L295.801649,898 L294.609267,898 L294.609267,886.376953 L295.747939,886.376953 Z M307.341146,893.638672 L306.234701,893.638672 L306.170248,882.359375 L307.416341,882.359375 L307.341146,893.638672 Z M306.052083,897.237305 C306.052083,896.986652 306.121907,896.777182 306.261556,896.608887 C306.401205,896.440592 306.596353,896.356445 306.847005,896.356445 C307.097658,896.356445 307.292805,896.440592 307.432455,896.608887 C307.572104,896.777182 307.641927,896.986652 307.641927,897.237305 C307.641927,897.480795 307.572104,897.683105 307.432455,897.844238 C307.292805,898.005372 307.097658,898.085938 306.847005,898.085938 C306.596353,898.085938 306.401205,898.005372 306.261556,897.844238 C306.121907,897.683105 306.052083,897.480795 306.052083,897.237305 Z" id="Füllen-sie-die-unten-Copy" fill="#FFFFFF"></path>
    </g>
</svg>