<?xml version="1.0" encoding="UTF-8"?>
<svg width="307px" height="38px" viewBox="0 0 307 38" version="1.1" xmlns="http://www.w3.org/2000/svg" xmlns:xlink="http://www.w3.org/1999/xlink">
    <!-- Generator: Sketch 48.2 (47327) - http://www.bohemiancoding.com/sketch -->
    <title>COMING SOON!</title>
    <desc>Created with Sketch.</desc>
    <defs></defs>
    <g id="MyRide-Copy-3" stroke="none" stroke-width="1" fill="none" fill-rule="evenodd" transform="translate(-99.000000, -131.000000)">
        <path d="M125.872,145.68 C125.487998,145.68 125.152001,145.552001 124.864,145.296 C124.575999,145.039999 124.432,144.704002 124.432,144.288 C124.432,144.095999 124.416,143.872001 124.384,143.616 C124.32,143.199998 124.224001,142.624004 124.096,141.888 C123.647998,140.063991 122.832006,138.576006 121.648,137.424 C119.791991,135.535991 117.104018,134.592 113.584,134.592 C111.055987,134.592 109.064007,135.039996 107.608,135.936 C106.151993,136.832004 105.056004,138.015993 104.32,139.488 C103.583996,140.960007 103.120001,142.615991 102.928,144.456 C102.735999,146.296009 102.64,148.143991 102.64,150 C102.64,150.640003 102.648,151.359996 102.664,152.16 C102.68,152.960004 102.736,153.799996 102.832,154.68 C102.928,155.560004 103.071999,156.447996 103.264,157.344 C103.456001,158.240004 103.727998,159.103996 104.08,159.936 C105.680008,163.584018 108.847976,165.408 113.584,165.408 C118.192023,165.408 121.359991,163.776016 123.088,160.512 C123.408002,159.903997 123.663999,159.296003 123.856,158.688 C124.048001,158.079997 124.184,157.544002 124.264,157.08 C124.344,156.615998 124.392,156.240001 124.408,155.952 L124.432,155.52 C124.432,155.135998 124.575999,154.816001 124.864,154.56 C125.152001,154.303999 125.487998,154.176 125.872,154.176 C126.256002,154.176 126.575999,154.303999 126.832,154.56 C127.088001,154.816001 127.216,155.135998 127.216,155.52 C127.216,155.552 127.208,155.751998 127.192,156.12 C127.176,156.488002 127.112001,156.967997 127,157.56 C126.887999,158.152003 126.720001,158.823996 126.496,159.576 C126.271999,160.328004 125.952002,161.087996 125.536,161.856 C125.151998,162.592004 124.640003,163.327996 124,164.064 C123.359997,164.800004 122.560005,165.479997 121.6,166.104 C120.639995,166.728003 119.504007,167.231998 118.192,167.616 C116.879993,168.000002 115.344009,168.192 113.584,168.192 C110.415984,168.192 107.80801,167.520007 105.76,166.176 C103.999991,164.927994 102.592005,163.216011 101.536,161.04 C101.119998,160.079995 100.800001,159.096005 100.576,158.088 C100.351999,157.079995 100.184001,156.088005 100.072,155.112 C99.9599994,154.135995 99.8960001,153.208004 99.88,152.328 C99.8639999,151.447996 99.856,150.672003 99.856,150 C99.856,149.263996 99.8639999,148.448004 99.88,147.552 C99.8960001,146.655996 99.9519995,145.728005 100.048,144.768 C100.144,143.807995 100.303999,142.832005 100.528,141.84 C100.752001,140.847995 101.071998,139.888005 101.488,138.96 C102.000003,137.839994 102.607996,136.864004 103.312,136.032 C104.016004,135.199996 104.815996,134.464003 105.712,133.824 C107.76001,132.479993 110.383984,131.808 113.584,131.808 C117.872021,131.808 121.231988,133.023988 123.664,135.456 C124.528004,136.352004 125.199998,137.295995 125.68,138.288 C126.160002,139.280005 126.511999,140.207996 126.736,141.072 C126.960001,141.936004 127.096,142.663997 127.144,143.256 C127.192,143.848003 127.216,144.192 127.216,144.288 L127.216,144.336 C127.216,144.720002 127.088001,145.039999 126.832,145.296 C126.575999,145.552001 126.256002,145.68 125.872,145.68 Z M146.132667,168.144 C141.524644,168.144 138.100678,166.736014 135.860667,163.92 C133.428655,161.007985 132.212667,156.368032 132.212667,150 C132.212667,148.367992 132.284666,146.880007 132.428667,145.536 C132.572667,144.191993 132.772665,142.944006 133.028667,141.792 C133.572669,139.359988 134.420661,137.456007 135.572667,136.08 C136.756673,134.639993 138.260658,133.552004 140.084667,132.816 C141.684675,132.175997 143.700655,131.856 146.132667,131.856 C147.316673,131.856 148.420662,131.943999 149.444667,132.12 C150.468672,132.296001 151.396663,132.591998 152.228667,133.008 C153.988675,133.712004 155.49266,134.863992 156.740667,136.464 C158.884677,139.408015 159.956667,143.91997 159.956667,150 C159.956667,152.912015 159.684669,155.535988 159.140667,157.872 C158.852665,158.992006 158.484669,160.031995 158.036667,160.992 C157.588664,161.952005 157.04467,162.815996 156.404667,163.584 C154.100655,166.624015 150.676689,168.144 146.132667,168.144 Z M146.132667,134.64 C142.132647,134.64 139.316675,135.695989 137.684667,137.808 C135.860658,140.208012 134.948667,144.271971 134.948667,150 C134.948667,152.912015 135.196664,155.35999 135.692667,157.344 C136.188669,159.32801 136.916662,160.943994 137.876667,162.192 C139.572675,164.304011 142.324648,165.36 146.132667,165.36 C149.812685,165.36 152.548658,164.176012 154.340667,161.808 C155.268671,160.527994 155.980664,158.90401 156.476667,156.936 C156.972669,154.96799 157.220667,152.656013 157.220667,150 C157.220667,144.591973 156.340675,140.656012 154.580667,138.192 C152.820658,135.823988 150.004686,134.64 146.132667,134.64 Z M193.705333,168 C193.321331,168 193.001335,167.872001 192.745333,167.616 C192.489332,167.359999 192.361333,167.040002 192.361333,166.656 L192.361333,138.192 L181.177333,156.288 C180.857332,156.704002 180.457336,156.912 179.977333,156.912 C179.465331,156.912 179.081335,156.704002 178.825333,156.288 L167.737333,138.192 L167.737333,166.656 C167.737333,167.040002 167.609335,167.359999 167.353333,167.616 C167.097332,167.872001 166.777335,168 166.393333,168 C166.009331,168 165.681335,167.872001 165.409333,167.616 C165.137332,167.359999 165.001333,167.040002 165.001333,166.656 L165.001333,133.344 C165.001333,133.055999 165.089333,132.784001 165.265333,132.528 C165.441334,132.271999 165.689332,132.112 166.009333,132.048 C166.297335,131.952 166.585332,131.959999 166.873333,132.072 C167.161335,132.184001 167.385333,132.367999 167.545333,132.624 L179.977333,152.928 L192.553333,132.624 C192.713334,132.367999 192.937332,132.184001 193.225333,132.072 C193.513335,131.959999 193.801332,131.952 194.089333,132.048 C194.409335,132.112 194.657333,132.271999 194.833333,132.528 C195.009334,132.784001 195.097333,133.055999 195.097333,133.344 L195.097333,166.656 C195.097333,167.040002 194.961335,167.359999 194.689333,167.616 C194.417332,167.872001 194.089335,168 193.705333,168 Z M201.438,168 C201.053998,168 200.726001,167.872001 200.454,167.616 C200.181999,167.359999 200.046,167.024002 200.046,166.608 L200.046,133.392 C200.046,132.975998 200.181999,132.640001 200.454,132.384 C200.726001,132.127999 201.053998,132 201.438,132 C201.790002,132 202.101999,132.127999 202.374,132.384 C202.646001,132.640001 202.782,132.975998 202.782,133.392 L202.782,166.608 C202.782,167.024002 202.646001,167.359999 202.374,167.616 C202.101999,167.872001 201.790002,168 201.438,168 Z M233.794667,168 C233.282664,168 232.914668,167.792002 232.690667,167.376 L222.994667,153.264 C222.802666,152.943998 222.738666,152.600002 222.802667,152.232 C222.866667,151.863998 223.058665,151.584001 223.378667,151.392 C223.666668,151.135999 224.002665,151.04 224.386667,151.104 C224.770669,151.168 225.058666,151.375998 225.250667,151.728 L232.450667,162.192 L232.450667,133.392 C232.450667,133.007998 232.586665,132.680001 232.858667,132.408 C233.130668,132.135999 233.442665,132 233.794667,132 C234.178669,132 234.506665,132.135999 234.778667,132.408 C235.050668,132.680001 235.186667,133.007998 235.186667,133.392 L235.186667,166.608 C235.186667,167.280003 234.86667,167.727999 234.226667,167.952 C234.162666,167.952 234.090667,167.96 234.010667,167.976 C233.930666,167.992 233.858667,168 233.794667,168 Z M211.042667,168 C210.658665,168 210.330668,167.864001 210.058667,167.592 C209.786665,167.319999 209.650667,166.992002 209.650667,166.608 L209.650667,133.392 C209.650667,132.719997 209.970664,132.272001 210.610667,132.048 C210.898668,131.984 211.186665,132 211.474667,132.096 C211.762668,132.192 211.986666,132.367999 212.146667,132.624 L221.938667,146.832 C222.130668,147.152002 222.194667,147.495998 222.130667,147.864 C222.066666,148.232002 221.890668,148.527999 221.602667,148.752 C221.282665,148.976001 220.938669,149.056 220.570667,148.992 C220.202665,148.928 219.906668,148.720002 219.682667,148.368 L212.386667,137.808 L212.386667,166.608 C212.386667,166.992002 212.258668,167.319999 212.002667,167.592 C211.746666,167.864001 211.426669,168 211.042667,168 Z M266.727333,168 C266.343332,168 266.015335,167.864001 265.743334,167.592 C265.471332,167.319999 265.335333,167.008002 265.335333,166.656 L265.335333,156.864 L257.655333,156.864 C257.271332,156.864 256.935335,156.736001 256.647334,156.48 C256.359332,156.223999 256.215334,155.904002 256.215334,155.52 C256.215334,155.135998 256.359332,154.816001 256.647334,154.56 C256.935335,154.303999 257.271332,154.176 257.655333,154.176 L266.727333,154.176 C267.079335,154.176 267.391332,154.303999 267.663334,154.56 C267.935335,154.816001 268.071334,155.135998 268.071334,155.52 L268.071334,166.656 C268.071334,167.008002 267.935335,167.319999 267.663334,167.592 C267.391332,167.864001 267.079335,168 266.727333,168 Z M263.079333,135.504 C263.943338,136.400004 264.615331,137.335995 265.095334,138.312 C265.575336,139.288005 265.927332,140.207996 266.151333,141.072 C266.375335,141.936004 266.511333,142.663997 266.559333,143.256 C266.607334,143.848003 266.631333,144.207999 266.631333,144.336 L266.631333,144.384 C266.631333,144.736002 266.495335,145.039999 266.223333,145.296 C265.951332,145.552001 265.623335,145.68 265.239334,145.68 C264.887332,145.68 264.575335,145.544001 264.303334,145.272 C264.031332,144.999999 263.895333,144.688002 263.895333,144.336 C263.895333,144.111999 263.879334,143.872001 263.847333,143.616 C263.783333,143.199998 263.687334,142.624004 263.559333,141.888 C263.303332,140.991996 262.959336,140.168004 262.527333,139.416 C262.095331,138.663996 261.607336,138.000003 261.063333,137.424 C259.239324,135.535991 256.567351,134.592 253.047333,134.592 C250.519321,134.592 248.527341,135.047995 247.071333,135.96 C245.615326,136.872005 244.519337,138.055993 243.783333,139.512 C243.04733,140.968007 242.583334,142.615991 242.391333,144.456 C242.199333,146.296009 242.103333,148.143991 242.103333,150 C242.103333,150.608003 242.111333,151.311996 242.127333,152.112 C242.143334,152.912004 242.199333,153.751996 242.295333,154.632 C242.391334,155.512004 242.535333,156.407995 242.727333,157.32 C242.919334,158.232005 243.191332,159.103996 243.543333,159.936 C244.375338,161.760009 245.567326,163.127995 247.119333,164.04 C248.671341,164.952005 250.647321,165.408 253.047333,165.408 C256.43935,165.408 259.047324,164.496009 260.871333,162.672 C261.159335,162.383999 261.479332,162.24 261.831334,162.24 C262.215335,162.24 262.543332,162.375999 262.815333,162.648 C263.087335,162.920001 263.223333,163.247998 263.223333,163.632 C263.223333,163.984002 263.095335,164.319998 262.839333,164.64 C261.815328,165.632005 260.527341,166.463997 258.975334,167.136 C257.423326,167.808003 255.447345,168.144 253.047333,168.144 C249.879318,168.144 247.287344,167.472007 245.271333,166.128 C243.351324,164.847994 241.943338,163.152011 241.047333,161.04 C240.631331,160.079995 240.311335,159.088005 240.087333,158.064 C239.863332,157.039995 239.695334,156.048005 239.583333,155.088 C239.471333,154.127995 239.407334,153.208004 239.391333,152.328 C239.375333,151.447996 239.367333,150.672003 239.367333,150 C239.367333,149.295996 239.375333,148.496004 239.391333,147.6 C239.407334,146.703996 239.463333,145.776005 239.559333,144.816 C239.655334,143.855995 239.815332,142.880005 240.039333,141.888 C240.263335,140.895995 240.583331,139.920005 240.999333,138.96 C241.895338,136.847989 243.287324,135.168006 245.175333,133.92 C247.287344,132.543993 249.911318,131.856 253.047333,131.856 C257.303355,131.856 260.647321,133.071988 263.079333,135.504 Z M301.176667,141.6 L301.152667,141.6 L301.176667,141.6 Z M301.176667,141.6 L301.200667,141.6 L301.176667,141.264 C301.160667,141.039999 301.112667,140.760002 301.032667,140.424 C300.952666,140.087998 300.848668,139.712002 300.720667,139.296 C300.592666,138.879998 300.400668,138.448002 300.144667,138 C298.864661,135.727989 296.624683,134.592 293.424667,134.592 C291.824659,134.592 290.528672,134.807998 289.536667,135.24 C288.544662,135.672002 287.76867,136.223997 287.208667,136.896 C286.648664,137.568003 286.264668,138.319996 286.056667,139.152 C285.848666,139.984004 285.744667,140.783996 285.744667,141.552 C285.744667,142.256004 285.824666,142.983996 285.984667,143.736 C286.144668,144.488004 286.440665,145.191997 286.872667,145.848 C287.304669,146.504003 287.904663,147.071998 288.672667,147.552 C289.440671,148.032002 290.448661,148.351999 291.696667,148.512 C292.048669,148.576 292.344666,148.759998 292.584667,149.064 C292.824668,149.368002 292.912667,149.695998 292.848667,150.048 C292.784667,150.400002 292.632668,150.687999 292.392667,150.912 C292.152666,151.136001 291.856669,151.248 291.504667,151.248 C291.408666,151.248 291.344667,151.232 291.312667,151.2 C289.392657,151.007999 287.808673,150.432005 286.560667,149.472 C285.408661,148.639996 284.56067,147.616006 284.016667,146.4 C283.760666,145.887997 283.560668,145.384002 283.416667,144.888 C283.272666,144.391998 283.168667,143.928002 283.104667,143.496 C283.040667,143.063998 283.000667,142.680002 282.984667,142.344 C282.968667,142.007998 282.960667,141.744001 282.960667,141.552 C282.960667,141.391999 282.968667,141.128002 282.984667,140.76 C283.000667,140.391998 283.040667,139.968002 283.104667,139.488 C283.232668,138.879997 283.384666,138.304003 283.560667,137.76 C283.736668,137.215997 283.984665,136.688003 284.304667,136.176 C285.040671,134.927994 286.12866,133.904004 287.568667,133.104 C288.336671,132.719998 289.216662,132.416001 290.208667,132.192 C291.200672,131.967999 292.272661,131.856 293.424667,131.856 C294.768674,131.856 295.936662,132.007998 296.928667,132.312 C297.920672,132.616002 298.784663,132.999998 299.520667,133.464 C300.256671,133.928002 300.872664,134.447997 301.368667,135.024 C301.864669,135.600003 302.272665,136.159997 302.592667,136.704 C303.20067,137.824006 303.576666,138.847995 303.720667,139.776 C303.864668,140.704005 303.936667,141.279999 303.936667,141.504 L303.936667,141.552 C303.936667,141.936002 303.800668,142.263999 303.528667,142.536 C303.256666,142.808001 302.944669,142.944 302.592667,142.944 C302.208665,142.944 301.880668,142.816001 301.608667,142.56 C301.336666,142.303999 301.200667,141.984002 301.200667,141.6 L301.176667,141.6 Z M303.024667,153.936 C303.472669,154.960005 303.736667,155.927995 303.816667,156.84 C303.896667,157.752005 303.936667,158.399998 303.936667,158.784 C303.936667,159.232002 303.880667,159.951995 303.768667,160.944 C303.656666,161.936005 303.28067,162.975995 302.640667,164.064 C302.224665,164.704003 301.73667,165.263998 301.176667,165.744 C300.616664,166.224002 299.98467,166.639998 299.280667,166.992 C298.544663,167.344002 297.680672,167.623999 296.688667,167.832 C295.696662,168.040001 294.624673,168.144 293.472667,168.144 C292.12866,168.144 290.952672,168.000001 289.944667,167.712 C288.936662,167.423999 288.064671,167.056002 287.328667,166.608 C286.592663,166.159998 285.976669,165.664003 285.480667,165.12 C284.984664,164.575997 284.592668,164.032003 284.304667,163.488 C283.984665,162.911997 283.736668,162.344003 283.560667,161.784 C283.384666,161.223997 283.248667,160.728002 283.152667,160.296 C283.056666,159.863998 283.000667,159.512001 282.984667,159.24 C282.968667,158.967999 282.960667,158.816 282.960667,158.784 C282.960667,158.399998 283.096666,158.064001 283.368667,157.776 C283.640668,157.487999 283.968665,157.344 284.352667,157.344 C284.704669,157.344 285.024665,157.487999 285.312667,157.776 C285.600668,158.064001 285.744667,158.399998 285.744667,158.784 C285.744667,158.816 285.784667,159.175997 285.864667,159.864 C285.944667,160.552003 286.224665,161.311996 286.704667,162.144 C287.984673,164.320011 290.240651,165.408 293.472667,165.408 C298.592692,165.408 301.152667,163.200022 301.152667,158.784 C301.152667,154.655979 299.360685,152.256003 295.776667,151.584 C295.392665,151.52 295.096668,151.328002 294.888667,151.008 C294.680666,150.687998 294.624666,150.336002 294.720667,149.952 C294.784667,149.567998 294.968665,149.280001 295.272667,149.088 C295.576668,148.895999 295.936665,148.832 296.352667,148.896 C298.080676,149.184001 299.520661,149.839995 300.672667,150.864 C301.696672,151.664004 302.480664,152.687994 303.024667,153.936 Z M321.605334,168.144 C316.997311,168.144 313.573345,166.736014 311.333334,163.92 C308.901321,161.007985 307.685334,156.368032 307.685334,150 C307.685334,148.367992 307.757333,146.880007 307.901334,145.536 C308.045334,144.191993 308.245332,142.944006 308.501334,141.792 C309.045336,139.359988 309.893328,137.456007 311.045334,136.08 C312.22934,134.639993 313.733324,133.552004 315.557334,132.816 C317.157342,132.175997 319.173321,131.856 321.605334,131.856 C322.78934,131.856 323.893328,131.943999 324.917334,132.12 C325.941339,132.296001 326.869329,132.591998 327.701334,133.008 C329.461342,133.712004 330.965327,134.863992 332.213334,136.464 C334.357344,139.408015 335.429334,143.91997 335.429334,150 C335.429334,152.912015 335.157336,155.535988 334.613334,157.872 C334.325332,158.992006 333.957336,160.031995 333.509334,160.992 C333.061331,161.952005 332.517337,162.815996 331.877334,163.584 C329.573322,166.624015 326.149356,168.144 321.605334,168.144 Z M321.605334,134.64 C317.605314,134.64 314.789342,135.695989 313.157334,137.808 C311.333324,140.208012 310.421334,144.271971 310.421334,150 C310.421334,152.912015 310.669331,155.35999 311.165334,157.344 C311.661336,159.32801 312.389329,160.943994 313.349334,162.192 C315.045342,164.304011 317.797315,165.36 321.605334,165.36 C325.285352,165.36 328.021325,164.176012 329.813334,161.808 C330.741338,160.527994 331.453331,158.90401 331.949334,156.936 C332.445336,154.96799 332.693334,152.656013 332.693334,150 C332.693334,144.591973 331.813342,140.656012 330.053334,138.192 C328.293325,135.823988 325.477353,134.64 321.605334,134.64 Z M352.954,168.144 C348.345977,168.144 344.922011,166.736014 342.682,163.92 C340.249988,161.007985 339.034,156.368032 339.034,150 C339.034,148.367992 339.106,146.880007 339.25,145.536 C339.394001,144.191993 339.593999,142.944006 339.85,141.792 C340.394003,139.359988 341.241995,137.456007 342.394,136.08 C343.578006,134.639993 345.081991,133.552004 346.906,132.816 C348.506008,132.175997 350.521988,131.856 352.954,131.856 C354.138006,131.856 355.241995,131.943999 356.266,132.12 C357.290005,132.296001 358.217996,132.591998 359.05,133.008 C360.810009,133.712004 362.313994,134.863992 363.562,136.464 C365.706011,139.408015 366.778,143.91997 366.778,150 C366.778,152.912015 366.506003,155.535988 365.962,157.872 C365.673999,158.992006 365.306003,160.031995 364.858,160.992 C364.409998,161.952005 363.866003,162.815996 363.226,163.584 C360.921989,166.624015 357.498023,168.144 352.954,168.144 Z M352.954,134.64 C348.95398,134.64 346.138008,135.695989 344.506,137.808 C342.681991,140.208012 341.77,144.271971 341.77,150 C341.77,152.912015 342.017998,155.35999 342.514,157.344 C343.010003,159.32801 343.737996,160.943994 344.698,162.192 C346.394009,164.304011 349.145981,165.36 352.954,165.36 C356.634019,165.36 359.369991,164.176012 361.162,161.808 C362.090005,160.527994 362.801998,158.90401 363.298,156.936 C363.794003,154.96799 364.042,152.656013 364.042,150 C364.042,144.591973 363.162009,140.656012 361.402,138.192 C359.641992,135.823988 356.82602,134.64 352.954,134.64 Z M395.822667,168 C395.310664,168 394.942668,167.792002 394.718667,167.376 L385.022667,153.264 C384.830666,152.943998 384.766667,152.600002 384.830667,152.232 C384.894667,151.863998 385.086665,151.584001 385.406667,151.392 C385.694668,151.135999 386.030665,151.04 386.414667,151.104 C386.798669,151.168 387.086666,151.375998 387.278667,151.728 L394.478667,162.192 L394.478667,133.392 C394.478667,133.007998 394.614666,132.680001 394.886667,132.408 C395.158668,132.135999 395.470665,132 395.822667,132 C396.206669,132 396.534666,132.135999 396.806667,132.408 C397.078668,132.680001 397.214667,133.007998 397.214667,133.392 L397.214667,166.608 C397.214667,167.280003 396.89467,167.727999 396.254667,167.952 C396.190667,167.952 396.118667,167.96 396.038667,167.976 C395.958667,167.992 395.886667,168 395.822667,168 Z M373.070667,168 C372.686665,168 372.358668,167.864001 372.086667,167.592 C371.814666,167.319999 371.678667,166.992002 371.678667,166.608 L371.678667,133.392 C371.678667,132.719997 371.998664,132.272001 372.638667,132.048 C372.926668,131.984 373.214666,132 373.502667,132.096 C373.790668,132.192 374.014666,132.367999 374.174667,132.624 L383.966667,146.832 C384.158668,147.152002 384.222667,147.495998 384.158667,147.864 C384.094667,148.232002 383.918668,148.527999 383.630667,148.752 C383.310665,148.976001 382.966669,149.056 382.598667,148.992 C382.230665,148.928 381.934668,148.720002 381.710667,148.368 L374.414667,137.808 L374.414667,166.608 C374.414667,166.992002 374.286668,167.319999 374.030667,167.592 C373.774666,167.864001 373.454669,168 373.070667,168 Z M403.891334,162.912 C403.507332,162.912 403.187335,162.776001 402.931334,162.504 C402.675332,162.231999 402.547334,161.904002 402.547334,161.52 L402.547334,133.392 C402.547334,132.975998 402.675332,132.640001 402.931334,132.384 C403.187335,132.127999 403.507332,132 403.891334,132 C404.243335,132 404.563332,132.127999 404.851334,132.384 C405.139335,132.640001 405.283334,132.975998 405.283334,133.392 L405.283334,161.52 C405.283334,161.904002 405.139335,162.231999 404.851334,162.504 C404.563332,162.776001 404.243335,162.912 403.891334,162.912 Z M405.187334,166.608 C405.187334,167.024002 405.051335,167.359999 404.779334,167.616 C404.507332,167.872001 404.195335,168 403.843334,168 C403.427332,168 403.091335,167.872001 402.835334,167.616 C402.579332,167.359999 402.451334,167.024002 402.451334,166.608 C402.451334,166.223998 402.579332,165.904001 402.835334,165.648 C403.091335,165.391999 403.427332,165.264 403.843334,165.264 C404.195335,165.264 404.507332,165.391999 404.779334,165.648 C405.051335,165.904001 405.187334,166.223998 405.187334,166.608 Z" id="COMING-SOON!" fill="#FFFFFF"></path>
    </g>
</svg>