<?xml version="1.0" encoding="UTF-8"?>
<svg width="237px" height="61px" viewBox="0 0 237 61" version="1.1" xmlns="http://www.w3.org/2000/svg" xmlns:xlink="http://www.w3.org/1999/xlink">
    <!-- Generator: Sketch 48.2 (47327) - http://www.bohemiancoding.com/sketch -->
    <title>Füllen sie die unten Copy</title>
    <desc>Created with Sketch.</desc>
    <defs></defs>
    <g id="iPhone-8" stroke="none" stroke-width="1" fill="none" fill-rule="evenodd" transform="translate(-58.000000, -730.000000)">
        <path d="M58.489972,746 L58.489972,730.292 L66.013972,730.292 L66.013972,731.128 L59.413972,731.128 L59.413972,737.398 L65.551972,737.398 L65.551972,738.234 L59.413972,738.234 L59.413972,746 L58.489972,746 Z M74.7742498,734.494 L74.7742498,746 L73.9382498,746 L73.9382498,744.262 L73.8942498,744.262 C73.4982498,745.274 72.5302498,746.264 70.9682498,746.264 C69.3402498,746.264 68.0642498,745.34 68.0642498,743.162 L68.0642498,734.494 L68.9002498,734.494 L68.9002498,742.766 C68.9002498,744.812 69.7582498,745.516 71.1882498,745.516 C72.9482498,745.516 73.9382498,743.866 73.9382498,741.864 L73.9382498,734.494 L74.7742498,734.494 Z M72.4422498,732.404 L72.4422498,730.16 L73.3662498,730.16 L73.3662498,732.404 L72.4422498,732.404 Z M69.4942498,732.404 L69.4942498,730.16 L70.4182498,730.16 L70.4182498,732.404 L69.4942498,732.404 Z M77.9465276,746 L77.9465276,730.292 L78.7825276,730.292 L78.7825276,746 L77.9465276,746 Z M82.0428054,746 L82.0428054,730.292 L82.8788054,730.292 L82.8788054,746 L82.0428054,746 Z M86.6890832,739.444 L92.2770832,739.444 C92.2770832,737.354 91.9470832,734.978 89.5710832,734.978 C87.0190832,734.978 86.6890832,737.948 86.6890832,739.444 Z M93.2010832,740.192 L86.6890832,740.192 C86.6890832,742.04 86.7110832,745.516 89.3950832,745.516 C91.8150832,745.516 92.2110832,743.096 92.2110832,742.238 L93.0470832,742.238 C93.0470832,743.998 92.0790832,746.264 89.4830832,746.264 C86.5130832,746.264 85.7650832,743.844 85.7650832,739.928 C85.7650832,736.408 87.0190832,734.23 89.6150832,734.23 C92.3210832,734.23 93.2010832,736.474 93.2010832,740.192 Z M95.845361,746 L95.845361,734.494 L96.681361,734.494 L96.681361,736.232 L96.725361,736.232 C97.121361,735.22 98.089361,734.23 99.651361,734.23 C101.279361,734.23 102.555361,735.154 102.555361,737.332 L102.555361,746 L101.719361,746 L101.719361,737.728 C101.719361,735.682 100.861361,734.978 99.431361,734.978 C97.671361,734.978 96.681361,736.628 96.681361,738.63 L96.681361,746 L95.845361,746 Z M117.523917,737.728 L116.687917,737.728 L116.687917,737.398 C116.687917,736.364 116.423917,734.978 114.531917,734.978 C113.321917,734.978 112.309917,735.594 112.309917,737.112 C112.309917,738.322 112.881917,738.938 114.025917,739.378 L115.785917,740.038 C117.171917,740.566 117.875917,741.534 117.875917,743.096 C117.875917,745.032 116.379917,746.264 114.553917,746.264 C111.363917,746.264 111.143917,743.976 111.143917,742.634 L111.143917,742.326 L111.979917,742.326 L111.979917,742.7 C111.979917,744.328 112.639917,745.516 114.553917,745.516 C116.247917,745.516 116.951917,744.394 116.951917,743.118 C116.951917,742.018 116.511917,741.27 115.235917,740.764 L113.541917,740.082 C112.111917,739.51 111.385917,738.674 111.385917,737.2 C111.385917,735.286 112.705917,734.23 114.531917,734.23 C117.083917,734.23 117.523917,735.968 117.523917,737.376 L117.523917,737.728 Z M120.432194,746 L120.432194,734.494 L121.268194,734.494 L121.268194,746 L120.432194,746 Z M120.432194,732.536 L120.432194,730.292 L121.268194,730.292 L121.268194,732.536 L120.432194,732.536 Z M125.078472,739.444 L130.666472,739.444 C130.666472,737.354 130.336472,734.978 127.960472,734.978 C125.408472,734.978 125.078472,737.948 125.078472,739.444 Z M131.590472,740.192 L125.078472,740.192 C125.078472,742.04 125.100472,745.516 127.784472,745.516 C130.204472,745.516 130.600472,743.096 130.600472,742.238 L131.436472,742.238 C131.436472,743.998 130.468472,746.264 127.872472,746.264 C124.902472,746.264 124.154472,743.844 124.154472,739.928 C124.154472,736.408 125.408472,734.23 128.004472,734.23 C130.710472,734.23 131.590472,736.474 131.590472,740.192 Z M146.603028,746 L146.603028,743.778 L146.559028,743.778 C146.273028,745.34 145.261028,746.264 143.655028,746.264 C140.971028,746.264 140.069028,743.778 140.069028,740.214 C140.069028,736.694 140.861028,734.23 143.699028,734.23 C145.283028,734.23 146.141028,735.286 146.559028,736.518 L146.603028,736.518 L146.603028,730.292 L147.439028,730.292 L147.439028,746 L146.603028,746 Z M140.993028,740.214 C140.993028,743.14 141.521028,745.516 143.787028,745.516 C145.833028,745.516 146.603028,743.58 146.603028,740.214 C146.625028,736.43 145.481028,734.978 143.743028,734.978 C141.763028,734.978 140.993028,736.716 140.993028,740.214 Z M150.655306,746 L150.655306,734.494 L151.491306,734.494 L151.491306,746 L150.655306,746 Z M150.655306,732.536 L150.655306,730.292 L151.491306,730.292 L151.491306,732.536 L150.655306,732.536 Z M155.301583,739.444 L160.889583,739.444 C160.889583,737.354 160.559583,734.978 158.183583,734.978 C155.631583,734.978 155.301583,737.948 155.301583,739.444 Z M161.813583,740.192 L155.301583,740.192 C155.301583,742.04 155.323583,745.516 158.007583,745.516 C160.427583,745.516 160.823583,743.096 160.823583,742.238 L161.659583,742.238 C161.659583,743.998 160.691583,746.264 158.095583,746.264 C155.125583,746.264 154.377583,743.844 154.377583,739.928 C154.377583,736.408 155.631583,734.23 158.227583,734.23 C160.933583,734.23 161.813583,736.474 161.813583,740.192 Z M177.288139,734.494 L177.288139,746 L176.452139,746 L176.452139,744.262 L176.408139,744.262 C176.012139,745.274 175.044139,746.264 173.482139,746.264 C171.854139,746.264 170.578139,745.34 170.578139,743.162 L170.578139,734.494 L171.414139,734.494 L171.414139,742.766 C171.414139,744.812 172.272139,745.516 173.702139,745.516 C175.462139,745.516 176.452139,743.866 176.452139,741.864 L176.452139,734.494 L177.288139,734.494 Z M180.372417,746 L180.372417,734.494 L181.208417,734.494 L181.208417,736.232 L181.252417,736.232 C181.648417,735.22 182.616417,734.23 184.178417,734.23 C185.806417,734.23 187.082417,735.154 187.082417,737.332 L187.082417,746 L186.246417,746 L186.246417,737.728 C186.246417,735.682 185.388417,734.978 183.958417,734.978 C182.198417,734.978 181.208417,736.628 181.208417,738.63 L181.208417,746 L180.372417,746 Z M189.220694,735.242 L189.220694,734.494 L190.782694,734.494 L190.782694,731.084 L191.618694,731.084 L191.618694,734.494 L193.532694,734.494 L193.532694,735.242 L191.618694,735.242 L191.618694,744.108 C191.618694,745.208 192.146694,745.384 192.630694,745.384 C192.982694,745.384 193.290694,745.362 193.664694,745.252 L193.664694,746 C193.246694,746.088 192.806694,746.132 192.476694,746.132 C191.288694,746.132 190.782694,745.45 190.782694,744.196 L190.782694,735.242 L189.220694,735.242 Z M196.132972,739.444 L201.720972,739.444 C201.720972,737.354 201.390972,734.978 199.014972,734.978 C196.462972,734.978 196.132972,737.948 196.132972,739.444 Z M202.644972,740.192 L196.132972,740.192 C196.132972,742.04 196.154972,745.516 198.838972,745.516 C201.258972,745.516 201.654972,743.096 201.654972,742.238 L202.490972,742.238 C202.490972,743.998 201.522972,746.264 198.926972,746.264 C195.956972,746.264 195.208972,743.844 195.208972,739.928 C195.208972,736.408 196.462972,734.23 199.058972,734.23 C201.764972,734.23 202.644972,736.474 202.644972,740.192 Z M205.28925,746 L205.28925,734.494 L206.12525,734.494 L206.12525,736.232 L206.16925,736.232 C206.56525,735.22 207.53325,734.23 209.09525,734.23 C210.72325,734.23 211.99925,735.154 211.99925,737.332 L211.99925,746 L211.16325,746 L211.16325,737.728 C211.16325,735.682 210.30525,734.978 208.87525,734.978 C207.11525,734.978 206.12525,736.628 206.12525,738.63 L206.12525,746 L205.28925,746 Z M220.847528,737.728 L220.011528,737.728 L220.011528,737.398 C220.011528,736.364 219.747528,734.978 217.855528,734.978 C216.645528,734.978 215.633528,735.594 215.633528,737.112 C215.633528,738.322 216.205528,738.938 217.349528,739.378 L219.109528,740.038 C220.495528,740.566 221.199528,741.534 221.199528,743.096 C221.199528,745.032 219.703528,746.264 217.877528,746.264 C214.687528,746.264 214.467528,743.976 214.467528,742.634 L214.467528,742.326 L215.303528,742.326 L215.303528,742.7 C215.303528,744.328 215.963528,745.516 217.877528,745.516 C219.571528,745.516 220.275528,744.394 220.275528,743.118 C220.275528,742.018 219.835528,741.27 218.559528,740.764 L216.865528,740.082 C215.435528,739.51 214.709528,738.674 214.709528,737.2 C214.709528,735.286 216.029528,734.23 217.855528,734.23 C220.407528,734.23 220.847528,735.968 220.847528,737.376 L220.847528,737.728 Z M222.721806,735.242 L222.721806,734.494 L224.283806,734.494 L224.283806,731.084 L225.119806,731.084 L225.119806,734.494 L227.033806,734.494 L227.033806,735.242 L225.119806,735.242 L225.119806,744.108 C225.119806,745.208 225.647806,745.384 226.131806,745.384 C226.483806,745.384 226.791806,745.362 227.165806,745.252 L227.165806,746 C226.747806,746.088 226.307806,746.132 225.977806,746.132 C224.789806,746.132 224.283806,745.45 224.283806,744.196 L224.283806,735.242 L222.721806,735.242 Z M229.634083,739.444 L235.222083,739.444 C235.222083,737.354 234.892083,734.978 232.516083,734.978 C229.964083,734.978 229.634083,737.948 229.634083,739.444 Z M236.146083,740.192 L229.634083,740.192 C229.634083,742.04 229.656083,745.516 232.340083,745.516 C234.760083,745.516 235.156083,743.096 235.156083,742.238 L235.992083,742.238 C235.992083,743.998 235.024083,746.264 232.428083,746.264 C229.458083,746.264 228.710083,743.844 228.710083,739.928 C228.710083,736.408 229.964083,734.23 232.560083,734.23 C235.266083,734.23 236.146083,736.474 236.146083,740.192 Z M238.790361,746 L238.790361,730.292 L239.626361,730.292 L239.626361,736.232 L239.670361,736.232 C240.066361,735.22 241.034361,734.23 242.596361,734.23 C244.224361,734.23 245.500361,735.154 245.500361,737.332 L245.500361,746 L244.664361,746 L244.664361,737.728 C244.664361,735.682 243.806361,734.978 242.376361,734.978 C240.616361,734.978 239.626361,736.628 239.626361,738.63 L239.626361,746 L238.790361,746 Z M249.222639,739.444 L254.810639,739.444 C254.810639,737.354 254.480639,734.978 252.104639,734.978 C249.552639,734.978 249.222639,737.948 249.222639,739.444 Z M255.734639,740.192 L249.222639,740.192 C249.222639,742.04 249.244639,745.516 251.928639,745.516 C254.348639,745.516 254.744639,743.096 254.744639,742.238 L255.580639,742.238 C255.580639,743.998 254.612639,746.264 252.016639,746.264 C249.046639,746.264 248.298639,743.844 248.298639,739.928 C248.298639,736.408 249.552639,734.23 252.148639,734.23 C254.854639,734.23 255.734639,736.474 255.734639,740.192 Z M258.378917,746 L258.378917,734.494 L259.214917,734.494 L259.214917,736.232 L259.258917,736.232 C259.654917,735.22 260.622917,734.23 262.184917,734.23 C263.812917,734.23 265.088917,735.154 265.088917,737.332 L265.088917,746 L264.252917,746 L264.252917,737.728 C264.252917,735.682 263.394917,734.978 261.964917,734.978 C260.204917,734.978 259.214917,736.628 259.214917,738.63 L259.214917,746 L258.378917,746 Z M274.421195,746 L274.421195,743.778 L274.377195,743.778 C274.091195,745.34 273.079195,746.264 271.473195,746.264 C268.789195,746.264 267.887195,743.778 267.887195,740.214 C267.887195,736.694 268.679195,734.23 271.517195,734.23 C273.101195,734.23 273.959195,735.286 274.377195,736.518 L274.421195,736.518 L274.421195,730.292 L275.257195,730.292 L275.257195,746 L274.421195,746 Z M268.811195,740.214 C268.811195,743.14 269.339195,745.516 271.605195,745.516 C273.651195,745.516 274.421195,743.58 274.421195,740.214 C274.443195,736.43 273.299195,734.978 271.561195,734.978 C269.581195,734.978 268.811195,736.716 268.811195,740.214 Z M279.023472,739.444 L284.611472,739.444 C284.611472,737.354 284.281472,734.978 281.905472,734.978 C279.353472,734.978 279.023472,737.948 279.023472,739.444 Z M285.535472,740.192 L279.023472,740.192 C279.023472,742.04 279.045472,745.516 281.729472,745.516 C284.149472,745.516 284.545472,743.096 284.545472,742.238 L285.381472,742.238 C285.381472,743.998 284.413472,746.264 281.817472,746.264 C278.847472,746.264 278.099472,743.844 278.099472,739.928 C278.099472,736.408 279.353472,734.23 281.949472,734.23 C284.655472,734.23 285.535472,736.474 285.535472,740.192 Z M288.17975,746 L288.17975,734.494 L289.01575,734.494 L289.01575,736.232 L289.05975,736.232 C289.45575,735.22 290.42375,734.23 291.98575,734.23 C293.61375,734.23 294.88975,735.154 294.88975,737.332 L294.88975,746 L294.05375,746 L294.05375,737.728 C294.05375,735.682 293.19575,734.978 291.76575,734.978 C290.00575,734.978 289.01575,736.628 289.01575,738.63 L289.01575,746 L288.17975,746 Z M89.3070832,768 L89.3070832,752.292 L96.8310832,752.292 L96.8310832,753.128 L90.2310832,753.128 L90.2310832,759.398 L96.3690832,759.398 L96.3690832,760.234 L90.2310832,760.234 L90.2310832,768 L89.3070832,768 Z M99.123361,761.444 L104.711361,761.444 C104.711361,759.354 104.381361,756.978 102.005361,756.978 C99.453361,756.978 99.123361,759.948 99.123361,761.444 Z M105.635361,762.192 L99.123361,762.192 C99.123361,764.04 99.145361,767.516 101.829361,767.516 C104.249361,767.516 104.645361,765.096 104.645361,764.238 L105.481361,764.238 C105.481361,765.998 104.513361,768.264 101.917361,768.264 C98.947361,768.264 98.199361,765.844 98.199361,761.928 C98.199361,758.408 99.453361,756.23 102.049361,756.23 C104.755361,756.23 105.635361,758.474 105.635361,762.192 Z M108.367639,768 L108.367639,752.292 L109.203639,752.292 L109.203639,768 L108.367639,768 Z M118.623917,768 L118.623917,765.778 L118.579917,765.778 C118.293917,767.34 117.281917,768.264 115.675917,768.264 C112.991917,768.264 112.089917,765.778 112.089917,762.214 C112.089917,758.694 112.881917,756.23 115.719917,756.23 C117.303917,756.23 118.161917,757.286 118.579917,758.518 L118.623917,758.518 L118.623917,752.292 L119.459917,752.292 L119.459917,768 L118.623917,768 Z M113.013917,762.214 C113.013917,765.14 113.541917,767.516 115.807917,767.516 C117.853917,767.516 118.623917,765.58 118.623917,762.214 C118.645917,758.43 117.501917,756.978 115.763917,756.978 C113.783917,756.978 113.013917,758.716 113.013917,762.214 Z M123.226194,761.444 L128.814194,761.444 C128.814194,759.354 128.484194,756.978 126.108194,756.978 C123.556194,756.978 123.226194,759.948 123.226194,761.444 Z M129.738194,762.192 L123.226194,762.192 C123.226194,764.04 123.248194,767.516 125.932194,767.516 C128.352194,767.516 128.748194,765.096 128.748194,764.238 L129.584194,764.238 C129.584194,765.998 128.616194,768.264 126.020194,768.264 C123.050194,768.264 122.302194,765.844 122.302194,761.928 C122.302194,758.408 123.556194,756.23 126.152194,756.23 C128.858194,756.23 129.738194,758.474 129.738194,762.192 Z M132.382472,768 L132.382472,756.494 L133.218472,756.494 L133.218472,758.496 L133.262472,758.496 C133.680472,757.176 134.626472,756.23 136.144472,756.23 L136.628472,756.23 L136.628472,756.978 L136.144472,756.978 C134.186472,756.978 133.218472,758.804 133.218472,760.696 L133.218472,768 L132.382472,768 Z M150.827028,759.266 L150.827028,766.614 C150.827028,767.164 151.047028,767.384 151.333028,767.384 C151.531028,767.384 151.707028,767.362 151.861028,767.274 L151.861028,767.934 C151.685028,768.066 151.355028,768.132 150.981028,768.132 C150.629028,768.132 149.991028,767.78 149.991028,766.878 L149.991028,766.152 L149.947028,766.152 C149.617028,767.34 148.473028,768.264 146.933028,768.264 C144.931028,768.264 144.051028,766.834 144.051028,765.052 C144.051028,763.314 144.755028,762.324 146.383028,761.884 L148.869028,761.202 C149.859028,760.938 149.991028,760.476 149.991028,759.508 C149.991028,757.418 149.023028,756.978 147.769028,756.978 C145.833028,756.978 145.261028,758.188 145.261028,759.772 L144.425028,759.772 C144.425028,758.21 144.997028,756.23 147.681028,756.23 C150.211028,756.23 150.827028,757.616 150.827028,759.266 Z M149.991028,763.666 L149.991028,761.29 L149.947028,761.29 C149.661028,761.752 149.353028,761.818 148.495028,762.06 L146.801028,762.522 C145.459028,762.896 144.975028,763.688 144.975028,765.052 C144.975028,766.548 145.635028,767.516 147.087028,767.516 C149.045028,767.516 149.991028,765.976 149.991028,763.666 Z M160.753306,756.494 L160.753306,768 L159.917306,768 L159.917306,766.262 L159.873306,766.262 C159.477306,767.274 158.509306,768.264 156.947306,768.264 C155.319306,768.264 154.043306,767.34 154.043306,765.162 L154.043306,756.494 L154.879306,756.494 L154.879306,764.766 C154.879306,766.812 155.737306,767.516 157.167306,767.516 C158.927306,767.516 159.917306,765.866 159.917306,763.864 L159.917306,756.494 L160.753306,756.494 Z M169.601583,759.728 L168.765583,759.728 L168.765583,759.398 C168.765583,758.364 168.501583,756.978 166.609583,756.978 C165.399583,756.978 164.387583,757.594 164.387583,759.112 C164.387583,760.322 164.959583,760.938 166.103583,761.378 L167.863583,762.038 C169.249583,762.566 169.953583,763.534 169.953583,765.096 C169.953583,767.032 168.457583,768.264 166.631583,768.264 C163.441583,768.264 163.221583,765.976 163.221583,764.634 L163.221583,764.326 L164.057583,764.326 L164.057583,764.7 C164.057583,766.328 164.717583,767.516 166.631583,767.516 C168.325583,767.516 169.029583,766.394 169.029583,765.118 C169.029583,764.018 168.589583,763.27 167.313583,762.764 L165.619583,762.082 C164.189583,761.51 163.463583,760.674 163.463583,759.2 C163.463583,757.286 164.783583,756.23 166.609583,756.23 C169.161583,756.23 169.601583,757.968 169.601583,759.376 L169.601583,759.728 Z M185.252139,756.494 L185.252139,768 L184.416139,768 L184.416139,766.262 L184.372139,766.262 C183.976139,767.274 183.008139,768.264 181.446139,768.264 C179.818139,768.264 178.542139,767.34 178.542139,765.162 L178.542139,756.494 L179.378139,756.494 L179.378139,764.766 C179.378139,766.812 180.236139,767.516 181.666139,767.516 C183.426139,767.516 184.416139,765.866 184.416139,763.864 L184.416139,756.494 L185.252139,756.494 Z M188.468417,768 L188.468417,756.494 L189.304417,756.494 L189.304417,758.21 L189.348417,758.21 C189.678417,757.022 190.690417,756.23 192.120417,756.23 C193.902417,756.23 194.452417,757.33 194.606417,758.386 L194.650417,758.386 C194.804417,757.55 195.662417,756.23 197.466417,756.23 C199.292417,756.23 200.216417,757.33 200.216417,759.156 L200.216417,768 L199.380417,768 L199.380417,759.354 C199.380417,757.814 198.588417,756.978 197.400417,756.978 C195.684417,756.978 194.760417,758.386 194.760417,760.366 L194.760417,768 L193.924417,768 L193.924417,759.75 C193.924417,758.034 193.352417,756.978 191.900417,756.978 C190.096417,756.978 189.304417,758.562 189.304417,760.366 L189.304417,768 L188.468417,768 Z M216.570972,768 L214.392972,757.682 L214.348972,757.682 L212.082972,768 L211.026972,768 L208.562972,756.494 L209.486972,756.494 L211.532972,766.812 L211.576972,766.812 L213.842972,756.494 L214.898972,756.494 L217.076972,766.812 L217.120972,766.812 L219.188972,756.494 L220.112972,756.494 L217.626972,768 L216.570972,768 Z M222.84525,761.444 L228.43325,761.444 C228.43325,759.354 228.10325,756.978 225.72725,756.978 C223.17525,756.978 222.84525,759.948 222.84525,761.444 Z M229.35725,762.192 L222.84525,762.192 C222.84525,764.04 222.86725,767.516 225.55125,767.516 C227.97125,767.516 228.36725,765.096 228.36725,764.238 L229.20325,764.238 C229.20325,765.998 228.23525,768.264 225.63925,768.264 C222.66925,768.264 221.92125,765.844 221.92125,761.928 C221.92125,758.408 223.17525,756.23 225.77125,756.23 C228.47725,756.23 229.35725,758.474 229.35725,762.192 Z M232.089528,768 L232.089528,756.494 L232.925528,756.494 L232.925528,768 L232.089528,768 Z M232.089528,754.536 L232.089528,752.292 L232.925528,752.292 L232.925528,754.536 L232.089528,754.536 Z M235.151806,757.242 L235.151806,756.494 L236.713806,756.494 L236.713806,753.084 L237.549806,753.084 L237.549806,756.494 L239.463806,756.494 L239.463806,757.242 L237.549806,757.242 L237.549806,766.108 C237.549806,767.208 238.077806,767.384 238.561806,767.384 C238.913806,767.384 239.221806,767.362 239.595806,767.252 L239.595806,768 C239.177806,768.088 238.737806,768.132 238.407806,768.132 C237.219806,768.132 236.713806,767.45 236.713806,766.196 L236.713806,757.242 L235.151806,757.242 Z M242.064083,761.444 L247.652083,761.444 C247.652083,759.354 247.322083,756.978 244.946083,756.978 C242.394083,756.978 242.064083,759.948 242.064083,761.444 Z M248.576083,762.192 L242.064083,762.192 C242.064083,764.04 242.086083,767.516 244.770083,767.516 C247.190083,767.516 247.586083,765.096 247.586083,764.238 L248.422083,764.238 C248.422083,765.998 247.454083,768.264 244.858083,768.264 C241.888083,768.264 241.140083,765.844 241.140083,761.928 C241.140083,758.408 242.394083,756.23 244.990083,756.23 C247.696083,756.23 248.576083,758.474 248.576083,762.192 Z M251.220361,768 L251.220361,756.494 L252.056361,756.494 L252.056361,758.496 L252.100361,758.496 C252.518361,757.176 253.464361,756.23 254.982361,756.23 L255.466361,756.23 L255.466361,756.978 L254.982361,756.978 C253.024361,756.978 252.056361,758.804 252.056361,760.696 L252.056361,768 L251.220361,768 Z M258.000639,761.444 L263.588639,761.444 C263.588639,759.354 263.258639,756.978 260.882639,756.978 C258.330639,756.978 258.000639,759.948 258.000639,761.444 Z M264.512639,762.192 L258.000639,762.192 C258.000639,764.04 258.022639,767.516 260.706639,767.516 C263.126639,767.516 263.522639,765.096 263.522639,764.238 L264.358639,764.238 C264.358639,765.998 263.390639,768.264 260.794639,768.264 C257.824639,768.264 257.076639,765.844 257.076639,761.928 C257.076639,758.408 258.330639,756.23 260.926639,756.23 C263.632639,756.23 264.512639,758.474 264.512639,762.192 Z M73.4673887,790 L73.4673887,774.292 L74.3913887,774.292 L74.3913887,790 L73.4673887,790 Z M77.6956665,790 L77.6956665,778.494 L78.5316665,778.494 L78.5316665,780.232 L78.5756665,780.232 C78.9716665,779.22 79.9396665,778.23 81.5016665,778.23 C83.1296665,778.23 84.4056665,779.154 84.4056665,781.332 L84.4056665,790 L83.5696665,790 L83.5696665,781.728 C83.5696665,779.682 82.7116665,778.978 81.2816665,778.978 C79.5216665,778.978 78.5316665,780.628 78.5316665,782.63 L78.5316665,790 L77.6956665,790 Z M88.1059443,790 L88.1059443,779.242 L86.5439443,779.242 L86.5439443,778.494 L88.1059443,778.494 L88.1059443,776.58 C88.1059443,775.26 88.5899443,774.292 90.1299443,774.292 C90.3939443,774.292 90.7019443,774.292 90.9879443,774.358 L90.9879443,775.106 C90.7899443,775.062 90.5699443,775.04 90.2619443,775.04 C89.5359443,775.04 88.9419443,775.37 88.9419443,776.536 L88.9419443,778.494 L90.8559443,778.494 L90.8559443,779.242 L88.9419443,779.242 L88.9419443,790 L88.1059443,790 Z M100.232222,784.236 C100.232222,787.558 99.4842221,790.264 96.3162221,790.264 C93.2802221,790.264 92.5322221,787.558 92.5322221,784.236 C92.5322221,780.936 93.2802221,778.23 96.4482221,778.23 C99.4842221,778.23 100.232222,780.936 100.232222,784.236 Z M99.3082221,784.258 C99.3082221,780.936 98.5822221,778.978 96.3822221,778.978 C94.1822221,778.978 93.4562221,780.936 93.4562221,784.258 C93.4562221,787.558 94.1822221,789.516 96.3822221,789.516 C98.5822221,789.516 99.3082221,787.558 99.3082221,784.258 Z M103.0305,790 L103.0305,778.494 L103.8665,778.494 L103.8665,780.496 L103.9105,780.496 C104.3285,779.176 105.2745,778.23 106.7925,778.23 L107.2765,778.23 L107.2765,778.978 L106.7925,778.978 C104.8345,778.978 103.8665,780.804 103.8665,782.696 L103.8665,790 L103.0305,790 Z M109.524778,790 L109.524778,778.494 L110.360778,778.494 L110.360778,780.21 L110.404778,780.21 C110.734778,779.022 111.746778,778.23 113.176778,778.23 C114.958778,778.23 115.508778,779.33 115.662778,780.386 L115.706778,780.386 C115.860778,779.55 116.718778,778.23 118.522778,778.23 C120.348778,778.23 121.272778,779.33 121.272778,781.156 L121.272778,790 L120.436778,790 L120.436778,781.354 C120.436778,779.814 119.644778,778.978 118.456778,778.978 C116.740778,778.978 115.816778,780.386 115.816778,782.366 L115.816778,790 L114.980778,790 L114.980778,781.75 C114.980778,780.034 114.408778,778.978 112.956778,778.978 C111.152778,778.978 110.360778,780.562 110.360778,782.366 L110.360778,790 L109.524778,790 Z M130.671055,781.266 L130.671055,788.614 C130.671055,789.164 130.891055,789.384 131.177055,789.384 C131.375055,789.384 131.551055,789.362 131.705055,789.274 L131.705055,789.934 C131.529055,790.066 131.199055,790.132 130.825055,790.132 C130.473055,790.132 129.835055,789.78 129.835055,788.878 L129.835055,788.152 L129.791055,788.152 C129.461055,789.34 128.317055,790.264 126.777055,790.264 C124.775055,790.264 123.895055,788.834 123.895055,787.052 C123.895055,785.314 124.599055,784.324 126.227055,783.884 L128.713055,783.202 C129.703055,782.938 129.835055,782.476 129.835055,781.508 C129.835055,779.418 128.867055,778.978 127.613055,778.978 C125.677055,778.978 125.105055,780.188 125.105055,781.772 L124.269055,781.772 C124.269055,780.21 124.841055,778.23 127.525055,778.23 C130.055055,778.23 130.671055,779.616 130.671055,781.266 Z M129.835055,785.666 L129.835055,783.29 L129.791055,783.29 C129.505055,783.752 129.197055,783.818 128.339055,784.06 L126.645055,784.522 C125.303055,784.896 124.819055,785.688 124.819055,787.052 C124.819055,788.548 125.479055,789.516 126.931055,789.516 C128.889055,789.516 129.835055,787.976 129.835055,785.666 Z M132.941333,779.242 L132.941333,778.494 L134.503333,778.494 L134.503333,775.084 L135.339333,775.084 L135.339333,778.494 L137.253333,778.494 L137.253333,779.242 L135.339333,779.242 L135.339333,788.108 C135.339333,789.208 135.867333,789.384 136.351333,789.384 C136.703333,789.384 137.011333,789.362 137.385333,789.252 L137.385333,790 C136.967333,790.088 136.527333,790.132 136.197333,790.132 C135.009333,790.132 134.503333,789.45 134.503333,788.196 L134.503333,779.242 L132.941333,779.242 Z M139.303611,790 L139.303611,778.494 L140.139611,778.494 L140.139611,790 L139.303611,790 Z M139.303611,776.536 L139.303611,774.292 L140.139611,774.292 L140.139611,776.536 L139.303611,776.536 Z M150.725889,784.236 C150.725889,787.558 149.977889,790.264 146.809889,790.264 C143.773889,790.264 143.025889,787.558 143.025889,784.236 C143.025889,780.936 143.773889,778.23 146.941889,778.23 C149.977889,778.23 150.725889,780.936 150.725889,784.236 Z M149.801889,784.258 C149.801889,780.936 149.075889,778.978 146.875889,778.978 C144.675889,778.978 143.949889,780.936 143.949889,784.258 C143.949889,787.558 144.675889,789.516 146.875889,789.516 C149.075889,789.516 149.801889,787.558 149.801889,784.258 Z M153.524167,790 L153.524167,778.494 L154.360167,778.494 L154.360167,780.232 L154.404167,780.232 C154.800167,779.22 155.768167,778.23 157.330167,778.23 C158.958167,778.23 160.234167,779.154 160.234167,781.332 L160.234167,790 L159.398167,790 L159.398167,781.728 C159.398167,779.682 158.540167,778.978 157.110167,778.978 C155.350167,778.978 154.360167,780.628 154.360167,782.63 L154.360167,790 L153.524167,790 Z M163.956444,783.444 L169.544444,783.444 C169.544444,781.354 169.214444,778.978 166.838444,778.978 C164.286444,778.978 163.956444,781.948 163.956444,783.444 Z M170.468444,784.192 L163.956444,784.192 C163.956444,786.04 163.978444,789.516 166.662444,789.516 C169.082444,789.516 169.478444,787.096 169.478444,786.238 L170.314444,786.238 C170.314444,787.998 169.346444,790.264 166.750444,790.264 C163.780444,790.264 163.032444,787.844 163.032444,783.928 C163.032444,780.408 164.286444,778.23 166.882444,778.23 C169.588444,778.23 170.468444,780.474 170.468444,784.192 Z M173.112722,790 L173.112722,778.494 L173.948722,778.494 L173.948722,780.232 L173.992722,780.232 C174.388722,779.22 175.356722,778.23 176.918722,778.23 C178.546722,778.23 179.822722,779.154 179.822722,781.332 L179.822722,790 L178.986722,790 L178.986722,781.728 C178.986722,779.682 178.128722,778.978 176.698722,778.978 C174.938722,778.978 173.948722,780.628 173.948722,782.63 L173.948722,790 L173.112722,790 Z M188.235278,790 L188.235278,789.252 L193.933278,779.242 L188.543278,779.242 L188.543278,778.494 L194.857278,778.494 L194.857278,779.242 L189.159278,789.252 L194.923278,789.252 L194.923278,790 L188.235278,790 Z M203.925556,778.494 L203.925556,790 L203.089556,790 L203.089556,788.262 L203.045556,788.262 C202.649556,789.274 201.681556,790.264 200.119556,790.264 C198.491556,790.264 197.215556,789.34 197.215556,787.162 L197.215556,778.494 L198.051556,778.494 L198.051556,786.766 C198.051556,788.812 198.909556,789.516 200.339556,789.516 C202.099556,789.516 203.089556,787.866 203.089556,785.864 L203.089556,778.494 L203.925556,778.494 Z M213.768111,783.444 L219.356111,783.444 C219.356111,781.354 219.026111,778.978 216.650111,778.978 C214.098111,778.978 213.768111,781.948 213.768111,783.444 Z M220.280111,784.192 L213.768111,784.192 C213.768111,786.04 213.790111,789.516 216.474111,789.516 C218.894111,789.516 219.290111,787.096 219.290111,786.238 L220.126111,786.238 C220.126111,787.998 219.158111,790.264 216.562111,790.264 C213.592111,790.264 212.844111,787.844 212.844111,783.928 C212.844111,780.408 214.098111,778.23 216.694111,778.23 C219.400111,778.23 220.280111,780.474 220.280111,784.192 Z M222.924389,790 L222.924389,778.494 L223.760389,778.494 L223.760389,780.496 L223.804389,780.496 C224.222389,779.176 225.168389,778.23 226.686389,778.23 L227.170389,778.23 L227.170389,778.978 L226.686389,778.978 C224.728389,778.978 223.760389,780.804 223.760389,782.696 L223.760389,790 L222.924389,790 Z M229.066667,790 L229.066667,774.292 L229.902667,774.292 L229.902667,780.232 L229.946667,780.232 C230.342667,779.22 231.310667,778.23 232.872667,778.23 C234.500667,778.23 235.776667,779.154 235.776667,781.332 L235.776667,790 L234.940667,790 L234.940667,781.728 C234.940667,779.682 234.082667,778.978 232.652667,778.978 C230.892667,778.978 229.902667,780.628 229.902667,782.63 L229.902667,790 L229.066667,790 Z M245.042945,781.266 L245.042945,788.614 C245.042945,789.164 245.262945,789.384 245.548945,789.384 C245.746945,789.384 245.922945,789.362 246.076945,789.274 L246.076945,789.934 C245.900945,790.066 245.570945,790.132 245.196945,790.132 C244.844945,790.132 244.206945,789.78 244.206945,788.878 L244.206945,788.152 L244.162945,788.152 C243.832945,789.34 242.688945,790.264 241.148945,790.264 C239.146945,790.264 238.266945,788.834 238.266945,787.052 C238.266945,785.314 238.970945,784.324 240.598945,783.884 L243.084945,783.202 C244.074945,782.938 244.206945,782.476 244.206945,781.508 C244.206945,779.418 243.238945,778.978 241.984945,778.978 C240.048945,778.978 239.476945,780.188 239.476945,781.772 L238.640945,781.772 C238.640945,780.21 239.212945,778.23 241.896945,778.23 C244.426945,778.23 245.042945,779.616 245.042945,781.266 Z M244.206945,785.666 L244.206945,783.29 L244.162945,783.29 C243.876945,783.752 243.568945,783.818 242.710945,784.06 L241.016945,784.522 C239.674945,784.896 239.190945,785.688 239.190945,787.052 C239.190945,788.548 239.850945,789.516 241.302945,789.516 C243.260945,789.516 244.206945,787.976 244.206945,785.666 Z M248.347222,790 L248.347222,774.292 L249.183222,774.292 L249.183222,790 L248.347222,790 Z M251.4095,779.242 L251.4095,778.494 L252.9715,778.494 L252.9715,775.084 L253.8075,775.084 L253.8075,778.494 L255.7215,778.494 L255.7215,779.242 L253.8075,779.242 L253.8075,788.108 C253.8075,789.208 254.3355,789.384 254.8195,789.384 C255.1715,789.384 255.4795,789.362 255.8535,789.252 L255.8535,790 C255.4355,790.088 254.9955,790.132 254.6655,790.132 C253.4775,790.132 252.9715,789.45 252.9715,788.196 L252.9715,779.242 L251.4095,779.242 Z M258.321778,783.444 L263.909778,783.444 C263.909778,781.354 263.579778,778.978 261.203778,778.978 C258.651778,778.978 258.321778,781.948 258.321778,783.444 Z M264.833778,784.192 L258.321778,784.192 C258.321778,786.04 258.343778,789.516 261.027778,789.516 C263.447778,789.516 263.843778,787.096 263.843778,786.238 L264.679778,786.238 C264.679778,787.998 263.711778,790.264 261.115778,790.264 C258.145778,790.264 257.397778,787.844 257.397778,783.928 C257.397778,780.408 258.651778,778.23 261.247778,778.23 C263.953778,778.23 264.833778,780.474 264.833778,784.192 Z M267.478056,790 L267.478056,778.494 L268.314056,778.494 L268.314056,780.232 L268.358056,780.232 C268.754056,779.22 269.722056,778.23 271.284056,778.23 C272.912056,778.23 274.188056,779.154 274.188056,781.332 L274.188056,790 L273.352056,790 L273.352056,781.728 C273.352056,779.682 272.494056,778.978 271.064056,778.978 C269.304056,778.978 268.314056,780.628 268.314056,782.63 L268.314056,790 L267.478056,790 Z M278.130333,774.292 L279.054333,774.292 L279.054333,779.352 L278.922333,785.908 L278.262333,785.908 L278.130333,779.352 L278.130333,774.292 Z M278.130333,790 L278.130333,787.888 L279.054333,787.888 L279.054333,790 L278.130333,790 Z" id="Füllen-sie-die-unten-Copy" fill="#FFFFFF"></path>
    </g>
</svg>