<?xml version="1.0" encoding="UTF-8"?>
<svg width="307px" height="38px" viewBox="0 0 307 38" version="1.1" xmlns="http://www.w3.org/2000/svg" xmlns:xlink="http://www.w3.org/1999/xlink">
    <!-- Generator: Sketch 48.2 (47327) - http://www.bohemiancoding.com/sketch -->
    <title>Group 3</title>
    <desc>Created with Sketch.</desc>
    <defs></defs>
    <g id="iPhone-8" stroke="none" stroke-width="1" fill="none" fill-rule="evenodd" transform="translate(-31.000000, -742.000000)">
        <g id="Group-2" transform="translate(21.000000, 664.000000)">
            <g id="Group-3">
                <path d="M36.872,92.68 C36.4879981,92.68 36.1520014,92.5520013 35.864,92.296 C35.5759986,92.0399987 35.432,91.7040021 35.432,91.288 C35.432,91.095999 35.4160002,90.8720013 35.384,90.616 C35.3199997,90.1999979 35.2240006,89.6240037 35.096,88.888 C34.6479978,87.0639909 33.8320059,85.5760058 32.648,84.424 C30.7919907,82.5359906 28.1040176,81.592 24.584,81.592 C22.0559874,81.592 20.0640073,82.0399955 18.608,82.936 C17.1519927,83.8320045 16.0560037,85.0159926 15.32,86.488 C14.5839963,87.9600074 14.120001,89.6159908 13.928,91.456 C13.735999,93.2960092 13.64,95.1439907 13.64,97 C13.64,97.6400032 13.6479999,98.359996 13.664,99.16 C13.6800001,99.960004 13.7359995,100.799996 13.832,101.68 C13.9280005,102.560004 14.071999,103.447996 14.264,104.344 C14.456001,105.240004 14.7279982,106.103996 15.08,106.936 C16.680008,110.584018 19.8479763,112.408 24.584,112.408 C29.192023,112.408 32.3599914,110.776016 34.088,107.512 C34.4080016,106.903997 34.663999,106.296003 34.856,105.688 C35.048001,105.079997 35.1839996,104.544002 35.264,104.08 C35.3440004,103.615998 35.3919999,103.240001 35.408,102.952 L35.432,102.52 C35.432,102.135998 35.5759986,101.816001 35.864,101.56 C36.1520014,101.303999 36.4879981,101.176 36.872,101.176 C37.2560019,101.176 37.5759987,101.303999 37.832,101.56 C38.0880013,101.816001 38.216,102.135998 38.216,102.52 C38.216,102.552 38.2080001,102.751998 38.192,103.12 C38.1759999,103.488002 38.1120006,103.967997 38,104.56 C37.8879994,105.152003 37.7200011,105.823996 37.496,106.576 C37.2719989,107.328004 36.9520021,108.087996 36.536,108.856 C36.1519981,109.592004 35.6400032,110.327996 35,111.064 C34.3599968,111.800004 33.5600048,112.479997 32.6,113.104 C31.6399952,113.728003 30.5040066,114.231998 29.192,114.616 C27.8799934,115.000002 26.3440088,115.192 24.584,115.192 C21.4159842,115.192 18.8080102,114.520007 16.76,113.176 C14.9999912,111.927994 13.5920053,110.216011 12.536,108.04 C12.1199979,107.079995 11.8000011,106.096005 11.576,105.088 C11.3519989,104.079995 11.1840006,103.088005 11.072,102.112 C10.9599994,101.135995 10.8960001,100.208004 10.88,99.328 C10.8639999,98.4479956 10.856,97.6720034 10.856,97 C10.856,96.2639963 10.8639999,95.4480045 10.88,94.552 C10.8960001,93.6559955 10.9519995,92.7280048 11.048,91.768 C11.1440005,90.8079952 11.3039989,89.832005 11.528,88.84 C11.7520011,87.847995 12.0719979,86.8880046 12.488,85.96 C13.0000026,84.8399944 13.6079965,83.8640042 14.312,83.032 C15.0160035,82.1999958 15.8159955,81.4640032 16.712,80.824 C18.7600102,79.4799933 21.383984,78.808 24.584,78.808 C28.8720214,78.808 32.2319878,80.0239878 34.664,82.456 C35.5280043,83.3520045 36.1999976,84.295995 36.68,85.288 C37.1600024,86.280005 37.5119989,87.2079957 37.736,88.072 C37.9600011,88.9360043 38.0959998,89.663997 38.144,90.256 C38.1920002,90.848003 38.216,91.1919995 38.216,91.288 L38.216,91.336 C38.216,91.7200019 38.0880013,92.0399987 37.832,92.296 C37.5759987,92.5520013 37.2560019,92.68 36.872,92.68 Z M57.1326667,115.144 C52.5246437,115.144 49.1006779,113.736014 46.8606667,110.92 C44.4286545,108.007985 43.2126667,103.368032 43.2126667,97 C43.2126667,95.3679918 43.284666,93.8800067 43.4286667,92.536 C43.5726674,91.1919933 43.7726654,89.9440058 44.0286667,88.792 C44.5726694,86.3599878 45.4206609,84.4560069 46.5726667,83.08 C47.7566726,81.6399928 49.2606576,80.5520037 51.0846667,79.816 C52.6846747,79.1759968 54.7006545,78.856 57.1326667,78.856 C58.3166726,78.856 59.4206616,78.9439991 60.4446667,79.12 C61.4686718,79.2960009 62.3966625,79.5919979 63.2286667,80.008 C64.9886755,80.7120035 66.4926605,81.863992 67.7406667,83.464 C69.8846774,86.4080147 70.9566667,90.9199696 70.9566667,97 C70.9566667,99.9120146 70.6846694,102.535988 70.1406667,104.872 C69.8526653,105.992006 69.4846689,107.031995 69.0366667,107.992 C68.5886645,108.952005 68.0446699,109.815996 67.4046667,110.584 C65.1006552,113.624015 61.6766894,115.144 57.1326667,115.144 Z M57.1326667,81.64 C53.1326467,81.64 50.3166749,82.6959894 48.6846667,84.808 C46.8606576,87.208012 45.9486667,91.2719714 45.9486667,97 C45.9486667,99.9120146 46.1966642,102.35999 46.6926667,104.344 C47.1886692,106.32801 47.9166619,107.943994 48.8766667,109.192 C50.5726752,111.304011 53.3246477,112.36 57.1326667,112.36 C60.8126851,112.36 63.5486577,111.176012 65.3406667,108.808 C66.2686713,107.527994 66.9806642,105.90401 67.4766667,103.936 C67.9726692,101.96799 68.2206667,99.6560133 68.2206667,97 C68.2206667,91.591973 67.3406755,87.6560123 65.5806667,85.192 C63.8206579,82.8239882 61.0046861,81.64 57.1326667,81.64 Z M104.705333,115 C104.321331,115 104.001335,114.872001 103.745333,114.616 C103.489332,114.359999 103.361333,114.040002 103.361333,113.656 L103.361333,85.192 L92.1773334,103.288 C91.8573318,103.704002 91.4573358,103.912 90.9773334,103.912 C90.4653308,103.912 90.0813347,103.704002 89.8253334,103.288 L78.7373334,85.192 L78.7373334,113.656 C78.7373334,114.040002 78.6093347,114.359999 78.3533334,114.616 C78.0973321,114.872001 77.7773353,115 77.3933334,115 C77.0093315,115 76.6813348,114.872001 76.4093334,114.616 C76.137332,114.359999 76.0013334,114.040002 76.0013334,113.656 L76.0013334,80.344 C76.0013334,80.0559986 76.0893325,79.7840013 76.2653334,79.528 C76.4413343,79.2719987 76.6893318,79.1120003 77.0093334,79.048 C77.2973348,78.9519995 77.585332,78.9599994 77.8733334,79.072 C78.1613348,79.1840006 78.3853326,79.3679987 78.5453334,79.624 L90.9773334,99.928 L103.553333,79.624 C103.713334,79.3679987 103.937332,79.1840006 104.225333,79.072 C104.513335,78.9599994 104.801332,78.9519995 105.089333,79.048 C105.409335,79.1120003 105.657333,79.2719987 105.833333,79.528 C106.009334,79.7840013 106.097333,80.0559986 106.097333,80.344 L106.097333,113.656 C106.097333,114.040002 105.961335,114.359999 105.689333,114.616 C105.417332,114.872001 105.089335,115 104.705333,115 Z M112.438,115 C112.053998,115 111.726001,114.872001 111.454,114.616 C111.181999,114.359999 111.046,114.024002 111.046,113.608 L111.046,80.392 C111.046,79.9759979 111.181999,79.6400013 111.454,79.384 C111.726001,79.1279987 112.053998,79 112.438,79 C112.790002,79 113.101999,79.1279987 113.374,79.384 C113.646001,79.6400013 113.782,79.9759979 113.782,80.392 L113.782,113.608 C113.782,114.024002 113.646001,114.359999 113.374,114.616 C113.101999,114.872001 112.790002,115 112.438,115 Z M144.794667,115 C144.282664,115 143.914668,114.792002 143.690667,114.376 L133.994667,100.264 C133.802666,99.9439984 133.738666,99.6000018 133.802667,99.232 C133.866667,98.8639982 134.058665,98.584001 134.378667,98.392 C134.666668,98.1359987 135.002665,98.0399997 135.386667,98.104 C135.770669,98.1680003 136.058666,98.3759982 136.250667,98.728 L143.450667,109.192 L143.450667,80.392 C143.450667,80.0079981 143.586665,79.6800014 143.858667,79.408 C144.130668,79.1359986 144.442665,79 144.794667,79 C145.178669,79 145.506665,79.1359986 145.778667,79.408 C146.050668,79.6800014 146.186667,80.0079981 146.186667,80.392 L146.186667,113.608 C146.186667,114.280003 145.86667,114.727999 145.226667,114.952 C145.162666,114.952 145.090667,114.96 145.010667,114.976 C144.930666,114.992 144.858667,115 144.794667,115 Z M122.042667,115 C121.658665,115 121.330668,114.864001 121.058667,114.592 C120.786665,114.319999 120.650667,113.992002 120.650667,113.608 L120.650667,80.392 C120.650667,79.7199966 120.970664,79.2720011 121.610667,79.048 C121.898668,78.9839997 122.186665,78.9999995 122.474667,79.096 C122.762668,79.1920005 122.986666,79.3679987 123.146667,79.624 L132.938667,93.832 C133.130668,94.1520016 133.194667,94.4959982 133.130667,94.864 C133.066666,95.2320018 132.890668,95.5279989 132.602667,95.752 C132.282665,95.9760011 131.938669,96.0560003 131.570667,95.992 C131.202665,95.9279997 130.906668,95.7200018 130.682667,95.368 L123.386667,84.808 L123.386667,113.608 C123.386667,113.992002 123.258668,114.319999 123.002667,114.592 C122.746666,114.864001 122.426669,115 122.042667,115 Z M177.727333,115 C177.343332,115 177.015335,114.864001 176.743333,114.592 C176.471332,114.319999 176.335333,114.008002 176.335333,113.656 L176.335333,103.864 L168.655333,103.864 C168.271332,103.864 167.935335,103.736001 167.647333,103.48 C167.359332,103.223999 167.215333,102.904002 167.215333,102.52 C167.215333,102.135998 167.359332,101.816001 167.647333,101.56 C167.935335,101.303999 168.271332,101.176 168.655333,101.176 L177.727333,101.176 C178.079335,101.176 178.391332,101.303999 178.663333,101.56 C178.935335,101.816001 179.071333,102.135998 179.071333,102.52 L179.071333,113.656 C179.071333,114.008002 178.935335,114.319999 178.663333,114.592 C178.391332,114.864001 178.079335,115 177.727333,115 Z M174.079333,82.504 C174.943338,83.4000045 175.615331,84.3359951 176.095333,85.312 C176.575336,86.2880049 176.927332,87.2079957 177.151333,88.072 C177.375335,88.9360043 177.511333,89.663997 177.559333,90.256 C177.607334,90.848003 177.631333,91.2079994 177.631333,91.336 L177.631333,91.384 C177.631333,91.7360018 177.495335,92.0399987 177.223333,92.296 C176.951332,92.5520013 176.623335,92.68 176.239333,92.68 C175.887332,92.68 175.575335,92.5440014 175.303333,92.272 C175.031332,91.9999986 174.895333,91.6880018 174.895333,91.336 C174.895333,91.1119989 174.879334,90.8720013 174.847333,90.616 C174.783333,90.1999979 174.687334,89.6240037 174.559333,88.888 C174.303332,87.9919955 173.959336,87.1680038 173.527333,86.416 C173.095331,85.6639962 172.607336,85.0000029 172.063333,84.424 C170.239324,82.5359906 167.567351,81.592 164.047333,81.592 C161.519321,81.592 159.527341,82.0479954 158.071333,82.96 C156.615326,83.8720046 155.519337,85.0559927 154.783333,86.512 C154.04733,87.9680073 153.583334,89.6159908 153.391333,91.456 C153.199333,93.2960092 153.103333,95.1439907 153.103333,97 C153.103333,97.608003 153.111333,98.311996 153.127333,99.112 C153.143334,99.912004 153.199333,100.751996 153.295333,101.632 C153.391334,102.512004 153.535333,103.407995 153.727333,104.32 C153.919334,105.232005 154.191332,106.103996 154.543333,106.936 C155.375338,108.760009 156.567326,110.127995 158.119333,111.04 C159.671341,111.952005 161.647321,112.408 164.047333,112.408 C167.43935,112.408 170.047324,111.496009 171.871333,109.672 C172.159335,109.383999 172.479332,109.24 172.831333,109.24 C173.215335,109.24 173.543332,109.375999 173.815333,109.648 C174.087335,109.920001 174.223333,110.247998 174.223333,110.632 C174.223333,110.984002 174.095335,111.319998 173.839333,111.64 C172.815328,112.632005 171.527341,113.463997 169.975333,114.136 C168.423326,114.808003 166.447345,115.144 164.047333,115.144 C160.879318,115.144 158.287344,114.472007 156.271333,113.128 C154.351324,111.847994 152.943338,110.152011 152.047333,108.04 C151.631331,107.079995 151.311335,106.088005 151.087333,105.064 C150.863332,104.039995 150.695334,103.048005 150.583333,102.088 C150.471333,101.127995 150.407334,100.208004 150.391333,99.328 C150.375333,98.4479956 150.367333,97.6720034 150.367333,97 C150.367333,96.2959965 150.375333,95.4960045 150.391333,94.6 C150.407334,93.7039955 150.463333,92.7760048 150.559333,91.816 C150.655334,90.8559952 150.815332,89.880005 151.039333,88.888 C151.263335,87.895995 151.583331,86.9200048 151.999333,85.96 C152.895338,83.8479894 154.287324,82.1680062 156.175333,80.92 C158.287344,79.5439931 160.911318,78.856 164.047333,78.856 C168.303355,78.856 171.647321,80.0719878 174.079333,82.504 Z M212.176667,88.6 L212.152667,88.6 L212.176667,88.6 Z M212.176667,88.6 L212.200667,88.6 L212.176667,88.264 C212.160667,88.0399989 212.112667,87.7600017 212.032667,87.424 C211.952666,87.0879983 211.848668,86.7120021 211.720667,86.296 C211.592666,85.8799979 211.400668,85.4480022 211.144667,85 C209.86466,82.7279886 207.624683,81.592 204.424667,81.592 C202.824659,81.592 201.528672,81.8079978 200.536667,82.24 C199.544662,82.6720022 198.76867,83.2239966 198.208667,83.896 C197.648664,84.5680034 197.264668,85.3199958 197.056667,86.152 C196.848666,86.9840042 196.744667,87.7839962 196.744667,88.552 C196.744667,89.2560035 196.824666,89.9839962 196.984667,90.736 C197.144668,91.4880038 197.440665,92.1919967 197.872667,92.848 C198.304669,93.5040033 198.904663,94.0719976 199.672667,94.552 C200.440671,95.0320024 201.448661,95.3519992 202.696667,95.512 C203.048669,95.5760003 203.344666,95.7599985 203.584667,96.064 C203.824668,96.3680015 203.912667,96.6959982 203.848667,97.048 C203.784667,97.4000018 203.632668,97.6879989 203.392667,97.912 C203.152666,98.1360011 202.856669,98.248 202.504667,98.248 C202.408666,98.248 202.344667,98.2320002 202.312667,98.2 C200.392657,98.007999 198.808673,97.4320048 197.560667,96.472 C196.408661,95.6399958 195.56067,94.6160061 195.016667,93.4 C194.760666,92.8879974 194.560668,92.3840025 194.416667,91.888 C194.272666,91.3919975 194.168667,90.9280022 194.104667,90.496 C194.040667,90.0639978 194.000667,89.6800017 193.984667,89.344 C193.968667,89.0079983 193.960667,88.744001 193.960667,88.552 C193.960667,88.3919992 193.968667,88.1280018 193.984667,87.76 C194.000667,87.3919982 194.040667,86.9680024 194.104667,86.488 C194.232668,85.879997 194.384666,85.3040027 194.560667,84.76 C194.736668,84.2159973 194.984665,83.6880026 195.304667,83.176 C196.040671,81.9279938 197.12866,80.904004 198.568667,80.104 C199.336671,79.7199981 200.216662,79.4160011 201.208667,79.192 C202.200672,78.9679989 203.272661,78.856 204.424667,78.856 C205.768674,78.856 206.936662,79.0079985 207.928667,79.312 C208.920672,79.6160015 209.784663,79.9999977 210.520667,80.464 C211.256671,80.9280023 211.872664,81.4479971 212.368667,82.024 C212.864669,82.6000029 213.272665,83.1599973 213.592667,83.704 C214.20067,84.8240056 214.576666,85.8479954 214.720667,86.776 C214.864668,87.7040046 214.936667,88.2799989 214.936667,88.504 L214.936667,88.552 C214.936667,88.9360019 214.800668,89.2639986 214.528667,89.536 C214.256666,89.8080014 213.944669,89.944 213.592667,89.944 C213.208665,89.944 212.880668,89.8160013 212.608667,89.56 C212.336666,89.3039987 212.200667,88.9840019 212.200667,88.6 L212.176667,88.6 Z M214.024667,100.936 C214.472669,101.960005 214.736666,102.927995 214.816667,103.84 C214.896667,104.752005 214.936667,105.399998 214.936667,105.784 C214.936667,106.232002 214.880667,106.951995 214.768667,107.944 C214.656666,108.936005 214.28067,109.975995 213.640667,111.064 C213.224665,111.704003 212.73667,112.263998 212.176667,112.744 C211.616664,113.224002 210.98467,113.639998 210.280667,113.992 C209.544663,114.344002 208.680672,114.623999 207.688667,114.832 C206.696662,115.040001 205.624673,115.144 204.472667,115.144 C203.12866,115.144 201.952672,115.000001 200.944667,114.712 C199.936662,114.423999 199.064671,114.056002 198.328667,113.608 C197.592663,113.159998 196.976669,112.664003 196.480667,112.12 C195.984664,111.575997 195.592668,111.032003 195.304667,110.488 C194.984665,109.911997 194.736668,109.344003 194.560667,108.784 C194.384666,108.223997 194.248667,107.728002 194.152667,107.296 C194.056666,106.863998 194.000667,106.512001 193.984667,106.24 C193.968667,105.967999 193.960667,105.816 193.960667,105.784 C193.960667,105.399998 194.096666,105.064001 194.368667,104.776 C194.640668,104.487999 194.968665,104.344 195.352667,104.344 C195.704669,104.344 196.024665,104.487999 196.312667,104.776 C196.600668,105.064001 196.744667,105.399998 196.744667,105.784 C196.744667,105.816 196.784666,106.175997 196.864667,106.864 C196.944667,107.552003 197.224664,108.311996 197.704667,109.144 C198.984673,111.320011 201.240651,112.408 204.472667,112.408 C209.592692,112.408 212.152667,110.200022 212.152667,105.784 C212.152667,101.655979 210.360685,99.2560034 206.776667,98.584 C206.392665,98.5199997 206.096668,98.3280016 205.888667,98.008 C205.680666,97.6879984 205.624666,97.3360019 205.720667,96.952 C205.784667,96.5679981 205.968665,96.280001 206.272667,96.088 C206.576668,95.895999 206.936665,95.8319997 207.352667,95.896 C209.080676,96.1840014 210.520661,96.8399949 211.672667,97.864 C212.696672,98.664004 213.480664,99.6879938 214.024667,100.936 Z M232.605334,115.144 C227.997311,115.144 224.573345,113.736014 222.333334,110.92 C219.901321,108.007985 218.685334,103.368032 218.685334,97 C218.685334,95.3679918 218.757333,93.8800067 218.901334,92.536 C219.045334,91.1919933 219.245332,89.9440058 219.501334,88.792 C220.045336,86.3599878 220.893328,84.4560069 222.045334,83.08 C223.22934,81.6399928 224.733324,80.5520037 226.557334,79.816 C228.157342,79.1759968 230.173321,78.856 232.605334,78.856 C233.78934,78.856 234.893328,78.9439991 235.917334,79.12 C236.941339,79.2960009 237.869329,79.5919979 238.701334,80.008 C240.461342,80.7120035 241.965327,81.863992 243.213334,83.464 C245.357344,86.4080147 246.429334,90.9199696 246.429334,97 C246.429334,99.9120146 246.157336,102.535988 245.613334,104.872 C245.325332,105.992006 244.957336,107.031995 244.509334,107.992 C244.061331,108.952005 243.517337,109.815996 242.877334,110.584 C240.573322,113.624015 237.149356,115.144 232.605334,115.144 Z M232.605334,81.64 C228.605314,81.64 225.789342,82.6959894 224.157334,84.808 C222.333324,87.208012 221.421334,91.2719714 221.421334,97 C221.421334,99.9120146 221.669331,102.35999 222.165334,104.344 C222.661336,106.32801 223.389329,107.943994 224.349334,109.192 C226.045342,111.304011 228.797315,112.36 232.605334,112.36 C236.285352,112.36 239.021325,111.176012 240.813334,108.808 C241.741338,107.527994 242.453331,105.90401 242.949334,103.936 C243.445336,101.96799 243.693334,99.6560133 243.693334,97 C243.693334,91.591973 242.813342,87.6560123 241.053334,85.192 C239.293325,82.8239882 236.477353,81.64 232.605334,81.64 Z M263.954,115.144 C259.345977,115.144 255.922011,113.736014 253.682,110.92 C251.249988,108.007985 250.034,103.368032 250.034,97 C250.034,95.3679918 250.106,93.8800067 250.25,92.536 C250.394001,91.1919933 250.593999,89.9440058 250.85,88.792 C251.394003,86.3599878 252.241995,84.4560069 253.394,83.08 C254.578006,81.6399928 256.081991,80.5520037 257.906,79.816 C259.506008,79.1759968 261.521988,78.856 263.954,78.856 C265.138006,78.856 266.241995,78.9439991 267.266,79.12 C268.290005,79.2960009 269.217996,79.5919979 270.05,80.008 C271.810009,80.7120035 273.313994,81.863992 274.562,83.464 C276.706011,86.4080147 277.778,90.9199696 277.778,97 C277.778,99.9120146 277.506003,102.535988 276.962,104.872 C276.673999,105.992006 276.306003,107.031995 275.858,107.992 C275.409998,108.952005 274.866003,109.815996 274.226,110.584 C271.921989,113.624015 268.498023,115.144 263.954,115.144 Z M263.954,81.64 C259.95398,81.64 257.138008,82.6959894 255.506,84.808 C253.681991,87.208012 252.77,91.2719714 252.77,97 C252.77,99.9120146 253.017998,102.35999 253.514,104.344 C254.010003,106.32801 254.737995,107.943994 255.698,109.192 C257.394009,111.304011 260.145981,112.36 263.954,112.36 C267.634019,112.36 270.369991,111.176012 272.162,108.808 C273.090005,107.527994 273.801998,105.90401 274.298,103.936 C274.794003,101.96799 275.042,99.6560133 275.042,97 C275.042,91.591973 274.162009,87.6560123 272.402,85.192 C270.641991,82.8239882 267.82602,81.64 263.954,81.64 Z M306.822667,115 C306.310664,115 305.942668,114.792002 305.718667,114.376 L296.022667,100.264 C295.830666,99.9439984 295.766667,99.6000018 295.830667,99.232 C295.894667,98.8639982 296.086665,98.584001 296.406667,98.392 C296.694668,98.1359987 297.030665,98.0399997 297.414667,98.104 C297.798669,98.1680003 298.086666,98.3759982 298.278667,98.728 L305.478667,109.192 L305.478667,80.392 C305.478667,80.0079981 305.614666,79.6800014 305.886667,79.408 C306.158668,79.1359986 306.470665,79 306.822667,79 C307.206669,79 307.534666,79.1359986 307.806667,79.408 C308.078668,79.6800014 308.214667,80.0079981 308.214667,80.392 L308.214667,113.608 C308.214667,114.280003 307.89467,114.727999 307.254667,114.952 C307.190667,114.952 307.118667,114.96 307.038667,114.976 C306.958667,114.992 306.886667,115 306.822667,115 Z M284.070667,115 C283.686665,115 283.358668,114.864001 283.086667,114.592 C282.814666,114.319999 282.678667,113.992002 282.678667,113.608 L282.678667,80.392 C282.678667,79.7199966 282.998664,79.2720011 283.638667,79.048 C283.926668,78.9839997 284.214666,78.9999995 284.502667,79.096 C284.790668,79.1920005 285.014666,79.3679987 285.174667,79.624 L294.966667,93.832 C295.158668,94.1520016 295.222667,94.4959982 295.158667,94.864 C295.094667,95.2320018 294.918668,95.5279989 294.630667,95.752 C294.310665,95.9760011 293.966669,96.0560003 293.598667,95.992 C293.230665,95.9279997 292.934668,95.7200018 292.710667,95.368 L285.414667,84.808 L285.414667,113.608 C285.414667,113.992002 285.286668,114.319999 285.030667,114.592 C284.774666,114.864001 284.454669,115 284.070667,115 Z M314.891334,109.912 C314.507332,109.912 314.187335,109.776001 313.931334,109.504 C313.675332,109.231999 313.547334,108.904002 313.547334,108.52 L313.547334,80.392 C313.547334,79.9759979 313.675332,79.6400013 313.931334,79.384 C314.187335,79.1279987 314.507332,79 314.891334,79 C315.243335,79 315.563332,79.1279987 315.851334,79.384 C316.139335,79.6400013 316.283334,79.9759979 316.283334,80.392 L316.283334,108.52 C316.283334,108.904002 316.139335,109.231999 315.851334,109.504 C315.563332,109.776001 315.243335,109.912 314.891334,109.912 Z M316.187334,113.608 C316.187334,114.024002 316.051335,114.359999 315.779334,114.616 C315.507332,114.872001 315.195335,115 314.843334,115 C314.427332,115 314.091335,114.872001 313.835334,114.616 C313.579332,114.359999 313.451334,114.024002 313.451334,113.608 C313.451334,113.223998 313.579332,112.904001 313.835334,112.648 C314.091335,112.391999 314.427332,112.264 314.843334,112.264 C315.195335,112.264 315.507332,112.391999 315.779334,112.648 C316.051335,112.904001 316.187334,113.223998 316.187334,113.608 Z" id="COMING-SOON!" fill="#FFFFFF"></path>
                <rect id="Rectangle" x="0" y="0" width="332" height="131"></rect>
            </g>
        </g>
    </g>
</svg>