<?xml version="1.0" encoding="UTF-8"?>
<svg width="259px" height="67px" viewBox="0 0 259 67" version="1.1" xmlns="http://www.w3.org/2000/svg" xmlns:xlink="http://www.w3.org/1999/xlink">
    <!-- Generator: Sketch 48.2 (47327) - http://www.bohemiancoding.com/sketch -->
    <title>Füllen sie die unten</title>
    <desc>Created with Sketch.</desc>
    <defs></defs>
    <g id="MyRide-Copy-3" stroke="none" stroke-width="1" fill="none" fill-rule="evenodd" transform="translate(-101.000000, -202.000000)">
        <path d="M101.464,220 L101.464,202.864 L109.672,202.864 L109.672,203.776 L102.472,203.776 L102.472,210.616 L109.168,210.616 L109.168,211.528 L102.472,211.528 L102.472,220 L101.464,220 Z M119.228667,207.448 L119.228667,220 L118.316667,220 L118.316667,218.104 L118.268667,218.104 C117.836667,219.208 116.780667,220.288 115.076667,220.288 C113.300667,220.288 111.908667,219.28 111.908667,216.904 L111.908667,207.448 L112.820667,207.448 L112.820667,216.472 C112.820667,218.704 113.756667,219.472 115.316667,219.472 C117.236667,219.472 118.316667,217.672 118.316667,215.488 L118.316667,207.448 L119.228667,207.448 Z M116.684667,205.168 L116.684667,202.72 L117.692667,202.72 L117.692667,205.168 L116.684667,205.168 Z M113.468667,205.168 L113.468667,202.72 L114.476667,202.72 L114.476667,205.168 L113.468667,205.168 Z M122.689333,220 L122.689333,202.864 L123.601333,202.864 L123.601333,220 L122.689333,220 Z M127.158,220 L127.158,202.864 L128.07,202.864 L128.07,220 L127.158,220 Z M132.226667,212.848 L138.322667,212.848 C138.322667,210.568 137.962667,207.976 135.370667,207.976 C132.586667,207.976 132.226667,211.216 132.226667,212.848 Z M139.330667,213.664 L132.226667,213.664 C132.226667,215.68 132.250667,219.472 135.178667,219.472 C137.818667,219.472 138.250667,216.832 138.250667,215.896 L139.162667,215.896 C139.162667,217.816 138.106667,220.288 135.274667,220.288 C132.034667,220.288 131.218667,217.648 131.218667,213.376 C131.218667,209.536 132.586667,207.16 135.418667,207.16 C138.370667,207.16 139.330667,209.608 139.330667,213.664 Z M142.215333,220 L142.215333,207.448 L143.127333,207.448 L143.127333,209.344 L143.175333,209.344 C143.607333,208.24 144.663333,207.16 146.367333,207.16 C148.143333,207.16 149.535333,208.168 149.535333,210.544 L149.535333,220 L148.623333,220 L148.623333,210.976 C148.623333,208.744 147.687333,207.976 146.127333,207.976 C144.207333,207.976 143.127333,209.776 143.127333,211.96 L143.127333,220 L142.215333,220 Z M165.864667,210.976 L164.952667,210.976 L164.952667,210.616 C164.952667,209.488 164.664667,207.976 162.600667,207.976 C161.280667,207.976 160.176667,208.648 160.176667,210.304 C160.176667,211.624 160.800667,212.296 162.048667,212.776 L163.968667,213.496 C165.480667,214.072 166.248667,215.128 166.248667,216.832 C166.248667,218.944 164.616667,220.288 162.624667,220.288 C159.144667,220.288 158.904667,217.792 158.904667,216.328 L158.904667,215.992 L159.816667,215.992 L159.816667,216.4 C159.816667,218.176 160.536667,219.472 162.624667,219.472 C164.472667,219.472 165.240667,218.248 165.240667,216.856 C165.240667,215.656 164.760667,214.84 163.368667,214.288 L161.520667,213.544 C159.960667,212.92 159.168667,212.008 159.168667,210.4 C159.168667,208.312 160.608667,207.16 162.600667,207.16 C165.384667,207.16 165.864667,209.056 165.864667,210.592 L165.864667,210.976 Z M169.037333,220 L169.037333,207.448 L169.949333,207.448 L169.949333,220 L169.037333,220 Z M169.037333,205.312 L169.037333,202.864 L169.949333,202.864 L169.949333,205.312 L169.037333,205.312 Z M174.106,212.848 L180.202,212.848 C180.202,210.568 179.842,207.976 177.25,207.976 C174.466,207.976 174.106,211.216 174.106,212.848 Z M181.21,213.664 L174.106,213.664 C174.106,215.68 174.13,219.472 177.058,219.472 C179.698,219.472 180.13,216.832 180.13,215.896 L181.042,215.896 C181.042,217.816 179.986,220.288 177.154,220.288 C173.914,220.288 173.098,217.648 173.098,213.376 C173.098,209.536 174.466,207.16 177.298,207.16 C180.25,207.16 181.21,209.608 181.21,213.664 Z M197.587334,220 L197.587334,217.576 L197.539334,217.576 C197.227334,219.28 196.123334,220.288 194.371334,220.288 C191.443334,220.288 190.459334,217.576 190.459334,213.688 C190.459334,209.848 191.323334,207.16 194.419334,207.16 C196.147334,207.16 197.083334,208.312 197.539334,209.656 L197.587334,209.656 L197.587334,202.864 L198.499334,202.864 L198.499334,220 L197.587334,220 Z M191.467334,213.688 C191.467334,216.88 192.043334,219.472 194.515334,219.472 C196.747334,219.472 197.587334,217.36 197.587334,213.688 C197.611334,209.56 196.363334,207.976 194.467334,207.976 C192.307334,207.976 191.467334,209.872 191.467334,213.688 Z M202.008,220 L202.008,207.448 L202.92,207.448 L202.92,220 L202.008,220 Z M202.008,205.312 L202.008,202.864 L202.92,202.864 L202.92,205.312 L202.008,205.312 Z M207.076667,212.848 L213.172667,212.848 C213.172667,210.568 212.812667,207.976 210.220667,207.976 C207.436667,207.976 207.076667,211.216 207.076667,212.848 Z M214.180667,213.664 L207.076667,213.664 C207.076667,215.68 207.100667,219.472 210.028667,219.472 C212.668667,219.472 213.100667,216.832 213.100667,215.896 L214.012667,215.896 C214.012667,217.816 212.956667,220.288 210.124667,220.288 C206.884667,220.288 206.068667,217.648 206.068667,213.376 C206.068667,209.536 207.436667,207.16 210.268667,207.16 C213.220667,207.16 214.180667,209.608 214.180667,213.664 Z M231.062,207.448 L231.062,220 L230.15,220 L230.15,218.104 L230.102,218.104 C229.67,219.208 228.614,220.288 226.91,220.288 C225.134,220.288 223.742,219.28 223.742,216.904 L223.742,207.448 L224.654,207.448 L224.654,216.472 C224.654,218.704 225.59,219.472 227.15,219.472 C229.07,219.472 230.15,217.672 230.15,215.488 L230.15,207.448 L231.062,207.448 Z M234.426667,220 L234.426667,207.448 L235.338667,207.448 L235.338667,209.344 L235.386667,209.344 C235.818667,208.24 236.874667,207.16 238.578667,207.16 C240.354667,207.16 241.746667,208.168 241.746667,210.544 L241.746667,220 L240.834667,220 L240.834667,210.976 C240.834667,208.744 239.898667,207.976 238.338667,207.976 C236.418667,207.976 235.338667,209.776 235.338667,211.96 L235.338667,220 L234.426667,220 Z M244.079334,208.264 L244.079334,207.448 L245.783334,207.448 L245.783334,203.728 L246.695334,203.728 L246.695334,207.448 L248.783334,207.448 L248.783334,208.264 L246.695334,208.264 L246.695334,217.936 C246.695334,219.136 247.271334,219.328 247.799334,219.328 C248.183334,219.328 248.519334,219.304 248.927334,219.184 L248.927334,220 C248.471334,220.096 247.991334,220.144 247.631334,220.144 C246.335334,220.144 245.783334,219.4 245.783334,218.032 L245.783334,208.264 L244.079334,208.264 Z M251.62,212.848 L257.716,212.848 C257.716,210.568 257.356,207.976 254.764,207.976 C251.98,207.976 251.62,211.216 251.62,212.848 Z M258.724,213.664 L251.62,213.664 C251.62,215.68 251.644,219.472 254.572,219.472 C257.212,219.472 257.644,216.832 257.644,215.896 L258.556,215.896 C258.556,217.816 257.5,220.288 254.668,220.288 C251.428,220.288 250.612,217.648 250.612,213.376 C250.612,209.536 251.98,207.16 254.812,207.16 C257.764,207.16 258.724,209.608 258.724,213.664 Z M261.608667,220 L261.608667,207.448 L262.520667,207.448 L262.520667,209.344 L262.568667,209.344 C263.000667,208.24 264.056667,207.16 265.760667,207.16 C267.536667,207.16 268.928667,208.168 268.928667,210.544 L268.928667,220 L268.016667,220 L268.016667,210.976 C268.016667,208.744 267.080667,207.976 265.520667,207.976 C263.600667,207.976 262.520667,209.776 262.520667,211.96 L262.520667,220 L261.608667,220 Z M278.581334,210.976 L277.669334,210.976 L277.669334,210.616 C277.669334,209.488 277.381334,207.976 275.317334,207.976 C273.997334,207.976 272.893334,208.648 272.893334,210.304 C272.893334,211.624 273.517334,212.296 274.765334,212.776 L276.685334,213.496 C278.197334,214.072 278.965334,215.128 278.965334,216.832 C278.965334,218.944 277.333334,220.288 275.341334,220.288 C271.861334,220.288 271.621334,217.792 271.621334,216.328 L271.621334,215.992 L272.533334,215.992 L272.533334,216.4 C272.533334,218.176 273.253334,219.472 275.341334,219.472 C277.189334,219.472 277.957334,218.248 277.957334,216.856 C277.957334,215.656 277.477334,214.84 276.085334,214.288 L274.237334,213.544 C272.677334,212.92 271.885334,212.008 271.885334,210.4 C271.885334,208.312 273.325334,207.16 275.317334,207.16 C278.101334,207.16 278.581334,209.056 278.581334,210.592 L278.581334,210.976 Z M280.626,208.264 L280.626,207.448 L282.33,207.448 L282.33,203.728 L283.242,203.728 L283.242,207.448 L285.33,207.448 L285.33,208.264 L283.242,208.264 L283.242,217.936 C283.242,219.136 283.818,219.328 284.346,219.328 C284.73,219.328 285.066,219.304 285.474,219.184 L285.474,220 C285.018,220.096 284.538,220.144 284.178,220.144 C282.882,220.144 282.33,219.4 282.33,218.032 L282.33,208.264 L280.626,208.264 Z M288.166667,212.848 L294.262667,212.848 C294.262667,210.568 293.902667,207.976 291.310667,207.976 C288.526667,207.976 288.166667,211.216 288.166667,212.848 Z M295.270667,213.664 L288.166667,213.664 C288.166667,215.68 288.190667,219.472 291.118667,219.472 C293.758667,219.472 294.190667,216.832 294.190667,215.896 L295.102667,215.896 C295.102667,217.816 294.046667,220.288 291.214667,220.288 C287.974667,220.288 287.158667,217.648 287.158667,213.376 C287.158667,209.536 288.526667,207.16 291.358667,207.16 C294.310667,207.16 295.270667,209.608 295.270667,213.664 Z M298.155334,220 L298.155334,202.864 L299.067334,202.864 L299.067334,209.344 L299.115334,209.344 C299.547334,208.24 300.603334,207.16 302.307334,207.16 C304.083334,207.16 305.475334,208.168 305.475334,210.544 L305.475334,220 L304.563334,220 L304.563334,210.976 C304.563334,208.744 303.627334,207.976 302.067334,207.976 C300.147334,207.976 299.067334,209.776 299.067334,211.96 L299.067334,220 L298.155334,220 Z M309.536,212.848 L315.632,212.848 C315.632,210.568 315.272,207.976 312.68,207.976 C309.896,207.976 309.536,211.216 309.536,212.848 Z M316.64,213.664 L309.536,213.664 C309.536,215.68 309.56,219.472 312.488,219.472 C315.128,219.472 315.56,216.832 315.56,215.896 L316.472,215.896 C316.472,217.816 315.416,220.288 312.584,220.288 C309.344,220.288 308.528,217.648 308.528,213.376 C308.528,209.536 309.896,207.16 312.728,207.16 C315.68,207.16 316.64,209.608 316.64,213.664 Z M319.524667,220 L319.524667,207.448 L320.436667,207.448 L320.436667,209.344 L320.484667,209.344 C320.916667,208.24 321.972667,207.16 323.676667,207.16 C325.452667,207.16 326.844667,208.168 326.844667,210.544 L326.844667,220 L325.932667,220 L325.932667,210.976 C325.932667,208.744 324.996667,207.976 323.436667,207.976 C321.516667,207.976 320.436667,209.776 320.436667,211.96 L320.436667,220 L319.524667,220 Z M337.025334,220 L337.025334,217.576 L336.977334,217.576 C336.665334,219.28 335.561334,220.288 333.809334,220.288 C330.881334,220.288 329.897334,217.576 329.897334,213.688 C329.897334,209.848 330.761334,207.16 333.857334,207.16 C335.585334,207.16 336.521334,208.312 336.977334,209.656 L337.025334,209.656 L337.025334,202.864 L337.937334,202.864 L337.937334,220 L337.025334,220 Z M330.905334,213.688 C330.905334,216.88 331.481334,219.472 333.953334,219.472 C336.185334,219.472 337.025334,217.36 337.025334,213.688 C337.049334,209.56 335.801334,207.976 333.905334,207.976 C331.745334,207.976 330.905334,209.872 330.905334,213.688 Z M342.046001,212.848 L348.142001,212.848 C348.142001,210.568 347.782001,207.976 345.190001,207.976 C342.406001,207.976 342.046001,211.216 342.046001,212.848 Z M349.150001,213.664 L342.046001,213.664 C342.046001,215.68 342.070001,219.472 344.998001,219.472 C347.638001,219.472 348.070001,216.832 348.070001,215.896 L348.982001,215.896 C348.982001,217.816 347.926001,220.288 345.094001,220.288 C341.854001,220.288 341.038001,217.648 341.038001,213.376 C341.038001,209.536 342.406001,207.16 345.238001,207.16 C348.190001,207.16 349.150001,209.608 349.150001,213.664 Z M352.034667,220 L352.034667,207.448 L352.946667,207.448 L352.946667,209.344 L352.994667,209.344 C353.426667,208.24 354.482667,207.16 356.186667,207.16 C357.962667,207.16 359.354667,208.168 359.354667,210.544 L359.354667,220 L358.442667,220 L358.442667,210.976 C358.442667,208.744 357.506667,207.976 355.946667,207.976 C354.026667,207.976 352.946667,209.776 352.946667,211.96 L352.946667,220 L352.034667,220 Z M101.464,244 L101.464,226.864 L109.672,226.864 L109.672,227.776 L102.472,227.776 L102.472,234.616 L109.168,234.616 L109.168,235.528 L102.472,235.528 L102.472,244 L101.464,244 Z M112.172667,236.848 L118.268667,236.848 C118.268667,234.568 117.908667,231.976 115.316667,231.976 C112.532667,231.976 112.172667,235.216 112.172667,236.848 Z M119.276667,237.664 L112.172667,237.664 C112.172667,239.68 112.196667,243.472 115.124667,243.472 C117.764667,243.472 118.196667,240.832 118.196667,239.896 L119.108667,239.896 C119.108667,241.816 118.052667,244.288 115.220667,244.288 C111.980667,244.288 111.164667,241.648 111.164667,237.376 C111.164667,233.536 112.532667,231.16 115.364667,231.16 C118.316667,231.16 119.276667,233.608 119.276667,237.664 Z M122.257333,244 L122.257333,226.864 L123.169333,226.864 L123.169333,244 L122.257333,244 Z M133.446,244 L133.446,241.576 L133.398,241.576 C133.086,243.28 131.982,244.288 130.23,244.288 C127.302,244.288 126.318,241.576 126.318,237.688 C126.318,233.848 127.182,231.16 130.278,231.16 C132.006,231.16 132.942,232.312 133.398,233.656 L133.446,233.656 L133.446,226.864 L134.358,226.864 L134.358,244 L133.446,244 Z M127.326,237.688 C127.326,240.88 127.902,243.472 130.374,243.472 C132.606,243.472 133.446,241.36 133.446,237.688 C133.47,233.56 132.222,231.976 130.326,231.976 C128.166,231.976 127.326,233.872 127.326,237.688 Z M138.466667,236.848 L144.562667,236.848 C144.562667,234.568 144.202667,231.976 141.610667,231.976 C138.826667,231.976 138.466667,235.216 138.466667,236.848 Z M145.570667,237.664 L138.466667,237.664 C138.466667,239.68 138.490667,243.472 141.418667,243.472 C144.058667,243.472 144.490667,240.832 144.490667,239.896 L145.402667,239.896 C145.402667,241.816 144.346667,244.288 141.514667,244.288 C138.274667,244.288 137.458667,241.648 137.458667,237.376 C137.458667,233.536 138.826667,231.16 141.658667,231.16 C144.610667,231.16 145.570667,233.608 145.570667,237.664 Z M148.455333,244 L148.455333,231.448 L149.367333,231.448 L149.367333,233.632 L149.415333,233.632 C149.871333,232.192 150.903333,231.16 152.559333,231.16 L153.087333,231.16 L153.087333,231.976 L152.559333,231.976 C150.423333,231.976 149.367333,233.968 149.367333,236.032 L149.367333,244 L148.455333,244 Z M168.576667,234.472 L168.576667,242.488 C168.576667,243.088 168.816667,243.328 169.128667,243.328 C169.344667,243.328 169.536667,243.304 169.704667,243.208 L169.704667,243.928 C169.512667,244.072 169.152667,244.144 168.744667,244.144 C168.360667,244.144 167.664667,243.76 167.664667,242.776 L167.664667,241.984 L167.616667,241.984 C167.256667,243.28 166.008667,244.288 164.328667,244.288 C162.144667,244.288 161.184667,242.728 161.184667,240.784 C161.184667,238.888 161.952667,237.808 163.728667,237.328 L166.440667,236.584 C167.520667,236.296 167.664667,235.792 167.664667,234.736 C167.664667,232.456 166.608667,231.976 165.240667,231.976 C163.128667,231.976 162.504667,233.296 162.504667,235.024 L161.592667,235.024 C161.592667,233.32 162.216667,231.16 165.144667,231.16 C167.904667,231.16 168.576667,232.672 168.576667,234.472 Z M167.664667,239.272 L167.664667,236.68 L167.616667,236.68 C167.304667,237.184 166.968667,237.256 166.032667,237.52 L164.184667,238.024 C162.720667,238.432 162.192667,239.296 162.192667,240.784 C162.192667,242.416 162.912667,243.472 164.496667,243.472 C166.632667,243.472 167.664667,241.792 167.664667,239.272 Z M179.405333,231.448 L179.405333,244 L178.493333,244 L178.493333,242.104 L178.445333,242.104 C178.013333,243.208 176.957333,244.288 175.253333,244.288 C173.477333,244.288 172.085333,243.28 172.085333,240.904 L172.085333,231.448 L172.997333,231.448 L172.997333,240.472 C172.997333,242.704 173.933333,243.472 175.493333,243.472 C177.413333,243.472 178.493333,241.672 178.493333,239.488 L178.493333,231.448 L179.405333,231.448 Z M189.058,234.976 L188.146,234.976 L188.146,234.616 C188.146,233.488 187.858,231.976 185.794,231.976 C184.474,231.976 183.37,232.648 183.37,234.304 C183.37,235.624 183.994,236.296 185.242,236.776 L187.162,237.496 C188.674,238.072 189.442,239.128 189.442,240.832 C189.442,242.944 187.81,244.288 185.818,244.288 C182.338,244.288 182.098,241.792 182.098,240.328 L182.098,239.992 L183.01,239.992 L183.01,240.4 C183.01,242.176 183.73,243.472 185.818,243.472 C187.666,243.472 188.434,242.248 188.434,240.856 C188.434,239.656 187.954,238.84 186.562,238.288 L184.714,237.544 C183.154,236.92 182.362,236.008 182.362,234.4 C182.362,232.312 183.802,231.16 185.794,231.16 C188.578,231.16 189.058,233.056 189.058,234.592 L189.058,234.976 Z M206.131334,231.448 L206.131334,244 L205.219334,244 L205.219334,242.104 L205.171334,242.104 C204.739334,243.208 203.683334,244.288 201.979334,244.288 C200.203334,244.288 198.811334,243.28 198.811334,240.904 L198.811334,231.448 L199.723334,231.448 L199.723334,240.472 C199.723334,242.704 200.659334,243.472 202.219334,243.472 C204.139334,243.472 205.219334,241.672 205.219334,239.488 L205.219334,231.448 L206.131334,231.448 Z M209.64,244 L209.64,231.448 L210.552,231.448 L210.552,233.32 L210.6,233.32 C210.96,232.024 212.064,231.16 213.624,231.16 C215.568,231.16 216.168,232.36 216.336,233.512 L216.384,233.512 C216.552,232.6 217.488,231.16 219.456,231.16 C221.448,231.16 222.456,232.36 222.456,234.352 L222.456,244 L221.544,244 L221.544,234.568 C221.544,232.888 220.68,231.976 219.384,231.976 C217.512,231.976 216.504,233.512 216.504,235.672 L216.504,244 L215.592,244 L215.592,235 C215.592,233.128 214.968,231.976 213.384,231.976 C211.416,231.976 210.552,233.704 210.552,235.672 L210.552,244 L209.64,244 Z M240.297334,244 L237.921334,232.744 L237.873334,232.744 L235.401334,244 L234.249334,244 L231.561334,231.448 L232.569334,231.448 L234.801334,242.704 L234.849334,242.704 L237.321334,231.448 L238.473334,231.448 L240.849334,242.704 L240.897334,242.704 L243.153334,231.448 L244.161334,231.448 L241.449334,244 L240.297334,244 Z M247.142,236.848 L253.238,236.848 C253.238,234.568 252.878,231.976 250.286,231.976 C247.502,231.976 247.142,235.216 247.142,236.848 Z M254.246,237.664 L247.142,237.664 C247.142,239.68 247.166,243.472 250.094,243.472 C252.734,243.472 253.166,240.832 253.166,239.896 L254.078,239.896 C254.078,241.816 253.022,244.288 250.19,244.288 C246.95,244.288 246.134,241.648 246.134,237.376 C246.134,233.536 247.502,231.16 250.334,231.16 C253.286,231.16 254.246,233.608 254.246,237.664 Z M257.226667,244 L257.226667,231.448 L258.138667,231.448 L258.138667,244 L257.226667,244 Z M257.226667,229.312 L257.226667,226.864 L258.138667,226.864 L258.138667,229.312 L257.226667,229.312 Z M260.567334,232.264 L260.567334,231.448 L262.271334,231.448 L262.271334,227.728 L263.183334,227.728 L263.183334,231.448 L265.271334,231.448 L265.271334,232.264 L263.183334,232.264 L263.183334,241.936 C263.183334,243.136 263.759334,243.328 264.287334,243.328 C264.671334,243.328 265.007334,243.304 265.415334,243.184 L265.415334,244 C264.959334,244.096 264.479334,244.144 264.119334,244.144 C262.823334,244.144 262.271334,243.4 262.271334,242.032 L262.271334,232.264 L260.567334,232.264 Z M268.108,236.848 L274.204,236.848 C274.204,234.568 273.844,231.976 271.252,231.976 C268.468,231.976 268.108,235.216 268.108,236.848 Z M275.212,237.664 L268.108,237.664 C268.108,239.68 268.132,243.472 271.06,243.472 C273.7,243.472 274.132,240.832 274.132,239.896 L275.044,239.896 C275.044,241.816 273.988,244.288 271.156,244.288 C267.916,244.288 267.1,241.648 267.1,237.376 C267.1,233.536 268.468,231.16 271.3,231.16 C274.252,231.16 275.212,233.608 275.212,237.664 Z M278.096667,244 L278.096667,231.448 L279.008667,231.448 L279.008667,233.632 L279.056667,233.632 C279.512667,232.192 280.544667,231.16 282.200667,231.16 L282.728667,231.16 L282.728667,231.976 L282.200667,231.976 C280.064667,231.976 279.008667,233.968 279.008667,236.032 L279.008667,244 L278.096667,244 Z M285.493334,236.848 L291.589334,236.848 C291.589334,234.568 291.229334,231.976 288.637334,231.976 C285.853334,231.976 285.493334,235.216 285.493334,236.848 Z M292.597334,237.664 L285.493334,237.664 C285.493334,239.68 285.517334,243.472 288.445334,243.472 C291.085334,243.472 291.517334,240.832 291.517334,239.896 L292.429334,239.896 C292.429334,241.816 291.373334,244.288 288.541334,244.288 C285.301334,244.288 284.485334,241.648 284.485334,237.376 C284.485334,233.536 285.853334,231.16 288.685334,231.16 C291.637334,231.16 292.597334,233.608 292.597334,237.664 Z M101.464,268 L101.464,250.864 L102.472,250.864 L102.472,268 L101.464,268 Z M106.076667,268 L106.076667,255.448 L106.988667,255.448 L106.988667,257.344 L107.036667,257.344 C107.468667,256.24 108.524667,255.16 110.228667,255.16 C112.004667,255.16 113.396667,256.168 113.396667,258.544 L113.396667,268 L112.484667,268 L112.484667,258.976 C112.484667,256.744 111.548667,255.976 109.988667,255.976 C108.068667,255.976 106.988667,257.776 106.988667,259.96 L106.988667,268 L106.076667,268 Z M117.433333,268 L117.433333,256.264 L115.729333,256.264 L115.729333,255.448 L117.433333,255.448 L117.433333,253.36 C117.433333,251.92 117.961333,250.864 119.641333,250.864 C119.929333,250.864 120.265333,250.864 120.577333,250.936 L120.577333,251.752 C120.361333,251.704 120.121333,251.68 119.785333,251.68 C118.993333,251.68 118.345333,252.04 118.345333,253.312 L118.345333,255.448 L120.433333,255.448 L120.433333,256.264 L118.345333,256.264 L118.345333,268 L117.433333,268 Z M130.662,261.712 C130.662,265.336 129.846,268.288 126.39,268.288 C123.078,268.288 122.262,265.336 122.262,261.712 C122.262,258.112 123.078,255.16 126.534,255.16 C129.846,255.16 130.662,258.112 130.662,261.712 Z M129.654,261.736 C129.654,258.112 128.862,255.976 126.462,255.976 C124.062,255.976 123.27,258.112 123.27,261.736 C123.27,265.336 124.062,267.472 126.462,267.472 C128.862,267.472 129.654,265.336 129.654,261.736 Z M133.714667,268 L133.714667,255.448 L134.626667,255.448 L134.626667,257.632 L134.674667,257.632 C135.130667,256.192 136.162667,255.16 137.818667,255.16 L138.346667,255.16 L138.346667,255.976 L137.818667,255.976 C135.682667,255.976 134.626667,257.968 134.626667,260.032 L134.626667,268 L133.714667,268 Z M140.799333,268 L140.799333,255.448 L141.711333,255.448 L141.711333,257.32 L141.759333,257.32 C142.119333,256.024 143.223333,255.16 144.783333,255.16 C146.727333,255.16 147.327333,256.36 147.495333,257.512 L147.543333,257.512 C147.711333,256.6 148.647333,255.16 150.615333,255.16 C152.607333,255.16 153.615333,256.36 153.615333,258.352 L153.615333,268 L152.703333,268 L152.703333,258.568 C152.703333,256.888 151.839333,255.976 150.543333,255.976 C148.671333,255.976 147.663333,257.512 147.663333,259.672 L147.663333,268 L146.751333,268 L146.751333,259 C146.751333,257.128 146.127333,255.976 144.543333,255.976 C142.575333,255.976 141.711333,257.704 141.711333,259.672 L141.711333,268 L140.799333,268 Z M163.868,258.472 L163.868,266.488 C163.868,267.088 164.108,267.328 164.42,267.328 C164.636,267.328 164.828,267.304 164.996,267.208 L164.996,267.928 C164.804,268.072 164.444,268.144 164.036,268.144 C163.652,268.144 162.956,267.76 162.956,266.776 L162.956,265.984 L162.908,265.984 C162.548,267.28 161.3,268.288 159.62,268.288 C157.436,268.288 156.476,266.728 156.476,264.784 C156.476,262.888 157.244,261.808 159.02,261.328 L161.732,260.584 C162.812,260.296 162.956,259.792 162.956,258.736 C162.956,256.456 161.9,255.976 160.532,255.976 C158.42,255.976 157.796,257.296 157.796,259.024 L156.884,259.024 C156.884,257.32 157.508,255.16 160.436,255.16 C163.196,255.16 163.868,256.672 163.868,258.472 Z M162.956,263.272 L162.956,260.68 L162.908,260.68 C162.596,261.184 162.26,261.256 161.324,261.52 L159.476,262.024 C158.012,262.432 157.484,263.296 157.484,264.784 C157.484,266.416 158.204,267.472 159.788,267.472 C161.924,267.472 162.956,265.792 162.956,263.272 Z M166.344667,256.264 L166.344667,255.448 L168.048667,255.448 L168.048667,251.728 L168.960667,251.728 L168.960667,255.448 L171.048667,255.448 L171.048667,256.264 L168.960667,256.264 L168.960667,265.936 C168.960667,267.136 169.536667,267.328 170.064667,267.328 C170.448667,267.328 170.784667,267.304 171.192667,267.184 L171.192667,268 C170.736667,268.096 170.256667,268.144 169.896667,268.144 C168.600667,268.144 168.048667,267.4 168.048667,266.032 L168.048667,256.264 L166.344667,256.264 Z M173.285333,268 L173.285333,255.448 L174.197333,255.448 L174.197333,268 L173.285333,268 Z M173.285333,253.312 L173.285333,250.864 L174.197333,250.864 L174.197333,253.312 L173.285333,253.312 Z M185.746,261.712 C185.746,265.336 184.93,268.288 181.474,268.288 C178.162,268.288 177.346,265.336 177.346,261.712 C177.346,258.112 178.162,255.16 181.618,255.16 C184.93,255.16 185.746,258.112 185.746,261.712 Z M184.738,261.736 C184.738,258.112 183.946,255.976 181.546,255.976 C179.146,255.976 178.354,258.112 178.354,261.736 C178.354,265.336 179.146,267.472 181.546,267.472 C183.946,267.472 184.738,265.336 184.738,261.736 Z M188.798667,268 L188.798667,255.448 L189.710667,255.448 L189.710667,257.344 L189.758667,257.344 C190.190667,256.24 191.246667,255.16 192.950667,255.16 C194.726667,255.16 196.118667,256.168 196.118667,258.544 L196.118667,268 L195.206667,268 L195.206667,258.976 C195.206667,256.744 194.270667,255.976 192.710667,255.976 C190.790667,255.976 189.710667,257.776 189.710667,259.96 L189.710667,268 L188.798667,268 Z M200.179334,260.848 L206.275334,260.848 C206.275334,258.568 205.915334,255.976 203.323334,255.976 C200.539334,255.976 200.179334,259.216 200.179334,260.848 Z M207.283334,261.664 L200.179334,261.664 C200.179334,263.68 200.203334,267.472 203.131334,267.472 C205.771334,267.472 206.203334,264.832 206.203334,263.896 L207.115334,263.896 C207.115334,265.816 206.059334,268.288 203.227334,268.288 C199.987334,268.288 199.171334,265.648 199.171334,261.376 C199.171334,257.536 200.539334,255.16 203.371334,255.16 C206.323334,255.16 207.283334,257.608 207.283334,261.664 Z M210.168,268 L210.168,255.448 L211.08,255.448 L211.08,257.344 L211.128,257.344 C211.56,256.24 212.616,255.16 214.32,255.16 C216.096,255.16 217.488,256.168 217.488,258.544 L217.488,268 L216.576,268 L216.576,258.976 C216.576,256.744 215.64,255.976 214.08,255.976 C212.16,255.976 211.08,257.776 211.08,259.96 L211.08,268 L210.168,268 Z M226.665334,268 L226.665334,267.184 L232.881334,256.264 L227.001334,256.264 L227.001334,255.448 L233.889334,255.448 L233.889334,256.264 L227.673334,267.184 L233.961334,267.184 L233.961334,268 L226.665334,268 Z M243.782,255.448 L243.782,268 L242.87,268 L242.87,266.104 L242.822,266.104 C242.39,267.208 241.334,268.288 239.63,268.288 C237.854,268.288 236.462,267.28 236.462,264.904 L236.462,255.448 L237.374,255.448 L237.374,264.472 C237.374,266.704 238.31,267.472 239.87,267.472 C241.79,267.472 242.87,265.672 242.87,263.488 L242.87,255.448 L243.782,255.448 Z M254.519334,260.848 L260.615334,260.848 C260.615334,258.568 260.255334,255.976 257.663334,255.976 C254.879334,255.976 254.519334,259.216 254.519334,260.848 Z M261.623334,261.664 L254.519334,261.664 C254.519334,263.68 254.543334,267.472 257.471334,267.472 C260.111334,267.472 260.543334,264.832 260.543334,263.896 L261.455334,263.896 C261.455334,265.816 260.399334,268.288 257.567334,268.288 C254.327334,268.288 253.511334,265.648 253.511334,261.376 C253.511334,257.536 254.879334,255.16 257.711334,255.16 C260.663334,255.16 261.623334,257.608 261.623334,261.664 Z M264.508,268 L264.508,255.448 L265.42,255.448 L265.42,257.632 L265.468,257.632 C265.924,256.192 266.956,255.16 268.612,255.16 L269.14,255.16 L269.14,255.976 L268.612,255.976 C266.476,255.976 265.42,257.968 265.42,260.032 L265.42,268 L264.508,268 Z M271.208667,268 L271.208667,250.864 L272.120667,250.864 L272.120667,257.344 L272.168667,257.344 C272.600667,256.24 273.656667,255.16 275.360667,255.16 C277.136667,255.16 278.528667,256.168 278.528667,258.544 L278.528667,268 L277.616667,268 L277.616667,258.976 C277.616667,256.744 276.680667,255.976 275.120667,255.976 C273.200667,255.976 272.120667,257.776 272.120667,259.96 L272.120667,268 L271.208667,268 Z M288.637334,258.472 L288.637334,266.488 C288.637334,267.088 288.877334,267.328 289.189334,267.328 C289.405334,267.328 289.597334,267.304 289.765334,267.208 L289.765334,267.928 C289.573334,268.072 289.213334,268.144 288.805334,268.144 C288.421334,268.144 287.725334,267.76 287.725334,266.776 L287.725334,265.984 L287.677334,265.984 C287.317334,267.28 286.069334,268.288 284.389334,268.288 C282.205334,268.288 281.245334,266.728 281.245334,264.784 C281.245334,262.888 282.013334,261.808 283.789334,261.328 L286.501334,260.584 C287.581334,260.296 287.725334,259.792 287.725334,258.736 C287.725334,256.456 286.669334,255.976 285.301334,255.976 C283.189334,255.976 282.565334,257.296 282.565334,259.024 L281.653334,259.024 C281.653334,257.32 282.277334,255.16 285.205334,255.16 C287.965334,255.16 288.637334,256.672 288.637334,258.472 Z M287.725334,263.272 L287.725334,260.68 L287.677334,260.68 C287.365334,261.184 287.029334,261.256 286.093334,261.52 L284.245334,262.024 C282.781334,262.432 282.253334,263.296 282.253334,264.784 C282.253334,266.416 282.973334,267.472 284.557334,267.472 C286.693334,267.472 287.725334,265.792 287.725334,263.272 Z M292.242,268 L292.242,250.864 L293.154,250.864 L293.154,268 L292.242,268 Z M295.582667,256.264 L295.582667,255.448 L297.286667,255.448 L297.286667,251.728 L298.198667,251.728 L298.198667,255.448 L300.286667,255.448 L300.286667,256.264 L298.198667,256.264 L298.198667,265.936 C298.198667,267.136 298.774667,267.328 299.302667,267.328 C299.686667,267.328 300.022667,267.304 300.430667,267.184 L300.430667,268 C299.974667,268.096 299.494667,268.144 299.134667,268.144 C297.838667,268.144 297.286667,267.4 297.286667,266.032 L297.286667,256.264 L295.582667,256.264 Z M303.123334,260.848 L309.219334,260.848 C309.219334,258.568 308.859334,255.976 306.267334,255.976 C303.483334,255.976 303.123334,259.216 303.123334,260.848 Z M310.227334,261.664 L303.123334,261.664 C303.123334,263.68 303.147334,267.472 306.075334,267.472 C308.715334,267.472 309.147334,264.832 309.147334,263.896 L310.059334,263.896 C310.059334,265.816 309.003334,268.288 306.171334,268.288 C302.931334,268.288 302.115334,265.648 302.115334,261.376 C302.115334,257.536 303.483334,255.16 306.315334,255.16 C309.267334,255.16 310.227334,257.608 310.227334,261.664 Z M313.112,268 L313.112,255.448 L314.024,255.448 L314.024,257.344 L314.072,257.344 C314.504,256.24 315.56,255.16 317.264,255.16 C319.04,255.16 320.432,256.168 320.432,258.544 L320.432,268 L319.52,268 L319.52,258.976 C319.52,256.744 318.584,255.976 317.024,255.976 C315.104,255.976 314.024,257.776 314.024,259.96 L314.024,268 L313.112,268 Z M324.732667,250.864 L325.740667,250.864 L325.740667,256.384 L325.596667,263.536 L324.876667,263.536 L324.732667,256.384 L324.732667,250.864 Z M324.732667,268 L324.732667,265.696 L325.740667,265.696 L325.740667,268 L324.732667,268 Z" id="Füllen-sie-die-unten" fill="#FFFFFF"></path>
    </g>
</svg>