<?xml version="1.0" encoding="UTF-8"?>
<svg width="259px" height="67px" viewBox="0 0 259 67" version="1.1" xmlns="http://www.w3.org/2000/svg" xmlns:xlink="http://www.w3.org/1999/xlink">
    <!-- Generator: Sketch 48.2 (47327) - http://www.bohemiancoding.com/sketch -->
    <title>Füllen sie die unten</title>
    <desc>Created with Sketch.</desc>
    <defs></defs>
    <g id="iPhone-8" stroke="none" stroke-width="1" fill="none" fill-rule="evenodd" transform="translate(-57.000000, -832.000000)">
        <path d="M57.716333,850 L57.716333,832.864 L65.924333,832.864 L65.924333,833.776 L58.724333,833.776 L58.724333,840.616 L65.420333,840.616 L65.420333,841.528 L58.724333,841.528 L58.724333,850 L57.716333,850 Z M75.4809997,837.448 L75.4809997,850 L74.5689997,850 L74.5689997,848.104 L74.5209997,848.104 C74.0889997,849.208 73.0329997,850.288 71.3289997,850.288 C69.5529997,850.288 68.1609997,849.28 68.1609997,846.904 L68.1609997,837.448 L69.0729997,837.448 L69.0729997,846.472 C69.0729997,848.704 70.0089997,849.472 71.5689997,849.472 C73.4889997,849.472 74.5689997,847.672 74.5689997,845.488 L74.5689997,837.448 L75.4809997,837.448 Z M72.9369997,835.168 L72.9369997,832.72 L73.9449997,832.72 L73.9449997,835.168 L72.9369997,835.168 Z M69.7209997,835.168 L69.7209997,832.72 L70.7289997,832.72 L70.7289997,835.168 L69.7209997,835.168 Z M78.9416664,850 L78.9416664,832.864 L79.8536664,832.864 L79.8536664,850 L78.9416664,850 Z M83.4103331,850 L83.4103331,832.864 L84.3223331,832.864 L84.3223331,850 L83.4103331,850 Z M88.4789998,842.848 L94.5749998,842.848 C94.5749998,840.568 94.2149998,837.976 91.6229998,837.976 C88.8389998,837.976 88.4789998,841.216 88.4789998,842.848 Z M95.5829998,843.664 L88.4789998,843.664 C88.4789998,845.68 88.5029998,849.472 91.4309998,849.472 C94.0709998,849.472 94.5029998,846.832 94.5029998,845.896 L95.4149998,845.896 C95.4149998,847.816 94.3589998,850.288 91.5269998,850.288 C88.2869998,850.288 87.4709998,847.648 87.4709998,843.376 C87.4709998,839.536 88.8389998,837.16 91.6709998,837.16 C94.6229998,837.16 95.5829998,839.608 95.5829998,843.664 Z M98.4676665,850 L98.4676665,837.448 L99.3796665,837.448 L99.3796665,839.344 L99.4276665,839.344 C99.8596665,838.24 100.915666,837.16 102.619666,837.16 C104.395666,837.16 105.787666,838.168 105.787666,840.544 L105.787666,850 L104.875666,850 L104.875666,840.976 C104.875666,838.744 103.939666,837.976 102.379666,837.976 C100.459666,837.976 99.3796665,839.776 99.3796665,841.96 L99.3796665,850 L98.4676665,850 Z M122.117,840.976 L121.205,840.976 L121.205,840.616 C121.205,839.488 120.917,837.976 118.853,837.976 C117.533,837.976 116.429,838.648 116.429,840.304 C116.429,841.624 117.053,842.296 118.301,842.776 L120.221,843.496 C121.733,844.072 122.501,845.128 122.501,846.832 C122.501,848.944 120.869,850.288 118.877,850.288 C115.397,850.288 115.157,847.792 115.157,846.328 L115.157,845.992 L116.069,845.992 L116.069,846.4 C116.069,848.176 116.789,849.472 118.877,849.472 C120.725,849.472 121.493,848.248 121.493,846.856 C121.493,845.656 121.013,844.84 119.621,844.288 L117.773,843.544 C116.213,842.92 115.421,842.008 115.421,840.4 C115.421,838.312 116.861,837.16 118.853,837.16 C121.637,837.16 122.117,839.056 122.117,840.592 L122.117,840.976 Z M125.289667,850 L125.289667,837.448 L126.201667,837.448 L126.201667,850 L125.289667,850 Z M125.289667,835.312 L125.289667,832.864 L126.201667,832.864 L126.201667,835.312 L125.289667,835.312 Z M130.358333,842.848 L136.454333,842.848 C136.454333,840.568 136.094333,837.976 133.502333,837.976 C130.718333,837.976 130.358333,841.216 130.358333,842.848 Z M137.462333,843.664 L130.358333,843.664 C130.358333,845.68 130.382333,849.472 133.310333,849.472 C135.950333,849.472 136.382333,846.832 136.382333,845.896 L137.294333,845.896 C137.294333,847.816 136.238333,850.288 133.406333,850.288 C130.166333,850.288 129.350333,847.648 129.350333,843.376 C129.350333,839.536 130.718333,837.16 133.550333,837.16 C136.502333,837.16 137.462333,839.608 137.462333,843.664 Z M153.839667,850 L153.839667,847.576 L153.791667,847.576 C153.479667,849.28 152.375667,850.288 150.623667,850.288 C147.695667,850.288 146.711667,847.576 146.711667,843.688 C146.711667,839.848 147.575667,837.16 150.671667,837.16 C152.399667,837.16 153.335667,838.312 153.791667,839.656 L153.839667,839.656 L153.839667,832.864 L154.751667,832.864 L154.751667,850 L153.839667,850 Z M147.719667,843.688 C147.719667,846.88 148.295667,849.472 150.767667,849.472 C152.999667,849.472 153.839667,847.36 153.839667,843.688 C153.863667,839.56 152.615667,837.976 150.719667,837.976 C148.559667,837.976 147.719667,839.872 147.719667,843.688 Z M158.260333,850 L158.260333,837.448 L159.172333,837.448 L159.172333,850 L158.260333,850 Z M158.260333,835.312 L158.260333,832.864 L159.172333,832.864 L159.172333,835.312 L158.260333,835.312 Z M163.329,842.848 L169.425,842.848 C169.425,840.568 169.065,837.976 166.473,837.976 C163.689,837.976 163.329,841.216 163.329,842.848 Z M170.433,843.664 L163.329,843.664 C163.329,845.68 163.353,849.472 166.281,849.472 C168.921,849.472 169.353,846.832 169.353,845.896 L170.265,845.896 C170.265,847.816 169.209,850.288 166.377,850.288 C163.137,850.288 162.321,847.648 162.321,843.376 C162.321,839.536 163.689,837.16 166.521,837.16 C169.473,837.16 170.433,839.608 170.433,843.664 Z M187.314333,837.448 L187.314333,850 L186.402333,850 L186.402333,848.104 L186.354333,848.104 C185.922333,849.208 184.866333,850.288 183.162333,850.288 C181.386333,850.288 179.994333,849.28 179.994333,846.904 L179.994333,837.448 L180.906333,837.448 L180.906333,846.472 C180.906333,848.704 181.842333,849.472 183.402333,849.472 C185.322333,849.472 186.402333,847.672 186.402333,845.488 L186.402333,837.448 L187.314333,837.448 Z M190.679,850 L190.679,837.448 L191.591,837.448 L191.591,839.344 L191.639,839.344 C192.071,838.24 193.127,837.16 194.831,837.16 C196.607,837.16 197.999,838.168 197.999,840.544 L197.999,850 L197.087,850 L197.087,840.976 C197.087,838.744 196.151,837.976 194.591,837.976 C192.671,837.976 191.591,839.776 191.591,841.96 L191.591,850 L190.679,850 Z M200.331667,838.264 L200.331667,837.448 L202.035667,837.448 L202.035667,833.728 L202.947667,833.728 L202.947667,837.448 L205.035667,837.448 L205.035667,838.264 L202.947667,838.264 L202.947667,847.936 C202.947667,849.136 203.523667,849.328 204.051667,849.328 C204.435667,849.328 204.771667,849.304 205.179667,849.184 L205.179667,850 C204.723667,850.096 204.243667,850.144 203.883667,850.144 C202.587667,850.144 202.035667,849.4 202.035667,848.032 L202.035667,838.264 L200.331667,838.264 Z M207.872333,842.848 L213.968333,842.848 C213.968333,840.568 213.608333,837.976 211.016333,837.976 C208.232333,837.976 207.872333,841.216 207.872333,842.848 Z M214.976333,843.664 L207.872333,843.664 C207.872333,845.68 207.896333,849.472 210.824333,849.472 C213.464333,849.472 213.896333,846.832 213.896333,845.896 L214.808333,845.896 C214.808333,847.816 213.752333,850.288 210.920333,850.288 C207.680333,850.288 206.864333,847.648 206.864333,843.376 C206.864333,839.536 208.232333,837.16 211.064333,837.16 C214.016333,837.16 214.976333,839.608 214.976333,843.664 Z M217.861,850 L217.861,837.448 L218.773,837.448 L218.773,839.344 L218.821,839.344 C219.253,838.24 220.309,837.16 222.013,837.16 C223.789,837.16 225.181,838.168 225.181,840.544 L225.181,850 L224.269,850 L224.269,840.976 C224.269,838.744 223.333,837.976 221.773,837.976 C219.853,837.976 218.773,839.776 218.773,841.96 L218.773,850 L217.861,850 Z M234.833667,840.976 L233.921667,840.976 L233.921667,840.616 C233.921667,839.488 233.633667,837.976 231.569667,837.976 C230.249667,837.976 229.145667,838.648 229.145667,840.304 C229.145667,841.624 229.769667,842.296 231.017667,842.776 L232.937667,843.496 C234.449667,844.072 235.217667,845.128 235.217667,846.832 C235.217667,848.944 233.585667,850.288 231.593667,850.288 C228.113667,850.288 227.873667,847.792 227.873667,846.328 L227.873667,845.992 L228.785667,845.992 L228.785667,846.4 C228.785667,848.176 229.505667,849.472 231.593667,849.472 C233.441667,849.472 234.209667,848.248 234.209667,846.856 C234.209667,845.656 233.729667,844.84 232.337667,844.288 L230.489667,843.544 C228.929667,842.92 228.137667,842.008 228.137667,840.4 C228.137667,838.312 229.577667,837.16 231.569667,837.16 C234.353667,837.16 234.833667,839.056 234.833667,840.592 L234.833667,840.976 Z M236.878333,838.264 L236.878333,837.448 L238.582333,837.448 L238.582333,833.728 L239.494333,833.728 L239.494333,837.448 L241.582333,837.448 L241.582333,838.264 L239.494333,838.264 L239.494333,847.936 C239.494333,849.136 240.070333,849.328 240.598333,849.328 C240.982333,849.328 241.318333,849.304 241.726333,849.184 L241.726333,850 C241.270333,850.096 240.790333,850.144 240.430333,850.144 C239.134333,850.144 238.582333,849.4 238.582333,848.032 L238.582333,838.264 L236.878333,838.264 Z M244.419,842.848 L250.515,842.848 C250.515,840.568 250.155,837.976 247.563,837.976 C244.779,837.976 244.419,841.216 244.419,842.848 Z M251.523,843.664 L244.419,843.664 C244.419,845.68 244.443,849.472 247.371,849.472 C250.011,849.472 250.443,846.832 250.443,845.896 L251.355,845.896 C251.355,847.816 250.299,850.288 247.467,850.288 C244.227,850.288 243.411,847.648 243.411,843.376 C243.411,839.536 244.779,837.16 247.611,837.16 C250.563,837.16 251.523,839.608 251.523,843.664 Z M254.407667,850 L254.407667,832.864 L255.319667,832.864 L255.319667,839.344 L255.367667,839.344 C255.799667,838.24 256.855667,837.16 258.559667,837.16 C260.335667,837.16 261.727667,838.168 261.727667,840.544 L261.727667,850 L260.815667,850 L260.815667,840.976 C260.815667,838.744 259.879667,837.976 258.319667,837.976 C256.399667,837.976 255.319667,839.776 255.319667,841.96 L255.319667,850 L254.407667,850 Z M265.788334,842.848 L271.884334,842.848 C271.884334,840.568 271.524334,837.976 268.932334,837.976 C266.148334,837.976 265.788334,841.216 265.788334,842.848 Z M272.892334,843.664 L265.788334,843.664 C265.788334,845.68 265.812334,849.472 268.740334,849.472 C271.380334,849.472 271.812334,846.832 271.812334,845.896 L272.724334,845.896 C272.724334,847.816 271.668334,850.288 268.836334,850.288 C265.596334,850.288 264.780334,847.648 264.780334,843.376 C264.780334,839.536 266.148334,837.16 268.980334,837.16 C271.932334,837.16 272.892334,839.608 272.892334,843.664 Z M275.777,850 L275.777,837.448 L276.689,837.448 L276.689,839.344 L276.737,839.344 C277.169,838.24 278.225,837.16 279.929,837.16 C281.705,837.16 283.097,838.168 283.097,840.544 L283.097,850 L282.185,850 L282.185,840.976 C282.185,838.744 281.249,837.976 279.689,837.976 C277.769,837.976 276.689,839.776 276.689,841.96 L276.689,850 L275.777,850 Z M293.277667,850 L293.277667,847.576 L293.229667,847.576 C292.917667,849.28 291.813667,850.288 290.061667,850.288 C287.133667,850.288 286.149667,847.576 286.149667,843.688 C286.149667,839.848 287.013667,837.16 290.109667,837.16 C291.837667,837.16 292.773667,838.312 293.229667,839.656 L293.277667,839.656 L293.277667,832.864 L294.189667,832.864 L294.189667,850 L293.277667,850 Z M287.157667,843.688 C287.157667,846.88 287.733667,849.472 290.205667,849.472 C292.437667,849.472 293.277667,847.36 293.277667,843.688 C293.301667,839.56 292.053667,837.976 290.157667,837.976 C287.997667,837.976 287.157667,839.872 287.157667,843.688 Z M298.298334,842.848 L304.394334,842.848 C304.394334,840.568 304.034334,837.976 301.442334,837.976 C298.658334,837.976 298.298334,841.216 298.298334,842.848 Z M305.402334,843.664 L298.298334,843.664 C298.298334,845.68 298.322334,849.472 301.250334,849.472 C303.890334,849.472 304.322334,846.832 304.322334,845.896 L305.234334,845.896 C305.234334,847.816 304.178334,850.288 301.346334,850.288 C298.106334,850.288 297.290334,847.648 297.290334,843.376 C297.290334,839.536 298.658334,837.16 301.490334,837.16 C304.442334,837.16 305.402334,839.608 305.402334,843.664 Z M308.287,850 L308.287,837.448 L309.199,837.448 L309.199,839.344 L309.247,839.344 C309.679,838.24 310.735,837.16 312.439,837.16 C314.215,837.16 315.607,838.168 315.607,840.544 L315.607,850 L314.695,850 L314.695,840.976 C314.695,838.744 313.759,837.976 312.199,837.976 C310.279,837.976 309.199,839.776 309.199,841.96 L309.199,850 L308.287,850 Z M91.3349998,874 L91.3349998,856.864 L99.5429998,856.864 L99.5429998,857.776 L92.3429998,857.776 L92.3429998,864.616 L99.0389998,864.616 L99.0389998,865.528 L92.3429998,865.528 L92.3429998,874 L91.3349998,874 Z M102.043666,866.848 L108.139666,866.848 C108.139666,864.568 107.779666,861.976 105.187666,861.976 C102.403666,861.976 102.043666,865.216 102.043666,866.848 Z M109.147666,867.664 L102.043666,867.664 C102.043666,869.68 102.067666,873.472 104.995666,873.472 C107.635666,873.472 108.067666,870.832 108.067666,869.896 L108.979666,869.896 C108.979666,871.816 107.923666,874.288 105.091666,874.288 C101.851666,874.288 101.035666,871.648 101.035666,867.376 C101.035666,863.536 102.403666,861.16 105.235666,861.16 C108.187666,861.16 109.147666,863.608 109.147666,867.664 Z M112.128333,874 L112.128333,856.864 L113.040333,856.864 L113.040333,874 L112.128333,874 Z M123.317,874 L123.317,871.576 L123.269,871.576 C122.957,873.28 121.853,874.288 120.101,874.288 C117.173,874.288 116.189,871.576 116.189,867.688 C116.189,863.848 117.053,861.16 120.149,861.16 C121.877,861.16 122.813,862.312 123.269,863.656 L123.317,863.656 L123.317,856.864 L124.229,856.864 L124.229,874 L123.317,874 Z M117.197,867.688 C117.197,870.88 117.773,873.472 120.245,873.472 C122.477,873.472 123.317,871.36 123.317,867.688 C123.341,863.56 122.093,861.976 120.197,861.976 C118.037,861.976 117.197,863.872 117.197,867.688 Z M128.337667,866.848 L134.433667,866.848 C134.433667,864.568 134.073667,861.976 131.481667,861.976 C128.697667,861.976 128.337667,865.216 128.337667,866.848 Z M135.441667,867.664 L128.337667,867.664 C128.337667,869.68 128.361667,873.472 131.289667,873.472 C133.929667,873.472 134.361667,870.832 134.361667,869.896 L135.273667,869.896 C135.273667,871.816 134.217667,874.288 131.385667,874.288 C128.145667,874.288 127.329667,871.648 127.329667,867.376 C127.329667,863.536 128.697667,861.16 131.529667,861.16 C134.481667,861.16 135.441667,863.608 135.441667,867.664 Z M138.326333,874 L138.326333,861.448 L139.238333,861.448 L139.238333,863.632 L139.286333,863.632 C139.742333,862.192 140.774333,861.16 142.430333,861.16 L142.958333,861.16 L142.958333,861.976 L142.430333,861.976 C140.294333,861.976 139.238333,863.968 139.238333,866.032 L139.238333,874 L138.326333,874 Z M158.447667,864.472 L158.447667,872.488 C158.447667,873.088 158.687667,873.328 158.999667,873.328 C159.215667,873.328 159.407667,873.304 159.575667,873.208 L159.575667,873.928 C159.383667,874.072 159.023667,874.144 158.615667,874.144 C158.231667,874.144 157.535667,873.76 157.535667,872.776 L157.535667,871.984 L157.487667,871.984 C157.127667,873.28 155.879667,874.288 154.199667,874.288 C152.015667,874.288 151.055667,872.728 151.055667,870.784 C151.055667,868.888 151.823667,867.808 153.599667,867.328 L156.311667,866.584 C157.391667,866.296 157.535667,865.792 157.535667,864.736 C157.535667,862.456 156.479667,861.976 155.111667,861.976 C152.999667,861.976 152.375667,863.296 152.375667,865.024 L151.463667,865.024 C151.463667,863.32 152.087667,861.16 155.015667,861.16 C157.775667,861.16 158.447667,862.672 158.447667,864.472 Z M157.535667,869.272 L157.535667,866.68 L157.487667,866.68 C157.175667,867.184 156.839667,867.256 155.903667,867.52 L154.055667,868.024 C152.591667,868.432 152.063667,869.296 152.063667,870.784 C152.063667,872.416 152.783667,873.472 154.367667,873.472 C156.503667,873.472 157.535667,871.792 157.535667,869.272 Z M169.276333,861.448 L169.276333,874 L168.364333,874 L168.364333,872.104 L168.316333,872.104 C167.884333,873.208 166.828333,874.288 165.124333,874.288 C163.348333,874.288 161.956333,873.28 161.956333,870.904 L161.956333,861.448 L162.868333,861.448 L162.868333,870.472 C162.868333,872.704 163.804333,873.472 165.364333,873.472 C167.284333,873.472 168.364333,871.672 168.364333,869.488 L168.364333,861.448 L169.276333,861.448 Z M178.929,864.976 L178.017,864.976 L178.017,864.616 C178.017,863.488 177.729,861.976 175.665,861.976 C174.345,861.976 173.241,862.648 173.241,864.304 C173.241,865.624 173.865,866.296 175.113,866.776 L177.033,867.496 C178.545,868.072 179.313,869.128 179.313,870.832 C179.313,872.944 177.681,874.288 175.689,874.288 C172.209,874.288 171.969,871.792 171.969,870.328 L171.969,869.992 L172.881,869.992 L172.881,870.4 C172.881,872.176 173.601,873.472 175.689,873.472 C177.537,873.472 178.305,872.248 178.305,870.856 C178.305,869.656 177.825,868.84 176.433,868.288 L174.585,867.544 C173.025,866.92 172.233,866.008 172.233,864.4 C172.233,862.312 173.673,861.16 175.665,861.16 C178.449,861.16 178.929,863.056 178.929,864.592 L178.929,864.976 Z M196.002333,861.448 L196.002333,874 L195.090333,874 L195.090333,872.104 L195.042333,872.104 C194.610333,873.208 193.554333,874.288 191.850333,874.288 C190.074333,874.288 188.682333,873.28 188.682333,870.904 L188.682333,861.448 L189.594333,861.448 L189.594333,870.472 C189.594333,872.704 190.530333,873.472 192.090333,873.472 C194.010333,873.472 195.090333,871.672 195.090333,869.488 L195.090333,861.448 L196.002333,861.448 Z M199.511,874 L199.511,861.448 L200.423,861.448 L200.423,863.32 L200.471,863.32 C200.831,862.024 201.935,861.16 203.495,861.16 C205.439,861.16 206.039,862.36 206.207,863.512 L206.255,863.512 C206.423,862.6 207.359,861.16 209.327,861.16 C211.319,861.16 212.327,862.36 212.327,864.352 L212.327,874 L211.415,874 L211.415,864.568 C211.415,862.888 210.551,861.976 209.255,861.976 C207.383,861.976 206.375,863.512 206.375,865.672 L206.375,874 L205.463,874 L205.463,865 C205.463,863.128 204.839,861.976 203.255,861.976 C201.287,861.976 200.423,863.704 200.423,865.672 L200.423,874 L199.511,874 Z M230.168333,874 L227.792333,862.744 L227.744333,862.744 L225.272333,874 L224.120333,874 L221.432333,861.448 L222.440333,861.448 L224.672333,872.704 L224.720333,872.704 L227.192333,861.448 L228.344333,861.448 L230.720333,872.704 L230.768333,872.704 L233.024333,861.448 L234.032333,861.448 L231.320333,874 L230.168333,874 Z M237.013,866.848 L243.109,866.848 C243.109,864.568 242.749,861.976 240.157,861.976 C237.373,861.976 237.013,865.216 237.013,866.848 Z M244.117,867.664 L237.013,867.664 C237.013,869.68 237.037,873.472 239.965,873.472 C242.605,873.472 243.037,870.832 243.037,869.896 L243.949,869.896 C243.949,871.816 242.893,874.288 240.061,874.288 C236.821,874.288 236.005,871.648 236.005,867.376 C236.005,863.536 237.373,861.16 240.205,861.16 C243.157,861.16 244.117,863.608 244.117,867.664 Z M247.097667,874 L247.097667,861.448 L248.009667,861.448 L248.009667,874 L247.097667,874 Z M247.097667,859.312 L247.097667,856.864 L248.009667,856.864 L248.009667,859.312 L247.097667,859.312 Z M250.438333,862.264 L250.438333,861.448 L252.142333,861.448 L252.142333,857.728 L253.054333,857.728 L253.054333,861.448 L255.142333,861.448 L255.142333,862.264 L253.054333,862.264 L253.054333,871.936 C253.054333,873.136 253.630333,873.328 254.158333,873.328 C254.542333,873.328 254.878333,873.304 255.286333,873.184 L255.286333,874 C254.830333,874.096 254.350333,874.144 253.990333,874.144 C252.694333,874.144 252.142333,873.4 252.142333,872.032 L252.142333,862.264 L250.438333,862.264 Z M257.979,866.848 L264.075,866.848 C264.075,864.568 263.715,861.976 261.123,861.976 C258.339,861.976 257.979,865.216 257.979,866.848 Z M265.083,867.664 L257.979,867.664 C257.979,869.68 258.003,873.472 260.931,873.472 C263.571,873.472 264.003,870.832 264.003,869.896 L264.915,869.896 C264.915,871.816 263.859,874.288 261.027,874.288 C257.787,874.288 256.971,871.648 256.971,867.376 C256.971,863.536 258.339,861.16 261.171,861.16 C264.123,861.16 265.083,863.608 265.083,867.664 Z M267.967667,874 L267.967667,861.448 L268.879667,861.448 L268.879667,863.632 L268.927667,863.632 C269.383667,862.192 270.415667,861.16 272.071667,861.16 L272.599667,861.16 L272.599667,861.976 L272.071667,861.976 C269.935667,861.976 268.879667,863.968 268.879667,866.032 L268.879667,874 L267.967667,874 Z M275.364334,866.848 L281.460334,866.848 C281.460334,864.568 281.100334,861.976 278.508334,861.976 C275.724334,861.976 275.364334,865.216 275.364334,866.848 Z M282.468334,867.664 L275.364334,867.664 C275.364334,869.68 275.388334,873.472 278.316334,873.472 C280.956334,873.472 281.388334,870.832 281.388334,869.896 L282.300334,869.896 C282.300334,871.816 281.244334,874.288 278.412334,874.288 C275.172334,874.288 274.356334,871.648 274.356334,867.376 C274.356334,863.536 275.724334,861.16 278.556334,861.16 C281.508334,861.16 282.468334,863.608 282.468334,867.664 Z M74.0553331,898 L74.0553331,880.864 L75.0633331,880.864 L75.0633331,898 L74.0553331,898 Z M78.6679998,898 L78.6679998,885.448 L79.5799998,885.448 L79.5799998,887.344 L79.6279998,887.344 C80.0599998,886.24 81.1159998,885.16 82.8199998,885.16 C84.5959998,885.16 85.9879998,886.168 85.9879998,888.544 L85.9879998,898 L85.0759998,898 L85.0759998,888.976 C85.0759998,886.744 84.1399998,885.976 82.5799998,885.976 C80.6599998,885.976 79.5799998,887.776 79.5799998,889.96 L79.5799998,898 L78.6679998,898 Z M90.0246664,898 L90.0246664,886.264 L88.3206664,886.264 L88.3206664,885.448 L90.0246664,885.448 L90.0246664,883.36 C90.0246664,881.92 90.5526664,880.864 92.2326664,880.864 C92.5206664,880.864 92.8566664,880.864 93.1686664,880.936 L93.1686664,881.752 C92.9526664,881.704 92.7126664,881.68 92.3766664,881.68 C91.5846664,881.68 90.9366664,882.04 90.9366664,883.312 L90.9366664,885.448 L93.0246664,885.448 L93.0246664,886.264 L90.9366664,886.264 L90.9366664,898 L90.0246664,898 Z M103.253333,891.712 C103.253333,895.336 102.437333,898.288 98.9813331,898.288 C95.6693331,898.288 94.8533331,895.336 94.8533331,891.712 C94.8533331,888.112 95.6693331,885.16 99.1253331,885.16 C102.437333,885.16 103.253333,888.112 103.253333,891.712 Z M102.245333,891.736 C102.245333,888.112 101.453333,885.976 99.0533331,885.976 C96.6533331,885.976 95.8613331,888.112 95.8613331,891.736 C95.8613331,895.336 96.6533331,897.472 99.0533331,897.472 C101.453333,897.472 102.245333,895.336 102.245333,891.736 Z M106.306,898 L106.306,885.448 L107.218,885.448 L107.218,887.632 L107.266,887.632 C107.722,886.192 108.754,885.16 110.41,885.16 L110.938,885.16 L110.938,885.976 L110.41,885.976 C108.274,885.976 107.218,887.968 107.218,890.032 L107.218,898 L106.306,898 Z M113.390667,898 L113.390667,885.448 L114.302667,885.448 L114.302667,887.32 L114.350667,887.32 C114.710667,886.024 115.814667,885.16 117.374667,885.16 C119.318667,885.16 119.918667,886.36 120.086667,887.512 L120.134667,887.512 C120.302667,886.6 121.238667,885.16 123.206667,885.16 C125.198667,885.16 126.206667,886.36 126.206667,888.352 L126.206667,898 L125.294667,898 L125.294667,888.568 C125.294667,886.888 124.430667,885.976 123.134667,885.976 C121.262667,885.976 120.254667,887.512 120.254667,889.672 L120.254667,898 L119.342667,898 L119.342667,889 C119.342667,887.128 118.718667,885.976 117.134667,885.976 C115.166667,885.976 114.302667,887.704 114.302667,889.672 L114.302667,898 L113.390667,898 Z M136.459333,888.472 L136.459333,896.488 C136.459333,897.088 136.699333,897.328 137.011333,897.328 C137.227333,897.328 137.419333,897.304 137.587333,897.208 L137.587333,897.928 C137.395333,898.072 137.035333,898.144 136.627333,898.144 C136.243333,898.144 135.547333,897.76 135.547333,896.776 L135.547333,895.984 L135.499333,895.984 C135.139333,897.28 133.891333,898.288 132.211333,898.288 C130.027333,898.288 129.067333,896.728 129.067333,894.784 C129.067333,892.888 129.835333,891.808 131.611333,891.328 L134.323333,890.584 C135.403333,890.296 135.547333,889.792 135.547333,888.736 C135.547333,886.456 134.491333,885.976 133.123333,885.976 C131.011333,885.976 130.387333,887.296 130.387333,889.024 L129.475333,889.024 C129.475333,887.32 130.099333,885.16 133.027333,885.16 C135.787333,885.16 136.459333,886.672 136.459333,888.472 Z M135.547333,893.272 L135.547333,890.68 L135.499333,890.68 C135.187333,891.184 134.851333,891.256 133.915333,891.52 L132.067333,892.024 C130.603333,892.432 130.075333,893.296 130.075333,894.784 C130.075333,896.416 130.795333,897.472 132.379333,897.472 C134.515333,897.472 135.547333,895.792 135.547333,893.272 Z M138.936,886.264 L138.936,885.448 L140.64,885.448 L140.64,881.728 L141.552,881.728 L141.552,885.448 L143.64,885.448 L143.64,886.264 L141.552,886.264 L141.552,895.936 C141.552,897.136 142.128,897.328 142.656,897.328 C143.04,897.328 143.376,897.304 143.784,897.184 L143.784,898 C143.328,898.096 142.848,898.144 142.488,898.144 C141.192,898.144 140.64,897.4 140.64,896.032 L140.64,886.264 L138.936,886.264 Z M145.876667,898 L145.876667,885.448 L146.788667,885.448 L146.788667,898 L145.876667,898 Z M145.876667,883.312 L145.876667,880.864 L146.788667,880.864 L146.788667,883.312 L145.876667,883.312 Z M158.337333,891.712 C158.337333,895.336 157.521333,898.288 154.065333,898.288 C150.753333,898.288 149.937333,895.336 149.937333,891.712 C149.937333,888.112 150.753333,885.16 154.209333,885.16 C157.521333,885.16 158.337333,888.112 158.337333,891.712 Z M157.329333,891.736 C157.329333,888.112 156.537333,885.976 154.137333,885.976 C151.737333,885.976 150.945333,888.112 150.945333,891.736 C150.945333,895.336 151.737333,897.472 154.137333,897.472 C156.537333,897.472 157.329333,895.336 157.329333,891.736 Z M161.39,898 L161.39,885.448 L162.302,885.448 L162.302,887.344 L162.35,887.344 C162.782,886.24 163.838,885.16 165.542,885.16 C167.318,885.16 168.71,886.168 168.71,888.544 L168.71,898 L167.798,898 L167.798,888.976 C167.798,886.744 166.862,885.976 165.302,885.976 C163.382,885.976 162.302,887.776 162.302,889.96 L162.302,898 L161.39,898 Z M172.770667,890.848 L178.866667,890.848 C178.866667,888.568 178.506667,885.976 175.914667,885.976 C173.130667,885.976 172.770667,889.216 172.770667,890.848 Z M179.874667,891.664 L172.770667,891.664 C172.770667,893.68 172.794667,897.472 175.722667,897.472 C178.362667,897.472 178.794667,894.832 178.794667,893.896 L179.706667,893.896 C179.706667,895.816 178.650667,898.288 175.818667,898.288 C172.578667,898.288 171.762667,895.648 171.762667,891.376 C171.762667,887.536 173.130667,885.16 175.962667,885.16 C178.914667,885.16 179.874667,887.608 179.874667,891.664 Z M182.759333,898 L182.759333,885.448 L183.671333,885.448 L183.671333,887.344 L183.719333,887.344 C184.151333,886.24 185.207333,885.16 186.911333,885.16 C188.687333,885.16 190.079333,886.168 190.079333,888.544 L190.079333,898 L189.167333,898 L189.167333,888.976 C189.167333,886.744 188.231333,885.976 186.671333,885.976 C184.751333,885.976 183.671333,887.776 183.671333,889.96 L183.671333,898 L182.759333,898 Z M199.256667,898 L199.256667,897.184 L205.472667,886.264 L199.592667,886.264 L199.592667,885.448 L206.480667,885.448 L206.480667,886.264 L200.264667,897.184 L206.552667,897.184 L206.552667,898 L199.256667,898 Z M216.373333,885.448 L216.373333,898 L215.461333,898 L215.461333,896.104 L215.413333,896.104 C214.981333,897.208 213.925333,898.288 212.221333,898.288 C210.445333,898.288 209.053333,897.28 209.053333,894.904 L209.053333,885.448 L209.965333,885.448 L209.965333,894.472 C209.965333,896.704 210.901333,897.472 212.461333,897.472 C214.381333,897.472 215.461333,895.672 215.461333,893.488 L215.461333,885.448 L216.373333,885.448 Z M227.110667,890.848 L233.206667,890.848 C233.206667,888.568 232.846667,885.976 230.254667,885.976 C227.470667,885.976 227.110667,889.216 227.110667,890.848 Z M234.214667,891.664 L227.110667,891.664 C227.110667,893.68 227.134667,897.472 230.062667,897.472 C232.702667,897.472 233.134667,894.832 233.134667,893.896 L234.046667,893.896 C234.046667,895.816 232.990667,898.288 230.158667,898.288 C226.918667,898.288 226.102667,895.648 226.102667,891.376 C226.102667,887.536 227.470667,885.16 230.302667,885.16 C233.254667,885.16 234.214667,887.608 234.214667,891.664 Z M237.099333,898 L237.099333,885.448 L238.011333,885.448 L238.011333,887.632 L238.059333,887.632 C238.515333,886.192 239.547333,885.16 241.203333,885.16 L241.731333,885.16 L241.731333,885.976 L241.203333,885.976 C239.067333,885.976 238.011333,887.968 238.011333,890.032 L238.011333,898 L237.099333,898 Z M243.8,898 L243.8,880.864 L244.712,880.864 L244.712,887.344 L244.76,887.344 C245.192,886.24 246.248,885.16 247.952,885.16 C249.728,885.16 251.12,886.168 251.12,888.544 L251.12,898 L250.208,898 L250.208,888.976 C250.208,886.744 249.272,885.976 247.712,885.976 C245.792,885.976 244.712,887.776 244.712,889.96 L244.712,898 L243.8,898 Z M261.228667,888.472 L261.228667,896.488 C261.228667,897.088 261.468667,897.328 261.780667,897.328 C261.996667,897.328 262.188667,897.304 262.356667,897.208 L262.356667,897.928 C262.164667,898.072 261.804667,898.144 261.396667,898.144 C261.012667,898.144 260.316667,897.76 260.316667,896.776 L260.316667,895.984 L260.268667,895.984 C259.908667,897.28 258.660667,898.288 256.980667,898.288 C254.796667,898.288 253.836667,896.728 253.836667,894.784 C253.836667,892.888 254.604667,891.808 256.380667,891.328 L259.092667,890.584 C260.172667,890.296 260.316667,889.792 260.316667,888.736 C260.316667,886.456 259.260667,885.976 257.892667,885.976 C255.780667,885.976 255.156667,887.296 255.156667,889.024 L254.244667,889.024 C254.244667,887.32 254.868667,885.16 257.796667,885.16 C260.556667,885.16 261.228667,886.672 261.228667,888.472 Z M260.316667,893.272 L260.316667,890.68 L260.268667,890.68 C259.956667,891.184 259.620667,891.256 258.684667,891.52 L256.836667,892.024 C255.372667,892.432 254.844667,893.296 254.844667,894.784 C254.844667,896.416 255.564667,897.472 257.148667,897.472 C259.284667,897.472 260.316667,895.792 260.316667,893.272 Z M264.833333,898 L264.833333,880.864 L265.745333,880.864 L265.745333,898 L264.833333,898 Z M268.174,886.264 L268.174,885.448 L269.878,885.448 L269.878,881.728 L270.79,881.728 L270.79,885.448 L272.878,885.448 L272.878,886.264 L270.79,886.264 L270.79,895.936 C270.79,897.136 271.366,897.328 271.894,897.328 C272.278,897.328 272.614,897.304 273.022,897.184 L273.022,898 C272.566,898.096 272.086,898.144 271.726,898.144 C270.43,898.144 269.878,897.4 269.878,896.032 L269.878,886.264 L268.174,886.264 Z M275.714667,890.848 L281.810667,890.848 C281.810667,888.568 281.450667,885.976 278.858667,885.976 C276.074667,885.976 275.714667,889.216 275.714667,890.848 Z M282.818667,891.664 L275.714667,891.664 C275.714667,893.68 275.738667,897.472 278.666667,897.472 C281.306667,897.472 281.738667,894.832 281.738667,893.896 L282.650667,893.896 C282.650667,895.816 281.594667,898.288 278.762667,898.288 C275.522667,898.288 274.706667,895.648 274.706667,891.376 C274.706667,887.536 276.074667,885.16 278.906667,885.16 C281.858667,885.16 282.818667,887.608 282.818667,891.664 Z M285.703334,898 L285.703334,885.448 L286.615334,885.448 L286.615334,887.344 L286.663334,887.344 C287.095334,886.24 288.151334,885.16 289.855334,885.16 C291.631334,885.16 293.023334,886.168 293.023334,888.544 L293.023334,898 L292.111334,898 L292.111334,888.976 C292.111334,886.744 291.175334,885.976 289.615334,885.976 C287.695334,885.976 286.615334,887.776 286.615334,889.96 L286.615334,898 L285.703334,898 Z M297.324,880.864 L298.332,880.864 L298.332,886.384 L298.188,893.536 L297.468,893.536 L297.324,886.384 L297.324,880.864 Z M297.324,898 L297.324,895.696 L298.332,895.696 L298.332,898 L297.324,898 Z" id="Füllen-sie-die-unten" fill="#FFFFFF"></path>
    </g>
</svg>