<?xml version="1.0" encoding="UTF-8"?>
<svg width="307px" height="38px" viewBox="0 0 307 38" version="1.1" xmlns="http://www.w3.org/2000/svg" xmlns:xlink="http://www.w3.org/1999/xlink">
    <!-- Generator: Sketch 48.2 (47327) - http://www.bohemiancoding.com/sketch -->
    <title>COMING SOON!</title>
    <desc>Created with Sketch.</desc>
    <defs></defs>
    <g id="iPhone-8" stroke="none" stroke-width="1" fill="none" fill-rule="evenodd" transform="translate(-31.000000, -732.000000)">
        <path d="M57.872,746.68 C57.4879981,746.68 57.1520014,746.552001 56.864,746.296 C56.5759986,746.039999 56.432,745.704002 56.432,745.288 C56.432,745.095999 56.4160002,744.872001 56.384,744.616 C56.3199997,744.199998 56.2240006,743.624004 56.096,742.888 C55.6479978,741.063991 54.8320059,739.576006 53.648,738.424 C51.7919907,736.535991 49.1040176,735.592 45.584,735.592 C43.0559874,735.592 41.0640073,736.039996 39.608,736.936 C38.1519927,737.832004 37.0560037,739.015993 36.32,740.488 C35.5839963,741.960007 35.120001,743.615991 34.928,745.456 C34.735999,747.296009 34.64,749.143991 34.64,751 C34.64,751.640003 34.6479999,752.359996 34.664,753.16 C34.6800001,753.960004 34.7359995,754.799996 34.832,755.68 C34.9280005,756.560004 35.071999,757.447996 35.264,758.344 C35.456001,759.240004 35.7279982,760.103996 36.08,760.936 C37.680008,764.584018 40.8479763,766.408 45.584,766.408 C50.192023,766.408 53.3599914,764.776016 55.088,761.512 C55.4080016,760.903997 55.663999,760.296003 55.856,759.688 C56.048001,759.079997 56.1839996,758.544002 56.264,758.08 C56.3440004,757.615998 56.3919999,757.240001 56.408,756.952 L56.432,756.52 C56.432,756.135998 56.5759986,755.816001 56.864,755.56 C57.1520014,755.303999 57.4879981,755.176 57.872,755.176 C58.2560019,755.176 58.5759987,755.303999 58.832,755.56 C59.0880013,755.816001 59.216,756.135998 59.216,756.52 C59.216,756.552 59.2080001,756.751998 59.192,757.12 C59.1759999,757.488002 59.1120006,757.967997 59,758.56 C58.8879994,759.152003 58.7200011,759.823996 58.496,760.576 C58.2719989,761.328004 57.9520021,762.087996 57.536,762.856 C57.1519981,763.592004 56.6400032,764.327996 56,765.064 C55.3599968,765.800004 54.5600048,766.479997 53.6,767.104 C52.6399952,767.728003 51.5040066,768.231998 50.192,768.616 C48.8799934,769.000002 47.3440088,769.192 45.584,769.192 C42.4159842,769.192 39.8080102,768.520007 37.76,767.176 C35.9999912,765.927994 34.5920053,764.216011 33.536,762.04 C33.1199979,761.079995 32.8000011,760.096005 32.576,759.088 C32.3519989,758.079995 32.1840006,757.088005 32.072,756.112 C31.9599994,755.135995 31.8960001,754.208004 31.88,753.328 C31.8639999,752.447996 31.856,751.672003 31.856,751 C31.856,750.263996 31.8639999,749.448004 31.88,748.552 C31.8960001,747.655996 31.9519995,746.728005 32.048,745.768 C32.1440005,744.807995 32.3039989,743.832005 32.528,742.84 C32.7520011,741.847995 33.0719979,740.888005 33.488,739.96 C34.0000026,738.839994 34.6079965,737.864004 35.312,737.032 C36.0160035,736.199996 36.8159955,735.464003 37.712,734.824 C39.7600102,733.479993 42.383984,732.808 45.584,732.808 C49.8720214,732.808 53.2319878,734.023988 55.664,736.456 C56.5280043,737.352004 57.1999976,738.295995 57.68,739.288 C58.1600024,740.280005 58.5119989,741.207996 58.736,742.072 C58.9600011,742.936004 59.0959998,743.663997 59.144,744.256 C59.1920002,744.848003 59.216,745.192 59.216,745.288 L59.216,745.336 C59.216,745.720002 59.0880013,746.039999 58.832,746.296 C58.5759987,746.552001 58.2560019,746.68 57.872,746.68 Z M78.1326667,769.144 C73.5246437,769.144 70.1006779,767.736014 67.8606667,764.92 C65.4286545,762.007985 64.2126667,757.368032 64.2126667,751 C64.2126667,749.367992 64.284666,747.880007 64.4286667,746.536 C64.5726674,745.191993 64.7726654,743.944006 65.0286667,742.792 C65.5726694,740.359988 66.4206609,738.456007 67.5726667,737.08 C68.7566726,735.639993 70.2606576,734.552004 72.0846667,733.816 C73.6846747,733.175997 75.7006545,732.856 78.1326667,732.856 C79.3166726,732.856 80.4206616,732.943999 81.4446667,733.12 C82.4686718,733.296001 83.3966625,733.591998 84.2286667,734.008 C85.9886755,734.712004 87.4926605,735.863992 88.7406667,737.464 C90.8846774,740.408015 91.9566667,744.91997 91.9566667,751 C91.9566667,753.912015 91.6846694,756.535988 91.1406667,758.872 C90.8526653,759.992006 90.4846689,761.031995 90.0366667,761.992 C89.5886645,762.952005 89.0446699,763.815996 88.4046667,764.584 C86.1006552,767.624015 82.6766894,769.144 78.1326667,769.144 Z M78.1326667,735.64 C74.1326467,735.64 71.3166749,736.695989 69.6846667,738.808 C67.8606576,741.208012 66.9486667,745.271971 66.9486667,751 C66.9486667,753.912015 67.1966642,756.35999 67.6926667,758.344 C68.1886692,760.32801 68.9166619,761.943994 69.8766667,763.192 C71.5726752,765.304011 74.3246477,766.36 78.1326667,766.36 C81.8126851,766.36 84.5486577,765.176012 86.3406667,762.808 C87.2686713,761.527994 87.9806642,759.90401 88.4766667,757.936 C88.9726692,755.96799 89.2206667,753.656013 89.2206667,751 C89.2206667,745.591973 88.3406755,741.656012 86.5806667,739.192 C84.8206579,736.823988 82.0046861,735.64 78.1326667,735.64 Z M125.705333,769 C125.321331,769 125.001335,768.872001 124.745333,768.616 C124.489332,768.359999 124.361333,768.040002 124.361333,767.656 L124.361333,739.192 L113.177333,757.288 C112.857332,757.704002 112.457336,757.912 111.977333,757.912 C111.465331,757.912 111.081335,757.704002 110.825333,757.288 L99.7373334,739.192 L99.7373334,767.656 C99.7373334,768.040002 99.6093347,768.359999 99.3533334,768.616 C99.0973321,768.872001 98.7773353,769 98.3933334,769 C98.0093315,769 97.6813348,768.872001 97.4093334,768.616 C97.137332,768.359999 97.0013334,768.040002 97.0013334,767.656 L97.0013334,734.344 C97.0013334,734.055999 97.0893325,733.784001 97.2653334,733.528 C97.4413343,733.271999 97.6893318,733.112 98.0093334,733.048 C98.2973348,732.952 98.585332,732.959999 98.8733334,733.072 C99.1613348,733.184001 99.3853326,733.367999 99.5453334,733.624 L111.977333,753.928 L124.553333,733.624 C124.713334,733.367999 124.937332,733.184001 125.225333,733.072 C125.513335,732.959999 125.801332,732.952 126.089333,733.048 C126.409335,733.112 126.657333,733.271999 126.833333,733.528 C127.009334,733.784001 127.097333,734.055999 127.097333,734.344 L127.097333,767.656 C127.097333,768.040002 126.961335,768.359999 126.689333,768.616 C126.417332,768.872001 126.089335,769 125.705333,769 Z M133.438,769 C133.053998,769 132.726001,768.872001 132.454,768.616 C132.181999,768.359999 132.046,768.024002 132.046,767.608 L132.046,734.392 C132.046,733.975998 132.181999,733.640001 132.454,733.384 C132.726001,733.127999 133.053998,733 133.438,733 C133.790002,733 134.101999,733.127999 134.374,733.384 C134.646001,733.640001 134.782,733.975998 134.782,734.392 L134.782,767.608 C134.782,768.024002 134.646001,768.359999 134.374,768.616 C134.101999,768.872001 133.790002,769 133.438,769 Z M165.794667,769 C165.282664,769 164.914668,768.792002 164.690667,768.376 L154.994667,754.264 C154.802666,753.943998 154.738666,753.600002 154.802667,753.232 C154.866667,752.863998 155.058665,752.584001 155.378667,752.392 C155.666668,752.135999 156.002665,752.04 156.386667,752.104 C156.770669,752.168 157.058666,752.375998 157.250667,752.728 L164.450667,763.192 L164.450667,734.392 C164.450667,734.007998 164.586665,733.680001 164.858667,733.408 C165.130668,733.135999 165.442665,733 165.794667,733 C166.178669,733 166.506665,733.135999 166.778667,733.408 C167.050668,733.680001 167.186667,734.007998 167.186667,734.392 L167.186667,767.608 C167.186667,768.280003 166.86667,768.727999 166.226667,768.952 C166.162666,768.952 166.090667,768.96 166.010667,768.976 C165.930666,768.992 165.858667,769 165.794667,769 Z M143.042667,769 C142.658665,769 142.330668,768.864001 142.058667,768.592 C141.786665,768.319999 141.650667,767.992002 141.650667,767.608 L141.650667,734.392 C141.650667,733.719997 141.970664,733.272001 142.610667,733.048 C142.898668,732.984 143.186665,733 143.474667,733.096 C143.762668,733.192 143.986666,733.367999 144.146667,733.624 L153.938667,747.832 C154.130668,748.152002 154.194667,748.495998 154.130667,748.864 C154.066666,749.232002 153.890668,749.527999 153.602667,749.752 C153.282665,749.976001 152.938669,750.056 152.570667,749.992 C152.202665,749.928 151.906668,749.720002 151.682667,749.368 L144.386667,738.808 L144.386667,767.608 C144.386667,767.992002 144.258668,768.319999 144.002667,768.592 C143.746666,768.864001 143.426669,769 143.042667,769 Z M198.727334,769 C198.343332,769 198.015335,768.864001 197.743334,768.592 C197.471332,768.319999 197.335333,768.008002 197.335333,767.656 L197.335333,757.864 L189.655334,757.864 C189.271332,757.864 188.935335,757.736001 188.647334,757.48 C188.359332,757.223999 188.215334,756.904002 188.215334,756.52 C188.215334,756.135998 188.359332,755.816001 188.647334,755.56 C188.935335,755.303999 189.271332,755.176 189.655334,755.176 L198.727334,755.176 C199.079335,755.176 199.391332,755.303999 199.663333,755.56 C199.935335,755.816001 200.071334,756.135998 200.071334,756.52 L200.071334,767.656 C200.071334,768.008002 199.935335,768.319999 199.663333,768.592 C199.391332,768.864001 199.079335,769 198.727334,769 Z M195.079334,736.504 C195.943338,737.400004 196.615331,738.335995 197.095334,739.312 C197.575336,740.288005 197.927332,741.207996 198.151333,742.072 C198.375335,742.936004 198.511333,743.663997 198.559334,744.256 C198.607334,744.848003 198.631334,745.207999 198.631334,745.336 L198.631334,745.384 C198.631334,745.736002 198.495335,746.039999 198.223333,746.296 C197.951332,746.552001 197.623335,746.68 197.239334,746.68 C196.887332,746.68 196.575335,746.544001 196.303334,746.272 C196.031332,745.999999 195.895333,745.688002 195.895333,745.336 C195.895333,745.111999 195.879334,744.872001 195.847333,744.616 C195.783333,744.199998 195.687334,743.624004 195.559334,742.888 C195.303332,741.991996 194.959336,741.168004 194.527333,740.416 C194.095331,739.663996 193.607336,739.000003 193.063333,738.424 C191.239324,736.535991 188.567351,735.592 185.047334,735.592 C182.519321,735.592 180.527341,736.047995 179.071334,736.96 C177.615326,737.872005 176.519337,739.055993 175.783333,740.512 C175.04733,741.968007 174.583334,743.615991 174.391334,745.456 C174.199333,747.296009 174.103333,749.143991 174.103333,751 C174.103333,751.608003 174.111333,752.311996 174.127333,753.112 C174.143334,753.912004 174.199333,754.751996 174.295333,755.632 C174.391334,756.512004 174.535333,757.407995 174.727334,758.32 C174.919334,759.232005 175.191332,760.103996 175.543334,760.936 C176.375338,762.760009 177.567326,764.127995 179.119334,765.04 C180.671341,765.952005 182.647322,766.408 185.047334,766.408 C188.43935,766.408 191.047324,765.496009 192.871333,763.672 C193.159335,763.383999 193.479332,763.24 193.831333,763.24 C194.215335,763.24 194.543332,763.375999 194.815334,763.648 C195.087335,763.920001 195.223333,764.247998 195.223333,764.632 C195.223333,764.984002 195.095335,765.319998 194.839334,765.64 C193.815328,766.632005 192.527341,767.463997 190.975334,768.136 C189.423326,768.808003 187.447346,769.144 185.047334,769.144 C181.879318,769.144 179.287344,768.472007 177.271333,767.128 C175.351324,765.847994 173.943338,764.152011 173.047334,762.04 C172.631331,761.079995 172.311335,760.088005 172.087333,759.064 C171.863332,758.039995 171.695334,757.048005 171.583334,756.088 C171.471333,755.127995 171.407334,754.208004 171.391334,753.328 C171.375333,752.447996 171.367334,751.672003 171.367334,751 C171.367334,750.295996 171.375333,749.496004 171.391334,748.6 C171.407334,747.703996 171.463333,746.776005 171.559334,745.816 C171.655334,744.855995 171.815332,743.880005 172.039333,742.888 C172.263335,741.895995 172.583331,740.920005 172.999334,739.96 C173.895338,737.847989 175.287324,736.168006 177.175333,734.92 C179.287344,733.543993 181.911318,732.856 185.047334,732.856 C189.303355,732.856 192.647321,734.071988 195.079334,736.504 Z M233.176667,742.6 L233.152667,742.6 L233.176667,742.6 Z M233.176667,742.6 L233.200667,742.6 L233.176667,742.264 C233.160667,742.039999 233.112667,741.760002 233.032667,741.424 C232.952667,741.087998 232.848668,740.712002 232.720667,740.296 C232.592666,739.879998 232.400668,739.448002 232.144667,739 C230.864661,736.727989 228.624683,735.592 225.424667,735.592 C223.824659,735.592 222.528672,735.807998 221.536667,736.24 C220.544662,736.672002 219.76867,737.223997 219.208667,737.896 C218.648664,738.568003 218.264668,739.319996 218.056667,740.152 C217.848666,740.984004 217.744667,741.783996 217.744667,742.552 C217.744667,743.256004 217.824666,743.983996 217.984667,744.736 C218.144668,745.488004 218.440665,746.191997 218.872667,746.848 C219.304669,747.504003 219.904663,748.071998 220.672667,748.552 C221.440671,749.032002 222.448661,749.351999 223.696667,749.512 C224.048669,749.576 224.344666,749.759998 224.584667,750.064 C224.824668,750.368002 224.912667,750.695998 224.848667,751.048 C224.784667,751.400002 224.632668,751.687999 224.392667,751.912 C224.152666,752.136001 223.856669,752.248 223.504667,752.248 C223.408666,752.248 223.344667,752.232 223.312667,752.2 C221.392657,752.007999 219.808673,751.432005 218.560667,750.472 C217.408661,749.639996 216.56067,748.616006 216.016667,747.4 C215.760666,746.887997 215.560668,746.384002 215.416667,745.888 C215.272666,745.391998 215.168667,744.928002 215.104667,744.496 C215.040667,744.063998 215.000667,743.680002 214.984667,743.344 C214.968667,743.007998 214.960667,742.744001 214.960667,742.552 C214.960667,742.391999 214.968667,742.128002 214.984667,741.76 C215.000667,741.391998 215.040667,740.968002 215.104667,740.488 C215.232668,739.879997 215.384666,739.304003 215.560667,738.76 C215.736668,738.215997 215.984665,737.688003 216.304667,737.176 C217.040671,735.927994 218.12866,734.904004 219.568667,734.104 C220.336671,733.719998 221.216662,733.416001 222.208667,733.192 C223.200672,732.967999 224.272661,732.856 225.424667,732.856 C226.768674,732.856 227.936662,733.007998 228.928667,733.312 C229.920672,733.616002 230.784663,733.999998 231.520667,734.464 C232.256671,734.928002 232.872664,735.447997 233.368667,736.024 C233.864669,736.600003 234.272665,737.159997 234.592667,737.704 C235.20067,738.824006 235.576666,739.847995 235.720667,740.776 C235.864668,741.704005 235.936667,742.279999 235.936667,742.504 L235.936667,742.552 C235.936667,742.936002 235.800668,743.263999 235.528667,743.536 C235.256666,743.808001 234.944669,743.944 234.592667,743.944 C234.208665,743.944 233.880668,743.816001 233.608667,743.56 C233.336666,743.303999 233.200667,742.984002 233.200667,742.6 L233.176667,742.6 Z M235.024667,754.936 C235.472669,755.960005 235.736667,756.927995 235.816667,757.84 C235.896667,758.752005 235.936667,759.399998 235.936667,759.784 C235.936667,760.232002 235.880667,760.951995 235.768667,761.944 C235.656666,762.936005 235.28067,763.975995 234.640667,765.064 C234.224665,765.704003 233.73667,766.263998 233.176667,766.744 C232.616664,767.224002 231.98467,767.639998 231.280667,767.992 C230.544663,768.344002 229.680672,768.623999 228.688667,768.832 C227.696662,769.040001 226.624673,769.144 225.472667,769.144 C224.12866,769.144 222.952672,769.000001 221.944667,768.712 C220.936662,768.423999 220.064671,768.056002 219.328667,767.608 C218.592663,767.159998 217.976669,766.664003 217.480667,766.12 C216.984664,765.575997 216.592668,765.032003 216.304667,764.488 C215.984665,763.911997 215.736668,763.344003 215.560667,762.784 C215.384666,762.223997 215.248667,761.728002 215.152667,761.296 C215.056666,760.863998 215.000667,760.512001 214.984667,760.24 C214.968667,759.967999 214.960667,759.816 214.960667,759.784 C214.960667,759.399998 215.096666,759.064001 215.368667,758.776 C215.640668,758.487999 215.968665,758.344 216.352667,758.344 C216.704669,758.344 217.024665,758.487999 217.312667,758.776 C217.600668,759.064001 217.744667,759.399998 217.744667,759.784 C217.744667,759.816 217.784667,760.175997 217.864667,760.864 C217.944667,761.552003 218.224665,762.311996 218.704667,763.144 C219.984673,765.320011 222.240651,766.408 225.472667,766.408 C230.592693,766.408 233.152667,764.200022 233.152667,759.784 C233.152667,755.655979 231.360685,753.256003 227.776667,752.584 C227.392665,752.52 227.096668,752.328002 226.888667,752.008 C226.680666,751.687998 226.624666,751.336002 226.720667,750.952 C226.784667,750.567998 226.968665,750.280001 227.272667,750.088 C227.576668,749.895999 227.936665,749.832 228.352667,749.896 C230.080676,750.184001 231.520661,750.839995 232.672667,751.864 C233.696672,752.664004 234.480664,753.687994 235.024667,754.936 Z M253.605334,769.144 C248.997311,769.144 245.573345,767.736014 243.333334,764.92 C240.901321,762.007985 239.685334,757.368032 239.685334,751 C239.685334,749.367992 239.757333,747.880007 239.901334,746.536 C240.045334,745.191993 240.245332,743.944006 240.501334,742.792 C241.045336,740.359988 241.893328,738.456007 243.045334,737.08 C244.22934,735.639993 245.733324,734.552004 247.557334,733.816 C249.157342,733.175997 251.173321,732.856 253.605334,732.856 C254.78934,732.856 255.893328,732.943999 256.917334,733.12 C257.941339,733.296001 258.869329,733.591998 259.701334,734.008 C261.461342,734.712004 262.965327,735.863992 264.213334,737.464 C266.357344,740.408015 267.429334,744.91997 267.429334,751 C267.429334,753.912015 267.157336,756.535988 266.613334,758.872 C266.325332,759.992006 265.957336,761.031995 265.509334,761.992 C265.061331,762.952005 264.517337,763.815996 263.877334,764.584 C261.573322,767.624015 258.149356,769.144 253.605334,769.144 Z M253.605334,735.64 C249.605314,735.64 246.789342,736.695989 245.157334,738.808 C243.333324,741.208012 242.421334,745.271971 242.421334,751 C242.421334,753.912015 242.669331,756.35999 243.165334,758.344 C243.661336,760.32801 244.389329,761.943994 245.349334,763.192 C247.045342,765.304011 249.797315,766.36 253.605334,766.36 C257.285352,766.36 260.021325,765.176012 261.813334,762.808 C262.741338,761.527994 263.453331,759.90401 263.949334,757.936 C264.445336,755.96799 264.693334,753.656013 264.693334,751 C264.693334,745.591973 263.813342,741.656012 262.053334,739.192 C260.293325,736.823988 257.477353,735.64 253.605334,735.64 Z M284.954,769.144 C280.345977,769.144 276.922011,767.736014 274.682,764.92 C272.249988,762.007985 271.034,757.368032 271.034,751 C271.034,749.367992 271.106,747.880007 271.25,746.536 C271.394001,745.191993 271.593999,743.944006 271.85,742.792 C272.394003,740.359988 273.241995,738.456007 274.394,737.08 C275.578006,735.639993 277.081991,734.552004 278.906,733.816 C280.506008,733.175997 282.521988,732.856 284.954,732.856 C286.138006,732.856 287.241995,732.943999 288.266,733.12 C289.290005,733.296001 290.217996,733.591998 291.05,734.008 C292.810009,734.712004 294.313994,735.863992 295.562,737.464 C297.706011,740.408015 298.778,744.91997 298.778,751 C298.778,753.912015 298.506003,756.535988 297.962,758.872 C297.673999,759.992006 297.306003,761.031995 296.858,761.992 C296.409998,762.952005 295.866003,763.815996 295.226,764.584 C292.921989,767.624015 289.498023,769.144 284.954,769.144 Z M284.954,735.64 C280.95398,735.64 278.138008,736.695989 276.506,738.808 C274.681991,741.208012 273.77,745.271971 273.77,751 C273.77,753.912015 274.017998,756.35999 274.514,758.344 C275.010003,760.32801 275.737996,761.943994 276.698,763.192 C278.394009,765.304011 281.145981,766.36 284.954,766.36 C288.634019,766.36 291.369991,765.176012 293.162,762.808 C294.090005,761.527994 294.801998,759.90401 295.298,757.936 C295.794003,755.96799 296.042,753.656013 296.042,751 C296.042,745.591973 295.162009,741.656012 293.402,739.192 C291.641992,736.823988 288.82602,735.64 284.954,735.64 Z M327.822667,769 C327.310664,769 326.942668,768.792002 326.718667,768.376 L317.022667,754.264 C316.830666,753.943998 316.766667,753.600002 316.830667,753.232 C316.894667,752.863998 317.086665,752.584001 317.406667,752.392 C317.694668,752.135999 318.030665,752.04 318.414667,752.104 C318.798669,752.168 319.086666,752.375998 319.278667,752.728 L326.478667,763.192 L326.478667,734.392 C326.478667,734.007998 326.614666,733.680001 326.886667,733.408 C327.158668,733.135999 327.470665,733 327.822667,733 C328.206669,733 328.534666,733.135999 328.806667,733.408 C329.078668,733.680001 329.214667,734.007998 329.214667,734.392 L329.214667,767.608 C329.214667,768.280003 328.89467,768.727999 328.254667,768.952 C328.190667,768.952 328.118667,768.96 328.038667,768.976 C327.958667,768.992 327.886667,769 327.822667,769 Z M305.070667,769 C304.686665,769 304.358668,768.864001 304.086667,768.592 C303.814666,768.319999 303.678667,767.992002 303.678667,767.608 L303.678667,734.392 C303.678667,733.719997 303.998664,733.272001 304.638667,733.048 C304.926668,732.984 305.214666,733 305.502667,733.096 C305.790668,733.192 306.014666,733.367999 306.174667,733.624 L315.966667,747.832 C316.158668,748.152002 316.222667,748.495998 316.158667,748.864 C316.094667,749.232002 315.918668,749.527999 315.630667,749.752 C315.310665,749.976001 314.966669,750.056 314.598667,749.992 C314.230665,749.928 313.934668,749.720002 313.710667,749.368 L306.414667,738.808 L306.414667,767.608 C306.414667,767.992002 306.286668,768.319999 306.030667,768.592 C305.774666,768.864001 305.454669,769 305.070667,769 Z M335.891334,763.912 C335.507332,763.912 335.187335,763.776001 334.931334,763.504 C334.675332,763.231999 334.547334,762.904002 334.547334,762.52 L334.547334,734.392 C334.547334,733.975998 334.675332,733.640001 334.931334,733.384 C335.187335,733.127999 335.507332,733 335.891334,733 C336.243335,733 336.563332,733.127999 336.851334,733.384 C337.139335,733.640001 337.283334,733.975998 337.283334,734.392 L337.283334,762.52 C337.283334,762.904002 337.139335,763.231999 336.851334,763.504 C336.563332,763.776001 336.243335,763.912 335.891334,763.912 Z M337.187334,767.608 C337.187334,768.024002 337.051335,768.359999 336.779334,768.616 C336.507332,768.872001 336.195335,769 335.843334,769 C335.427332,769 335.091335,768.872001 334.835334,768.616 C334.579332,768.359999 334.451334,768.024002 334.451334,767.608 C334.451334,767.223998 334.579332,766.904001 334.835334,766.648 C335.091335,766.391999 335.427332,766.264 335.843334,766.264 C336.195335,766.264 336.507332,766.391999 336.779334,766.648 C337.051335,766.904001 337.187334,767.223998 337.187334,767.608 Z" id="COMING-SOON!" fill="#FFFFFF"></path>
    </g>
</svg>